M48
INCH,TZ
T1C0.0157
T2C0.0394
T3C0.0433
T4C0.0630
%
G90
G05
T1
X44725Y-25475
X44875Y-39225
X45000Y-22550
X45000Y-28075
X45000Y-33675
X47600Y-20425
X48050Y-25950
X48075Y-37000
X48125Y-31475
X48250Y-22225
X48825Y-39200
X48875Y-33700
X48950Y-28175
X48950Y-29125
X49250Y-43300
X49625Y-46350
X49800Y-23175
X49850Y-24150
X49950Y-34475
X49950Y-35350
X51525Y-27600
X51550Y-29250
X51625Y-31500
X51750Y-28450
X52175Y-44125
X52200Y-22175
X52250Y-47850
X52450Y-29175
X52575Y-49150
X52675Y-31150
X52725Y-33625
X52775Y-39150
X52875Y-28075
X54450Y-21075
X54675Y-22100
X54725Y-25925
X54825Y-17425
X54975Y-46675
X55075Y-39300
X55150Y-28400
X55725Y-40650
X55800Y-25525
X55925Y-16125
X56050Y-29425
X56225Y-40800
X56425Y-27175
X56700Y-34100
X57125Y-22625
X57125Y-32500
X57225Y-27150
X57275Y-49775
X57375Y-45800
X57425Y-37475
X57925Y-34625
X57950Y-21350
X58000Y-27125
X58000Y-35050
X58025Y-32200
X58200Y-25500
X58200Y-33950
X58250Y-37225
X58525Y-23875
X58550Y-39425
X58800Y-34200
X58850Y-37200
X58975Y-37900
X59450Y-23975
X59625Y-33125
X59825Y-42850
X59959Y-32400
X60250Y-23425
X60350Y-37725
X60425Y-46675
X60750Y-22975
X60825Y-36025
X61125Y-24500
X61350Y-20400
X61600Y-36150
X61825Y-37300
X61875Y-39075
X61925Y-31925
X61925Y-32400
X62075Y-31425
X62450Y-34000
X62525Y-21525
X62525Y-30650
X62600Y-16325
X62600Y-26575
X62600Y-39750
X62725Y-46250
X62850Y-49850
X62875Y-35250
X62925Y-36650
X62926Y-35774
X62975Y-30700
X63100Y-39400
X63225Y-24375
X63375Y-38550
X63400Y-30950
X63425Y-39775
X63650Y-43800
X63725Y-29950
X63800Y-20425
X63900Y-21925
X63925Y-36950
X64050Y-30275
X64075Y-39525
X64425Y-34975
X64450Y-19350
X64475Y-26575
X64475Y-33950
X64575Y-35675
X64625Y-38700
X64700Y-21250
X64750Y-30200
X64900Y-36250
X65000Y-38250
X65100Y-37825
X65175Y-38725
X65225Y-34800
X65225Y-42825
X65575Y-35325
X65750Y-19350
X66025Y-27700
X66075Y-35050
X66100Y-28800
X66175Y-34525
X66225Y-36200
X66575Y-39575
X66600Y-36075
X66625Y-35450
X66725Y-41375
X66775Y-19350
X66775Y-25475
X66825Y-20275
X66950Y-35825
X66975Y-27750
X67125Y-30150
X67150Y-25800
X67150Y-42750
X67300Y-36150
X67400Y-34575
X67450Y-34000
X67600Y-26325
X67700Y-41275
X67750Y-30175
X67750Y-47725
X67775Y-20325
X68025Y-29625
X68050Y-27300
X68250Y-44650
X68325Y-43850
X68350Y-26750
X68350Y-35050
X68400Y-19250
X68400Y-32000
X68550Y-27375
X68698Y-36302
X68726Y-27023
X68825Y-34675
X68825Y-40200
X68825Y-41100
X68850Y-21975
X68875Y-23450
X69075Y-32100
X69075Y-34075
X69100Y-35750
X69150Y-31625
X69275Y-28275
X69300Y-25250
X69325Y-19625
X69350Y-39575
X69475Y-23000
X69700Y-24050
X70150Y-47575
X70225Y-40175
X70250Y-41125
X70275Y-30775
X70600Y-30200
X70625Y-22400
X70725Y-33200
X70750Y-35250
X70775Y-38800
X70800Y-19375
X70900Y-36575
X70975Y-28225
X71375Y-29325
X71475Y-32825
X71575Y-37625
X71750Y-30925
X71800Y-20650
X71850Y-37175
X71925Y-34400
X72225Y-45825
X72225Y-49750
X72450Y-27075
X72475Y-30400
X72775Y-19350
X72900Y-25525
X72900Y-33300
X73075Y-34375
X73200Y-27109
X73200Y-32975
X73375Y-29400
X73485Y-25550
X73500Y-23425
X73700Y-30425
X73975Y-21200
X74000Y-24525
X74150Y-30425
X74700Y-33025
X74975Y-38900
X75000Y-42250
X75450Y-21450
X75575Y-46700
X76525Y-21150
X76825Y-20225
X76850Y-22650
X76975Y-26975
X77600Y-22350
X77775Y-45875
X77775Y-49800
X78375Y-22600
X78700Y-19300
X78775Y-39525
X78950Y-20700
X79500Y-25075
X79575Y-22675
X80125Y-40125
X80350Y-38825
X80450Y-32775
X80725Y-44075
X80825Y-39825
X81175Y-21300
X81300Y-38825
X82175Y-32750
X83000Y-22375
X83050Y-39900
X83075Y-38200
X83075Y-42725
X83125Y-43575
X83275Y-33575
X85000Y-45900
X85550Y-30850
X85575Y-19825
X85575Y-25450
X85875Y-28475
X86150Y-22675
X86150Y-43375
X86250Y-37000
X87150Y-31925
X87175Y-29650
X87175Y-33625
X87375Y-22000
X87400Y-42875
X87450Y-39175
X87500Y-21300
X87750Y-28725
X88075Y-23900
X88150Y-42850
X88175Y-43350
X88200Y-47700
X88425Y-29650
X89375Y-25475
X89500Y-19925
X89500Y-30850
X89500Y-44825
X89700Y-34875
X89975Y-23900
X89975Y-33675
X90150Y-36975
X91125Y-32775
X91300Y-21725
X91300Y-32075
X91550Y-43375
X91625Y-21102
X93425Y-30800
X93450Y-19900
X93450Y-25425
X93575Y-36475
T2
X76750Y-39500
X77750Y-39500
T3
X71475Y-17125
X72475Y-17125
X78575Y-17075
X79575Y-17075
T4
X82025Y-45125
X82025Y-47487
X83875Y-46306
T0
M30
