G04 #@! TF.GenerationSoftware,KiCad,Pcbnew,(5.1.0)-1*
G04 #@! TF.CreationDate,2021-02-04T11:50:56-05:00*
G04 #@! TF.ProjectId,SpaceCenter_MainBoard_KiCAD,53706163-6543-4656-9e74-65725f4d6169,rev?*
G04 #@! TF.SameCoordinates,Original*
G04 #@! TF.FileFunction,Legend,Top*
G04 #@! TF.FilePolarity,Positive*
%FSLAX46Y46*%
G04 Gerber Fmt 4.6, Leading zero omitted, Abs format (unit mm)*
G04 Created by KiCad (PCBNEW (5.1.0)-1) date 2021-02-04 11:50:56*
%MOMM*%
%LPD*%
G04 APERTURE LIST*
%ADD10C,0.150000*%
%ADD11C,0.120000*%
%ADD12C,0.300000*%
%ADD13C,0.100000*%
%ADD14C,0.152400*%
%ADD15C,0.050000*%
G04 APERTURE END LIST*
D10*
X195691309Y-73116833D02*
X196643690Y-73116833D01*
X195500833Y-73688261D02*
X196167500Y-71688261D01*
X196834166Y-73688261D01*
X198643690Y-73497785D02*
X198548452Y-73593023D01*
X198262738Y-73688261D01*
X198072261Y-73688261D01*
X197786547Y-73593023D01*
X197596071Y-73402547D01*
X197500833Y-73212071D01*
X197405595Y-72831119D01*
X197405595Y-72545404D01*
X197500833Y-72164452D01*
X197596071Y-71973976D01*
X197786547Y-71783500D01*
X198072261Y-71688261D01*
X198262738Y-71688261D01*
X198548452Y-71783500D01*
X198643690Y-71878738D01*
X183596071Y-76743023D02*
X183881785Y-76838261D01*
X184357976Y-76838261D01*
X184548452Y-76743023D01*
X184643690Y-76647785D01*
X184738928Y-76457309D01*
X184738928Y-76266833D01*
X184643690Y-76076357D01*
X184548452Y-75981119D01*
X184357976Y-75885880D01*
X183977023Y-75790642D01*
X183786547Y-75695404D01*
X183691309Y-75600166D01*
X183596071Y-75409690D01*
X183596071Y-75219214D01*
X183691309Y-75028738D01*
X183786547Y-74933500D01*
X183977023Y-74838261D01*
X184453214Y-74838261D01*
X184738928Y-74933500D01*
X185596071Y-75504928D02*
X185596071Y-77504928D01*
X185596071Y-75600166D02*
X185786547Y-75504928D01*
X186167500Y-75504928D01*
X186357976Y-75600166D01*
X186453214Y-75695404D01*
X186548452Y-75885880D01*
X186548452Y-76457309D01*
X186453214Y-76647785D01*
X186357976Y-76743023D01*
X186167500Y-76838261D01*
X185786547Y-76838261D01*
X185596071Y-76743023D01*
X188262738Y-76838261D02*
X188262738Y-75790642D01*
X188167500Y-75600166D01*
X187977023Y-75504928D01*
X187596071Y-75504928D01*
X187405595Y-75600166D01*
X188262738Y-76743023D02*
X188072261Y-76838261D01*
X187596071Y-76838261D01*
X187405595Y-76743023D01*
X187310357Y-76552547D01*
X187310357Y-76362071D01*
X187405595Y-76171595D01*
X187596071Y-76076357D01*
X188072261Y-76076357D01*
X188262738Y-75981119D01*
X190072261Y-76743023D02*
X189881785Y-76838261D01*
X189500833Y-76838261D01*
X189310357Y-76743023D01*
X189215119Y-76647785D01*
X189119880Y-76457309D01*
X189119880Y-75885880D01*
X189215119Y-75695404D01*
X189310357Y-75600166D01*
X189500833Y-75504928D01*
X189881785Y-75504928D01*
X190072261Y-75600166D01*
X191691309Y-76743023D02*
X191500833Y-76838261D01*
X191119880Y-76838261D01*
X190929404Y-76743023D01*
X190834166Y-76552547D01*
X190834166Y-75790642D01*
X190929404Y-75600166D01*
X191119880Y-75504928D01*
X191500833Y-75504928D01*
X191691309Y-75600166D01*
X191786547Y-75790642D01*
X191786547Y-75981119D01*
X190834166Y-76171595D01*
X192167500Y-77028738D02*
X193691309Y-77028738D01*
X195310357Y-76647785D02*
X195215119Y-76743023D01*
X194929404Y-76838261D01*
X194738928Y-76838261D01*
X194453214Y-76743023D01*
X194262738Y-76552547D01*
X194167500Y-76362071D01*
X194072261Y-75981119D01*
X194072261Y-75695404D01*
X194167500Y-75314452D01*
X194262738Y-75123976D01*
X194453214Y-74933500D01*
X194738928Y-74838261D01*
X194929404Y-74838261D01*
X195215119Y-74933500D01*
X195310357Y-75028738D01*
X196929404Y-76743023D02*
X196738928Y-76838261D01*
X196357976Y-76838261D01*
X196167500Y-76743023D01*
X196072261Y-76552547D01*
X196072261Y-75790642D01*
X196167500Y-75600166D01*
X196357976Y-75504928D01*
X196738928Y-75504928D01*
X196929404Y-75600166D01*
X197024642Y-75790642D01*
X197024642Y-75981119D01*
X196072261Y-76171595D01*
X197881785Y-75504928D02*
X197881785Y-76838261D01*
X197881785Y-75695404D02*
X197977023Y-75600166D01*
X198167500Y-75504928D01*
X198453214Y-75504928D01*
X198643690Y-75600166D01*
X198738928Y-75790642D01*
X198738928Y-76838261D01*
X199405595Y-75504928D02*
X200167500Y-75504928D01*
X199691309Y-74838261D02*
X199691309Y-76552547D01*
X199786547Y-76743023D01*
X199977023Y-76838261D01*
X200167500Y-76838261D01*
X201596071Y-76743023D02*
X201405595Y-76838261D01*
X201024642Y-76838261D01*
X200834166Y-76743023D01*
X200738928Y-76552547D01*
X200738928Y-75790642D01*
X200834166Y-75600166D01*
X201024642Y-75504928D01*
X201405595Y-75504928D01*
X201596071Y-75600166D01*
X201691309Y-75790642D01*
X201691309Y-75981119D01*
X200738928Y-76171595D01*
X202548452Y-76838261D02*
X202548452Y-75504928D01*
X202548452Y-75885880D02*
X202643690Y-75695404D01*
X202738928Y-75600166D01*
X202929404Y-75504928D01*
X203119880Y-75504928D01*
X205119880Y-75504928D02*
X205596071Y-76838261D01*
X206072261Y-75504928D01*
X207881785Y-76838261D02*
X206738928Y-76838261D01*
X207310357Y-76838261D02*
X207310357Y-74838261D01*
X207119880Y-75123976D01*
X206929404Y-75314452D01*
X206738928Y-75409690D01*
X208738928Y-76647785D02*
X208834166Y-76743023D01*
X208738928Y-76838261D01*
X208643690Y-76743023D01*
X208738928Y-76647785D01*
X208738928Y-76838261D01*
X210072261Y-74838261D02*
X210262738Y-74838261D01*
X210453214Y-74933500D01*
X210548452Y-75028738D01*
X210643690Y-75219214D01*
X210738928Y-75600166D01*
X210738928Y-76076357D01*
X210643690Y-76457309D01*
X210548452Y-76647785D01*
X210453214Y-76743023D01*
X210262738Y-76838261D01*
X210072261Y-76838261D01*
X209881785Y-76743023D01*
X209786547Y-76647785D01*
X209691309Y-76457309D01*
X209596071Y-76076357D01*
X209596071Y-75600166D01*
X209691309Y-75219214D01*
X209786547Y-75028738D01*
X209881785Y-74933500D01*
X210072261Y-74838261D01*
D11*
X143167453Y-65913000D02*
G75*
G03X143167453Y-65913000I-228953J0D01*
G01*
X165582953Y-105664000D02*
G75*
G03X165582953Y-105664000I-228953J0D01*
G01*
X162071000Y-78676500D02*
G75*
G03X162071000Y-78676500I-400000J0D01*
G01*
X166027453Y-48260000D02*
G75*
G03X166027453Y-48260000I-228953J0D01*
G01*
X199237953Y-54673500D02*
G75*
G03X199237953Y-54673500I-228953J0D01*
G01*
X180886453Y-54546500D02*
G75*
G03X180886453Y-54546500I-228953J0D01*
G01*
D12*
X190205071Y-63471357D02*
X190205071Y-62271357D01*
X190719357Y-62385642D02*
X190776500Y-62328500D01*
X190890785Y-62271357D01*
X191176500Y-62271357D01*
X191290785Y-62328500D01*
X191347928Y-62385642D01*
X191405071Y-62499928D01*
X191405071Y-62614214D01*
X191347928Y-62785642D01*
X190662214Y-63471357D01*
X191405071Y-63471357D01*
X191862214Y-63414214D02*
X192033642Y-63471357D01*
X192319357Y-63471357D01*
X192433642Y-63414214D01*
X192490785Y-63357071D01*
X192547928Y-63242785D01*
X192547928Y-63128500D01*
X192490785Y-63014214D01*
X192433642Y-62957071D01*
X192319357Y-62899928D01*
X192090785Y-62842785D01*
X191976500Y-62785642D01*
X191919357Y-62728500D01*
X191862214Y-62614214D01*
X191862214Y-62499928D01*
X191919357Y-62385642D01*
X191976500Y-62328500D01*
X192090785Y-62271357D01*
X192376500Y-62271357D01*
X192547928Y-62328500D01*
X192776500Y-63585642D02*
X193690785Y-63585642D01*
X193919357Y-63414214D02*
X194090785Y-63471357D01*
X194376500Y-63471357D01*
X194490785Y-63414214D01*
X194547928Y-63357071D01*
X194605071Y-63242785D01*
X194605071Y-63128500D01*
X194547928Y-63014214D01*
X194490785Y-62957071D01*
X194376500Y-62899928D01*
X194147928Y-62842785D01*
X194033642Y-62785642D01*
X193976500Y-62728500D01*
X193919357Y-62614214D01*
X193919357Y-62499928D01*
X193976500Y-62385642D01*
X194033642Y-62328500D01*
X194147928Y-62271357D01*
X194433642Y-62271357D01*
X194605071Y-62328500D01*
X195119357Y-63471357D02*
X195119357Y-62271357D01*
X195405071Y-62271357D01*
X195576500Y-62328500D01*
X195690785Y-62442785D01*
X195747928Y-62557071D01*
X195805071Y-62785642D01*
X195805071Y-62957071D01*
X195747928Y-63185642D01*
X195690785Y-63299928D01*
X195576500Y-63414214D01*
X195405071Y-63471357D01*
X195119357Y-63471357D01*
X221818571Y-44294357D02*
X221818571Y-43094357D01*
X222504285Y-44294357D01*
X222504285Y-43094357D01*
X223075714Y-43665785D02*
X223475714Y-43665785D01*
X223647142Y-44294357D02*
X223075714Y-44294357D01*
X223075714Y-43094357D01*
X223647142Y-43094357D01*
X224390000Y-43094357D02*
X224618571Y-43094357D01*
X224732857Y-43151500D01*
X224847142Y-43265785D01*
X224904285Y-43494357D01*
X224904285Y-43894357D01*
X224847142Y-44122928D01*
X224732857Y-44237214D01*
X224618571Y-44294357D01*
X224390000Y-44294357D01*
X224275714Y-44237214D01*
X224161428Y-44122928D01*
X224104285Y-43894357D01*
X224104285Y-43494357D01*
X224161428Y-43265785D01*
X224275714Y-43151500D01*
X224390000Y-43094357D01*
X225418571Y-44294357D02*
X225418571Y-43094357D01*
X225875714Y-43094357D01*
X225990000Y-43151500D01*
X226047142Y-43208642D01*
X226104285Y-43322928D01*
X226104285Y-43494357D01*
X226047142Y-43608642D01*
X225990000Y-43665785D01*
X225875714Y-43722928D01*
X225418571Y-43722928D01*
X226618571Y-44294357D02*
X226618571Y-43094357D01*
X227075714Y-43094357D02*
X227875714Y-44294357D01*
X227875714Y-43094357D02*
X227075714Y-44294357D01*
X189039857Y-49945857D02*
X189039857Y-48745857D01*
X189554142Y-48860142D02*
X189611285Y-48803000D01*
X189725571Y-48745857D01*
X190011285Y-48745857D01*
X190125571Y-48803000D01*
X190182714Y-48860142D01*
X190239857Y-48974428D01*
X190239857Y-49088714D01*
X190182714Y-49260142D01*
X189497000Y-49945857D01*
X190239857Y-49945857D01*
X190697000Y-49888714D02*
X190868428Y-49945857D01*
X191154142Y-49945857D01*
X191268428Y-49888714D01*
X191325571Y-49831571D01*
X191382714Y-49717285D01*
X191382714Y-49603000D01*
X191325571Y-49488714D01*
X191268428Y-49431571D01*
X191154142Y-49374428D01*
X190925571Y-49317285D01*
X190811285Y-49260142D01*
X190754142Y-49203000D01*
X190697000Y-49088714D01*
X190697000Y-48974428D01*
X190754142Y-48860142D01*
X190811285Y-48803000D01*
X190925571Y-48745857D01*
X191211285Y-48745857D01*
X191382714Y-48803000D01*
X191611285Y-50060142D02*
X192525571Y-50060142D01*
X192697000Y-48745857D02*
X192982714Y-49945857D01*
X193211285Y-49088714D01*
X193439857Y-49945857D01*
X193725571Y-48745857D01*
X194125571Y-49888714D02*
X194297000Y-49945857D01*
X194582714Y-49945857D01*
X194697000Y-49888714D01*
X194754142Y-49831571D01*
X194811285Y-49717285D01*
X194811285Y-49603000D01*
X194754142Y-49488714D01*
X194697000Y-49431571D01*
X194582714Y-49374428D01*
X194354142Y-49317285D01*
X194239857Y-49260142D01*
X194182714Y-49203000D01*
X194125571Y-49088714D01*
X194125571Y-48974428D01*
X194182714Y-48860142D01*
X194239857Y-48803000D01*
X194354142Y-48745857D01*
X194639857Y-48745857D01*
X194811285Y-48803000D01*
X189160500Y-44357857D02*
X189160500Y-43157857D01*
X189674785Y-43272142D02*
X189731928Y-43215000D01*
X189846214Y-43157857D01*
X190131928Y-43157857D01*
X190246214Y-43215000D01*
X190303357Y-43272142D01*
X190360500Y-43386428D01*
X190360500Y-43500714D01*
X190303357Y-43672142D01*
X189617642Y-44357857D01*
X190360500Y-44357857D01*
X190817642Y-44300714D02*
X190989071Y-44357857D01*
X191274785Y-44357857D01*
X191389071Y-44300714D01*
X191446214Y-44243571D01*
X191503357Y-44129285D01*
X191503357Y-44015000D01*
X191446214Y-43900714D01*
X191389071Y-43843571D01*
X191274785Y-43786428D01*
X191046214Y-43729285D01*
X190931928Y-43672142D01*
X190874785Y-43615000D01*
X190817642Y-43500714D01*
X190817642Y-43386428D01*
X190874785Y-43272142D01*
X190931928Y-43215000D01*
X191046214Y-43157857D01*
X191331928Y-43157857D01*
X191503357Y-43215000D01*
X191731928Y-44472142D02*
X192646214Y-44472142D01*
X193617642Y-44243571D02*
X193560500Y-44300714D01*
X193389071Y-44357857D01*
X193274785Y-44357857D01*
X193103357Y-44300714D01*
X192989071Y-44186428D01*
X192931928Y-44072142D01*
X192874785Y-43843571D01*
X192874785Y-43672142D01*
X192931928Y-43443571D01*
X192989071Y-43329285D01*
X193103357Y-43215000D01*
X193274785Y-43157857D01*
X193389071Y-43157857D01*
X193560500Y-43215000D01*
X193617642Y-43272142D01*
X194131928Y-44357857D02*
X194131928Y-43157857D01*
X194817642Y-44357857D02*
X194303357Y-43672142D01*
X194817642Y-43157857D02*
X194131928Y-43843571D01*
X121289000Y-42445714D02*
X121217571Y-42517142D01*
X121003285Y-42588571D01*
X120860428Y-42588571D01*
X120646142Y-42517142D01*
X120503285Y-42374285D01*
X120431857Y-42231428D01*
X120360428Y-41945714D01*
X120360428Y-41731428D01*
X120431857Y-41445714D01*
X120503285Y-41302857D01*
X120646142Y-41160000D01*
X120860428Y-41088571D01*
X121003285Y-41088571D01*
X121217571Y-41160000D01*
X121289000Y-41231428D01*
X121860428Y-42517142D02*
X122074714Y-42588571D01*
X122431857Y-42588571D01*
X122574714Y-42517142D01*
X122646142Y-42445714D01*
X122717571Y-42302857D01*
X122717571Y-42160000D01*
X122646142Y-42017142D01*
X122574714Y-41945714D01*
X122431857Y-41874285D01*
X122146142Y-41802857D01*
X122003285Y-41731428D01*
X121931857Y-41660000D01*
X121860428Y-41517142D01*
X121860428Y-41374285D01*
X121931857Y-41231428D01*
X122003285Y-41160000D01*
X122146142Y-41088571D01*
X122503285Y-41088571D01*
X122717571Y-41160000D01*
X117911857Y-47922571D02*
X117911857Y-46422571D01*
X118411857Y-47494000D01*
X118911857Y-46422571D01*
X118911857Y-47922571D01*
X119911857Y-46422571D02*
X120197571Y-46422571D01*
X120340428Y-46494000D01*
X120483285Y-46636857D01*
X120554714Y-46922571D01*
X120554714Y-47422571D01*
X120483285Y-47708285D01*
X120340428Y-47851142D01*
X120197571Y-47922571D01*
X119911857Y-47922571D01*
X119769000Y-47851142D01*
X119626142Y-47708285D01*
X119554714Y-47422571D01*
X119554714Y-46922571D01*
X119626142Y-46636857D01*
X119769000Y-46494000D01*
X119911857Y-46422571D01*
X121126142Y-47851142D02*
X121340428Y-47922571D01*
X121697571Y-47922571D01*
X121840428Y-47851142D01*
X121911857Y-47779714D01*
X121983285Y-47636857D01*
X121983285Y-47494000D01*
X121911857Y-47351142D01*
X121840428Y-47279714D01*
X121697571Y-47208285D01*
X121411857Y-47136857D01*
X121269000Y-47065428D01*
X121197571Y-46994000D01*
X121126142Y-46851142D01*
X121126142Y-46708285D01*
X121197571Y-46565428D01*
X121269000Y-46494000D01*
X121411857Y-46422571D01*
X121769000Y-46422571D01*
X121983285Y-46494000D01*
X122626142Y-47922571D02*
X122626142Y-46422571D01*
X136945928Y-47279642D02*
X137160214Y-47351071D01*
X137517357Y-47351071D01*
X137660214Y-47279642D01*
X137731642Y-47208214D01*
X137803071Y-47065357D01*
X137803071Y-46922500D01*
X137731642Y-46779642D01*
X137660214Y-46708214D01*
X137517357Y-46636785D01*
X137231642Y-46565357D01*
X137088785Y-46493928D01*
X137017357Y-46422500D01*
X136945928Y-46279642D01*
X136945928Y-46136785D01*
X137017357Y-45993928D01*
X137088785Y-45922500D01*
X137231642Y-45851071D01*
X137588785Y-45851071D01*
X137803071Y-45922500D01*
X139303071Y-47208214D02*
X139231642Y-47279642D01*
X139017357Y-47351071D01*
X138874500Y-47351071D01*
X138660214Y-47279642D01*
X138517357Y-47136785D01*
X138445928Y-46993928D01*
X138374500Y-46708214D01*
X138374500Y-46493928D01*
X138445928Y-46208214D01*
X138517357Y-46065357D01*
X138660214Y-45922500D01*
X138874500Y-45851071D01*
X139017357Y-45851071D01*
X139231642Y-45922500D01*
X139303071Y-45993928D01*
X139945928Y-47351071D02*
X139945928Y-45851071D01*
X140803071Y-47351071D02*
X140160214Y-46493928D01*
X140803071Y-45851071D02*
X139945928Y-46708214D01*
X136199857Y-42525071D02*
X136199857Y-41025071D01*
X136699857Y-42096500D01*
X137199857Y-41025071D01*
X137199857Y-42525071D01*
X137914142Y-42525071D02*
X137914142Y-41025071D01*
X138557000Y-42453642D02*
X138771285Y-42525071D01*
X139128428Y-42525071D01*
X139271285Y-42453642D01*
X139342714Y-42382214D01*
X139414142Y-42239357D01*
X139414142Y-42096500D01*
X139342714Y-41953642D01*
X139271285Y-41882214D01*
X139128428Y-41810785D01*
X138842714Y-41739357D01*
X138699857Y-41667928D01*
X138628428Y-41596500D01*
X138557000Y-41453642D01*
X138557000Y-41310785D01*
X138628428Y-41167928D01*
X138699857Y-41096500D01*
X138842714Y-41025071D01*
X139199857Y-41025071D01*
X139414142Y-41096500D01*
X140342714Y-41025071D02*
X140628428Y-41025071D01*
X140771285Y-41096500D01*
X140914142Y-41239357D01*
X140985571Y-41525071D01*
X140985571Y-42025071D01*
X140914142Y-42310785D01*
X140771285Y-42453642D01*
X140628428Y-42525071D01*
X140342714Y-42525071D01*
X140199857Y-42453642D01*
X140057000Y-42310785D01*
X139985571Y-42025071D01*
X139985571Y-41525071D01*
X140057000Y-41239357D01*
X140199857Y-41096500D01*
X140342714Y-41025071D01*
D11*
X125659500Y-50326500D02*
X124509500Y-50326500D01*
X124509500Y-50326500D02*
X124509500Y-51376500D01*
X124509500Y-51376500D02*
X123519500Y-51376500D01*
X125659500Y-57546500D02*
X124509500Y-57546500D01*
X124509500Y-57546500D02*
X124509500Y-56496500D01*
X127629500Y-51496500D02*
X127629500Y-56376500D01*
X217000500Y-111194436D02*
X217000500Y-112398564D01*
X215180500Y-111194436D02*
X215180500Y-112398564D01*
X208503733Y-111254000D02*
X208846267Y-111254000D01*
X208503733Y-110234000D02*
X208846267Y-110234000D01*
X208475733Y-107948000D02*
X208818267Y-107948000D01*
X208475733Y-108968000D02*
X208818267Y-108968000D01*
X159196500Y-81832267D02*
X159196500Y-81489733D01*
X158176500Y-81832267D02*
X158176500Y-81489733D01*
X155005500Y-93731233D02*
X155005500Y-94073767D01*
X153985500Y-93731233D02*
X153985500Y-94073767D01*
X179710233Y-94934500D02*
X180052767Y-94934500D01*
X179710233Y-93914500D02*
X180052767Y-93914500D01*
X208602733Y-101411500D02*
X208945267Y-101411500D01*
X208602733Y-100391500D02*
X208945267Y-100391500D01*
X181170733Y-80139000D02*
X181513267Y-80139000D01*
X181170733Y-79119000D02*
X181513267Y-79119000D01*
X165006233Y-74674000D02*
X165348767Y-74674000D01*
X165006233Y-75694000D02*
X165348767Y-75694000D01*
X160462500Y-95699733D02*
X160462500Y-96042267D01*
X161482500Y-95699733D02*
X161482500Y-96042267D01*
X182694733Y-84262500D02*
X183037267Y-84262500D01*
X182694733Y-85282500D02*
X183037267Y-85282500D01*
X181678733Y-88199500D02*
X182021267Y-88199500D01*
X181678733Y-89219500D02*
X182021267Y-89219500D01*
X170185233Y-75694000D02*
X170527767Y-75694000D01*
X170185233Y-74674000D02*
X170527767Y-74674000D01*
X163451000Y-97287233D02*
X163451000Y-97629767D01*
X162431000Y-97287233D02*
X162431000Y-97629767D01*
X167388000Y-97477733D02*
X167388000Y-97820267D01*
X166368000Y-97477733D02*
X166368000Y-97820267D01*
X158942500Y-93794733D02*
X158942500Y-94137267D01*
X157922500Y-93794733D02*
X157922500Y-94137267D01*
X158871767Y-84389500D02*
X158529233Y-84389500D01*
X158871767Y-85409500D02*
X158529233Y-85409500D01*
X179008500Y-97477733D02*
X179008500Y-97820267D01*
X177988500Y-97477733D02*
X177988500Y-97820267D01*
X147350267Y-58418000D02*
X147007733Y-58418000D01*
X147350267Y-59438000D02*
X147007733Y-59438000D01*
X204468000Y-52992233D02*
X204468000Y-53334767D01*
X205488000Y-52992233D02*
X205488000Y-53334767D01*
X187009500Y-52787733D02*
X187009500Y-53130267D01*
X185989500Y-52787733D02*
X185989500Y-53130267D01*
X208155000Y-53027733D02*
X208155000Y-53370267D01*
X207135000Y-53027733D02*
X207135000Y-53370267D01*
X188847000Y-52801733D02*
X188847000Y-53144267D01*
X189867000Y-52801733D02*
X189867000Y-53144267D01*
X141349000Y-67202233D02*
X141349000Y-67544767D01*
X142369000Y-67202233D02*
X142369000Y-67544767D01*
X149290500Y-67202233D02*
X149290500Y-67544767D01*
X148270500Y-67202233D02*
X148270500Y-67544767D01*
X164657500Y-107002733D02*
X164657500Y-107345267D01*
X163637500Y-107002733D02*
X163637500Y-107345267D01*
X171448000Y-107030733D02*
X171448000Y-107373267D01*
X172468000Y-107030733D02*
X172468000Y-107373267D01*
X150331500Y-86816000D02*
X150331500Y-89276000D01*
X150331500Y-89276000D02*
X151801500Y-89276000D01*
X151801500Y-89276000D02*
X151801500Y-86816000D01*
X212943500Y-119417500D02*
X212943500Y-128417500D01*
X212943500Y-128417500D02*
X203743500Y-128417500D01*
X203743500Y-128417500D02*
X203743500Y-113817500D01*
X203743500Y-113817500D02*
X206543500Y-113817500D01*
X210143500Y-113817500D02*
X212943500Y-113817500D01*
X212943500Y-113817500D02*
X212943500Y-115817500D01*
X203503500Y-115317500D02*
X203503500Y-113577500D01*
X203503500Y-113577500D02*
X205243500Y-113577500D01*
X166373500Y-46831500D02*
X166373500Y-43301500D01*
X172843500Y-46831500D02*
X172843500Y-43301500D01*
X166438500Y-48156500D02*
X166438500Y-46831500D01*
X166373500Y-46831500D02*
X166438500Y-46831500D01*
X166373500Y-43301500D02*
X166438500Y-43301500D01*
X172778500Y-46831500D02*
X172843500Y-46831500D01*
X172778500Y-43301500D02*
X172843500Y-43301500D01*
X147617000Y-40002000D02*
X148127000Y-40352000D01*
X145107000Y-40202000D02*
X144847000Y-40202000D01*
X145307000Y-40002000D02*
X145107000Y-40202000D01*
X154707000Y-40002000D02*
X154497000Y-40202000D01*
X154497000Y-40352000D02*
X154497000Y-40202000D01*
X154497000Y-40352000D02*
X148127000Y-40352000D01*
X157597000Y-44962000D02*
X157597000Y-43162000D01*
X157597000Y-50962000D02*
X157597000Y-46262000D01*
X156567000Y-40002000D02*
X156767000Y-40202000D01*
X156567000Y-40002000D02*
X154707000Y-40002000D01*
X145307000Y-40002000D02*
X147617000Y-40002000D01*
X157597000Y-56272000D02*
X157597000Y-52662000D01*
X157147000Y-56272000D02*
X157597000Y-56272000D01*
X143627000Y-56272000D02*
X143627000Y-42262000D01*
X145547000Y-56272000D02*
X143627000Y-56272000D01*
X197960500Y-46220500D02*
X203740500Y-46220500D01*
X197960500Y-41120500D02*
X203740500Y-41120500D01*
X197960500Y-40000500D02*
X203740500Y-40000500D01*
X197960500Y-46740500D02*
X203740500Y-46740500D01*
X197960500Y-40000500D02*
X197960500Y-46740500D01*
X203740500Y-40000500D02*
X203740500Y-46740500D01*
X197720500Y-46340500D02*
X197720500Y-46980500D01*
X197720500Y-46980500D02*
X198120500Y-46980500D01*
X179686500Y-47107500D02*
X180086500Y-47107500D01*
X179686500Y-46467500D02*
X179686500Y-47107500D01*
X185706500Y-40127500D02*
X185706500Y-46867500D01*
X179926500Y-40127500D02*
X179926500Y-46867500D01*
X179926500Y-46867500D02*
X185706500Y-46867500D01*
X179926500Y-40127500D02*
X185706500Y-40127500D01*
X179926500Y-41247500D02*
X185706500Y-41247500D01*
X179926500Y-46347500D02*
X185706500Y-46347500D01*
X198815000Y-101660000D02*
X198815000Y-99000000D01*
X196215000Y-101660000D02*
X198815000Y-101660000D01*
X196215000Y-99000000D02*
X198815000Y-99000000D01*
X196215000Y-101660000D02*
X196215000Y-99000000D01*
X194945000Y-101660000D02*
X193615000Y-101660000D01*
X193615000Y-101660000D02*
X193615000Y-100330000D01*
D13*
X226144500Y-111293760D02*
X226144500Y-111493760D01*
X226594500Y-111293760D02*
X226144500Y-111293760D01*
X226794500Y-111093760D02*
X226594500Y-111293760D01*
X226794500Y-110793760D02*
X226794500Y-111093760D01*
X127988500Y-110730260D02*
X127988500Y-111030260D01*
X127988500Y-111030260D02*
X127788500Y-111230260D01*
X127788500Y-111230260D02*
X127338500Y-111230260D01*
X127338500Y-111230260D02*
X127338500Y-111430260D01*
D11*
X178437000Y-43845267D02*
X178437000Y-43502733D01*
X177417000Y-43845267D02*
X177417000Y-43502733D01*
X163641500Y-46639267D02*
X163641500Y-46296733D01*
X162621500Y-46639267D02*
X162621500Y-46296733D01*
X174750000Y-43859267D02*
X174750000Y-43516733D01*
X175770000Y-43859267D02*
X175770000Y-43516733D01*
X214342767Y-106428000D02*
X214000233Y-106428000D01*
X214342767Y-105408000D02*
X214000233Y-105408000D01*
X164942733Y-72519000D02*
X165285267Y-72519000D01*
X164942733Y-71499000D02*
X165285267Y-71499000D01*
X169768733Y-71499000D02*
X170111267Y-71499000D01*
X169768733Y-72519000D02*
X170111267Y-72519000D01*
X148496233Y-85346000D02*
X148838767Y-85346000D01*
X148496233Y-84326000D02*
X148838767Y-84326000D01*
X168654000Y-97505733D02*
X168654000Y-97848267D01*
X169674000Y-97505733D02*
X169674000Y-97848267D01*
X171130500Y-97505733D02*
X171130500Y-97848267D01*
X172150500Y-97505733D02*
X172150500Y-97848267D01*
X174373000Y-97477733D02*
X174373000Y-97820267D01*
X173353000Y-97477733D02*
X173353000Y-97820267D01*
X175702500Y-97505733D02*
X175702500Y-97848267D01*
X176722500Y-97505733D02*
X176722500Y-97848267D01*
X197645233Y-59565000D02*
X197987767Y-59565000D01*
X197645233Y-58545000D02*
X197987767Y-58545000D01*
X202090233Y-58481500D02*
X202432767Y-58481500D01*
X202090233Y-59501500D02*
X202432767Y-59501500D01*
X179484233Y-58291000D02*
X179826767Y-58291000D01*
X179484233Y-59311000D02*
X179826767Y-59311000D01*
X184056233Y-59247500D02*
X184398767Y-59247500D01*
X184056233Y-58227500D02*
X184398767Y-58227500D01*
X202750267Y-62168500D02*
X202407733Y-62168500D01*
X202750267Y-61148500D02*
X202407733Y-61148500D01*
X184384767Y-60831000D02*
X184042233Y-60831000D01*
X184384767Y-61851000D02*
X184042233Y-61851000D01*
X143063500Y-63163267D02*
X143063500Y-62820733D01*
X144083500Y-63163267D02*
X144083500Y-62820733D01*
X169991500Y-111193733D02*
X169991500Y-111536267D01*
X168971500Y-111193733D02*
X168971500Y-111536267D01*
X167070500Y-111207733D02*
X167070500Y-111550267D01*
X166050500Y-111207733D02*
X166050500Y-111550267D01*
X221902233Y-124462000D02*
X222244767Y-124462000D01*
X221902233Y-123442000D02*
X222244767Y-123442000D01*
X226852267Y-124462000D02*
X226509733Y-124462000D01*
X226852267Y-123442000D02*
X226509733Y-123442000D01*
X230192733Y-110682500D02*
X230535267Y-110682500D01*
X230192733Y-109662500D02*
X230535267Y-109662500D01*
X124680767Y-123446000D02*
X124338233Y-123446000D01*
X124680767Y-122426000D02*
X124338233Y-122426000D01*
X129506767Y-123446000D02*
X129164233Y-123446000D01*
X129506767Y-122426000D02*
X129164233Y-122426000D01*
X131447000Y-111017233D02*
X131447000Y-111359767D01*
X130427000Y-111017233D02*
X130427000Y-111359767D01*
X189425733Y-100840000D02*
X189768267Y-100840000D01*
X189425733Y-99820000D02*
X189768267Y-99820000D01*
D10*
X189670000Y-40011500D02*
X193870000Y-40011500D01*
X193870000Y-40011500D02*
X193870000Y-42411500D01*
X193870000Y-42411500D02*
X189670000Y-42411500D01*
X189670000Y-42411500D02*
X189670000Y-40011500D01*
X189733500Y-47745500D02*
X189733500Y-45345500D01*
X193933500Y-47745500D02*
X189733500Y-47745500D01*
X193933500Y-45345500D02*
X193933500Y-47745500D01*
X189733500Y-45345500D02*
X193933500Y-45345500D01*
X190813000Y-61334500D02*
X190813000Y-58934500D01*
X195013000Y-61334500D02*
X190813000Y-61334500D01*
X195013000Y-58934500D02*
X195013000Y-61334500D01*
X190813000Y-58934500D02*
X195013000Y-58934500D01*
X130932500Y-40583000D02*
X135132500Y-40583000D01*
X135132500Y-40583000D02*
X135132500Y-42983000D01*
X135132500Y-42983000D02*
X130932500Y-42983000D01*
X130932500Y-42983000D02*
X130932500Y-40583000D01*
X131123000Y-45409000D02*
X135323000Y-45409000D01*
X135323000Y-45409000D02*
X135323000Y-47809000D01*
X135323000Y-47809000D02*
X131123000Y-47809000D01*
X131123000Y-47809000D02*
X131123000Y-45409000D01*
X123566500Y-47936000D02*
X123566500Y-45536000D01*
X127766500Y-47936000D02*
X123566500Y-47936000D01*
X127766500Y-45536000D02*
X127766500Y-47936000D01*
X123566500Y-45536000D02*
X127766500Y-45536000D01*
X123566500Y-40519500D02*
X127766500Y-40519500D01*
X127766500Y-40519500D02*
X127766500Y-42919500D01*
X127766500Y-42919500D02*
X123566500Y-42919500D01*
X123566500Y-42919500D02*
X123566500Y-40519500D01*
X216594000Y-44761000D02*
X216594000Y-42361000D01*
X220794000Y-44761000D02*
X216594000Y-44761000D01*
X220794000Y-42361000D02*
X220794000Y-44761000D01*
X216594000Y-42361000D02*
X220794000Y-42361000D01*
D11*
X210337000Y-105654500D02*
X210337000Y-103854500D01*
X207117000Y-103854500D02*
X207117000Y-106304500D01*
X176082000Y-93152500D02*
X176782000Y-93152500D01*
X176782000Y-93152500D02*
X176782000Y-92452500D01*
X163262000Y-93152500D02*
X162562000Y-93152500D01*
X162562000Y-93152500D02*
X162562000Y-92452500D01*
X176082000Y-78932500D02*
X176782000Y-78932500D01*
X176782000Y-78932500D02*
X176782000Y-79632500D01*
X163262000Y-78932500D02*
X162562000Y-78932500D01*
X162562000Y-78932500D02*
X162562000Y-79632500D01*
X162562000Y-79632500D02*
X161197000Y-79632500D01*
D14*
X199288400Y-51079400D02*
X199034400Y-51079400D01*
X202031600Y-51333400D02*
X202031600Y-51079400D01*
X201777600Y-54076600D02*
X202031600Y-54076600D01*
X199034400Y-53822600D02*
X199034400Y-54076600D01*
X202031600Y-54076600D02*
X202031600Y-53822600D01*
X202031600Y-51079400D02*
X201777600Y-51079400D01*
X199034400Y-51079400D02*
X199034400Y-51333400D01*
X199034400Y-54076600D02*
X199288400Y-54076600D01*
X180873400Y-53949600D02*
X181127400Y-53949600D01*
X180873400Y-50952400D02*
X180873400Y-51206400D01*
X183870600Y-50952400D02*
X183616600Y-50952400D01*
X183870600Y-53949600D02*
X183870600Y-53695600D01*
X180873400Y-53695600D02*
X180873400Y-53949600D01*
X183616600Y-53949600D02*
X183870600Y-53949600D01*
X183870600Y-51206400D02*
X183870600Y-50952400D01*
X181127400Y-50952400D02*
X180873400Y-50952400D01*
D11*
X143988000Y-68446500D02*
X146588000Y-68446500D01*
X146588000Y-68446500D02*
X146588000Y-68246500D01*
X146588000Y-66246500D02*
X146588000Y-66046500D01*
X146588000Y-66046500D02*
X143988000Y-66046500D01*
X143988000Y-66046500D02*
X143988000Y-66146500D01*
X143988000Y-66146500D02*
X143588000Y-66146500D01*
X143988000Y-68446500D02*
X143988000Y-68246500D01*
X166467000Y-108197500D02*
X166467000Y-107997500D01*
X166467000Y-105897500D02*
X166067000Y-105897500D01*
X166467000Y-105797500D02*
X166467000Y-105897500D01*
X169067000Y-105797500D02*
X166467000Y-105797500D01*
X169067000Y-105997500D02*
X169067000Y-105797500D01*
X169067000Y-108197500D02*
X169067000Y-107997500D01*
X166467000Y-108197500D02*
X169067000Y-108197500D01*
X115659500Y-64326500D02*
X114509500Y-64326500D01*
X114509500Y-64326500D02*
X114509500Y-65376500D01*
X114509500Y-65376500D02*
X113519500Y-65376500D01*
X115659500Y-71546500D02*
X114509500Y-71546500D01*
X114509500Y-71546500D02*
X114509500Y-70496500D01*
X117629500Y-65496500D02*
X117629500Y-70376500D01*
X137629500Y-51496500D02*
X137629500Y-56376500D01*
X134509500Y-57546500D02*
X134509500Y-56496500D01*
X135659500Y-57546500D02*
X134509500Y-57546500D01*
X134509500Y-51376500D02*
X133519500Y-51376500D01*
X134509500Y-50326500D02*
X134509500Y-51376500D01*
X135659500Y-50326500D02*
X134509500Y-50326500D01*
X117629500Y-51496500D02*
X117629500Y-56376500D01*
X114509500Y-57546500D02*
X114509500Y-56496500D01*
X115659500Y-57546500D02*
X114509500Y-57546500D01*
X114509500Y-51376500D02*
X113519500Y-51376500D01*
X114509500Y-50326500D02*
X114509500Y-51376500D01*
X115659500Y-50326500D02*
X114509500Y-50326500D01*
X127629500Y-65496500D02*
X127629500Y-70376500D01*
X124509500Y-71546500D02*
X124509500Y-70496500D01*
X125659500Y-71546500D02*
X124509500Y-71546500D01*
X124509500Y-65376500D02*
X123519500Y-65376500D01*
X124509500Y-64326500D02*
X124509500Y-65376500D01*
X125659500Y-64326500D02*
X124509500Y-64326500D01*
X135659500Y-64326500D02*
X134509500Y-64326500D01*
X134509500Y-64326500D02*
X134509500Y-65376500D01*
X134509500Y-65376500D02*
X133519500Y-65376500D01*
X135659500Y-71546500D02*
X134509500Y-71546500D01*
X134509500Y-71546500D02*
X134509500Y-70496500D01*
X137629500Y-65496500D02*
X137629500Y-70376500D01*
X127629500Y-79496500D02*
X127629500Y-84376500D01*
X124509500Y-85546500D02*
X124509500Y-84496500D01*
X125659500Y-85546500D02*
X124509500Y-85546500D01*
X124509500Y-79376500D02*
X123519500Y-79376500D01*
X124509500Y-78326500D02*
X124509500Y-79376500D01*
X125659500Y-78326500D02*
X124509500Y-78326500D01*
X115659500Y-92326500D02*
X114509500Y-92326500D01*
X114509500Y-92326500D02*
X114509500Y-93376500D01*
X114509500Y-93376500D02*
X113519500Y-93376500D01*
X115659500Y-99546500D02*
X114509500Y-99546500D01*
X114509500Y-99546500D02*
X114509500Y-98496500D01*
X117629500Y-93496500D02*
X117629500Y-98376500D01*
X137629500Y-79496500D02*
X137629500Y-84376500D01*
X134509500Y-85546500D02*
X134509500Y-84496500D01*
X135659500Y-85546500D02*
X134509500Y-85546500D01*
X134509500Y-79376500D02*
X133519500Y-79376500D01*
X134509500Y-78326500D02*
X134509500Y-79376500D01*
X135659500Y-78326500D02*
X134509500Y-78326500D01*
X115659500Y-78326500D02*
X114509500Y-78326500D01*
X114509500Y-78326500D02*
X114509500Y-79376500D01*
X114509500Y-79376500D02*
X113519500Y-79376500D01*
X115659500Y-85546500D02*
X114509500Y-85546500D01*
X114509500Y-85546500D02*
X114509500Y-84496500D01*
X117629500Y-79496500D02*
X117629500Y-84376500D01*
X125659500Y-92326500D02*
X124509500Y-92326500D01*
X124509500Y-92326500D02*
X124509500Y-93376500D01*
X124509500Y-93376500D02*
X123519500Y-93376500D01*
X125659500Y-99546500D02*
X124509500Y-99546500D01*
X124509500Y-99546500D02*
X124509500Y-98496500D01*
X127629500Y-93496500D02*
X127629500Y-98376500D01*
X215927500Y-99514500D02*
X217077500Y-99514500D01*
X217077500Y-99514500D02*
X217077500Y-98464500D01*
X217077500Y-98464500D02*
X218067500Y-98464500D01*
X215927500Y-92294500D02*
X217077500Y-92294500D01*
X217077500Y-92294500D02*
X217077500Y-93344500D01*
X213957500Y-98344500D02*
X213957500Y-93464500D01*
X233957500Y-98344500D02*
X233957500Y-93464500D01*
X237077500Y-92294500D02*
X237077500Y-93344500D01*
X235927500Y-92294500D02*
X237077500Y-92294500D01*
X237077500Y-98464500D02*
X238067500Y-98464500D01*
X237077500Y-99514500D02*
X237077500Y-98464500D01*
X235927500Y-99514500D02*
X237077500Y-99514500D01*
X137629500Y-93496500D02*
X137629500Y-98376500D01*
X134509500Y-99546500D02*
X134509500Y-98496500D01*
X135659500Y-99546500D02*
X134509500Y-99546500D01*
X134509500Y-93376500D02*
X133519500Y-93376500D01*
X134509500Y-92326500D02*
X134509500Y-93376500D01*
X135659500Y-92326500D02*
X134509500Y-92326500D01*
X225927500Y-99514500D02*
X227077500Y-99514500D01*
X227077500Y-99514500D02*
X227077500Y-98464500D01*
X227077500Y-98464500D02*
X228067500Y-98464500D01*
X225927500Y-92294500D02*
X227077500Y-92294500D01*
X227077500Y-92294500D02*
X227077500Y-93344500D01*
X223957500Y-98344500D02*
X223957500Y-93464500D01*
X233957500Y-84344500D02*
X233957500Y-79464500D01*
X237077500Y-78294500D02*
X237077500Y-79344500D01*
X235927500Y-78294500D02*
X237077500Y-78294500D01*
X237077500Y-84464500D02*
X238067500Y-84464500D01*
X237077500Y-85514500D02*
X237077500Y-84464500D01*
X235927500Y-85514500D02*
X237077500Y-85514500D01*
X213957500Y-84344500D02*
X213957500Y-79464500D01*
X217077500Y-78294500D02*
X217077500Y-79344500D01*
X215927500Y-78294500D02*
X217077500Y-78294500D01*
X217077500Y-84464500D02*
X218067500Y-84464500D01*
X217077500Y-85514500D02*
X217077500Y-84464500D01*
X215927500Y-85514500D02*
X217077500Y-85514500D01*
X223957500Y-70344500D02*
X223957500Y-65464500D01*
X227077500Y-64294500D02*
X227077500Y-65344500D01*
X225927500Y-64294500D02*
X227077500Y-64294500D01*
X227077500Y-70464500D02*
X228067500Y-70464500D01*
X227077500Y-71514500D02*
X227077500Y-70464500D01*
X225927500Y-71514500D02*
X227077500Y-71514500D01*
X225927500Y-85514500D02*
X227077500Y-85514500D01*
X227077500Y-85514500D02*
X227077500Y-84464500D01*
X227077500Y-84464500D02*
X228067500Y-84464500D01*
X225927500Y-78294500D02*
X227077500Y-78294500D01*
X227077500Y-78294500D02*
X227077500Y-79344500D01*
X223957500Y-84344500D02*
X223957500Y-79464500D01*
X215927500Y-71514500D02*
X217077500Y-71514500D01*
X217077500Y-71514500D02*
X217077500Y-70464500D01*
X217077500Y-70464500D02*
X218067500Y-70464500D01*
X215927500Y-64294500D02*
X217077500Y-64294500D01*
X217077500Y-64294500D02*
X217077500Y-65344500D01*
X213957500Y-70344500D02*
X213957500Y-65464500D01*
X235927500Y-71514500D02*
X237077500Y-71514500D01*
X237077500Y-71514500D02*
X237077500Y-70464500D01*
X237077500Y-70464500D02*
X238067500Y-70464500D01*
X235927500Y-64294500D02*
X237077500Y-64294500D01*
X237077500Y-64294500D02*
X237077500Y-65344500D01*
X233957500Y-70344500D02*
X233957500Y-65464500D01*
X225927500Y-57514500D02*
X227077500Y-57514500D01*
X227077500Y-57514500D02*
X227077500Y-56464500D01*
X227077500Y-56464500D02*
X228067500Y-56464500D01*
X225927500Y-50294500D02*
X227077500Y-50294500D01*
X227077500Y-50294500D02*
X227077500Y-51344500D01*
X223957500Y-56344500D02*
X223957500Y-51464500D01*
X233957500Y-56344500D02*
X233957500Y-51464500D01*
X237077500Y-50294500D02*
X237077500Y-51344500D01*
X235927500Y-50294500D02*
X237077500Y-50294500D01*
X237077500Y-56464500D02*
X238067500Y-56464500D01*
X237077500Y-57514500D02*
X237077500Y-56464500D01*
X235927500Y-57514500D02*
X237077500Y-57514500D01*
X213957500Y-56344500D02*
X213957500Y-51464500D01*
X217077500Y-50294500D02*
X217077500Y-51344500D01*
X215927500Y-50294500D02*
X217077500Y-50294500D01*
X217077500Y-56464500D02*
X218067500Y-56464500D01*
X217077500Y-57514500D02*
X217077500Y-56464500D01*
X215927500Y-57514500D02*
X217077500Y-57514500D01*
X183390000Y-105960000D02*
X183390000Y-107110000D01*
X183390000Y-107110000D02*
X184440000Y-107110000D01*
X184440000Y-107110000D02*
X184440000Y-108100000D01*
X190610000Y-105960000D02*
X190610000Y-107110000D01*
X190610000Y-107110000D02*
X189560000Y-107110000D01*
X184560000Y-103990000D02*
X189440000Y-103990000D01*
X191560000Y-112990000D02*
X196440000Y-112990000D01*
X197610000Y-116110000D02*
X196560000Y-116110000D01*
X197610000Y-114960000D02*
X197610000Y-116110000D01*
X191440000Y-116110000D02*
X191440000Y-117100000D01*
X190390000Y-116110000D02*
X191440000Y-116110000D01*
X190390000Y-114960000D02*
X190390000Y-116110000D01*
X190390000Y-124960000D02*
X190390000Y-126110000D01*
X190390000Y-126110000D02*
X191440000Y-126110000D01*
X191440000Y-126110000D02*
X191440000Y-127100000D01*
X197610000Y-124960000D02*
X197610000Y-126110000D01*
X197610000Y-126110000D02*
X196560000Y-126110000D01*
X191560000Y-122990000D02*
X196440000Y-122990000D01*
X177560000Y-122990000D02*
X182440000Y-122990000D01*
X183610000Y-126110000D02*
X182560000Y-126110000D01*
X183610000Y-124960000D02*
X183610000Y-126110000D01*
X177440000Y-126110000D02*
X177440000Y-127100000D01*
X176390000Y-126110000D02*
X177440000Y-126110000D01*
X176390000Y-124960000D02*
X176390000Y-126110000D01*
X176390000Y-114960000D02*
X176390000Y-116110000D01*
X176390000Y-116110000D02*
X177440000Y-116110000D01*
X177440000Y-116110000D02*
X177440000Y-117100000D01*
X183610000Y-114960000D02*
X183610000Y-116110000D01*
X183610000Y-116110000D02*
X182560000Y-116110000D01*
X177560000Y-112990000D02*
X182440000Y-112990000D01*
X146560000Y-103990000D02*
X151440000Y-103990000D01*
X152610000Y-107110000D02*
X151560000Y-107110000D01*
X152610000Y-105960000D02*
X152610000Y-107110000D01*
X146440000Y-107110000D02*
X146440000Y-108100000D01*
X145390000Y-107110000D02*
X146440000Y-107110000D01*
X145390000Y-105960000D02*
X145390000Y-107110000D01*
X152390000Y-114960000D02*
X152390000Y-116110000D01*
X152390000Y-116110000D02*
X153440000Y-116110000D01*
X153440000Y-116110000D02*
X153440000Y-117100000D01*
X159610000Y-114960000D02*
X159610000Y-116110000D01*
X159610000Y-116110000D02*
X158560000Y-116110000D01*
X153560000Y-112990000D02*
X158440000Y-112990000D01*
X153560000Y-122990000D02*
X158440000Y-122990000D01*
X159610000Y-126110000D02*
X158560000Y-126110000D01*
X159610000Y-124960000D02*
X159610000Y-126110000D01*
X153440000Y-126110000D02*
X153440000Y-127100000D01*
X152390000Y-126110000D02*
X153440000Y-126110000D01*
X152390000Y-124960000D02*
X152390000Y-126110000D01*
X138390000Y-124960000D02*
X138390000Y-126110000D01*
X138390000Y-126110000D02*
X139440000Y-126110000D01*
X139440000Y-126110000D02*
X139440000Y-127100000D01*
X145610000Y-124960000D02*
X145610000Y-126110000D01*
X145610000Y-126110000D02*
X144560000Y-126110000D01*
X139560000Y-122990000D02*
X144440000Y-122990000D01*
X139560000Y-112990000D02*
X144440000Y-112990000D01*
X145610000Y-116110000D02*
X144560000Y-116110000D01*
X145610000Y-114960000D02*
X145610000Y-116110000D01*
X139440000Y-116110000D02*
X139440000Y-117100000D01*
X138390000Y-116110000D02*
X139440000Y-116110000D01*
X138390000Y-114960000D02*
X138390000Y-116110000D01*
X222560000Y-115990000D02*
X227440000Y-115990000D01*
X228610000Y-119110000D02*
X227560000Y-119110000D01*
X228610000Y-117960000D02*
X228610000Y-119110000D01*
X222440000Y-119110000D02*
X222440000Y-120100000D01*
X221390000Y-119110000D02*
X222440000Y-119110000D01*
X221390000Y-117960000D02*
X221390000Y-119110000D01*
X123390000Y-117960000D02*
X123390000Y-119110000D01*
X123390000Y-119110000D02*
X124440000Y-119110000D01*
X124440000Y-119110000D02*
X124440000Y-120100000D01*
X130610000Y-117960000D02*
X130610000Y-119110000D01*
X130610000Y-119110000D02*
X129560000Y-119110000D01*
X124560000Y-115990000D02*
X129440000Y-115990000D01*
D10*
X128371880Y-54269833D02*
X129086166Y-54269833D01*
X129229023Y-54317452D01*
X129324261Y-54412690D01*
X129371880Y-54555547D01*
X129371880Y-54650785D01*
X128371880Y-53365071D02*
X128371880Y-53555547D01*
X128419500Y-53650785D01*
X128467119Y-53698404D01*
X128609976Y-53793642D01*
X128800452Y-53841261D01*
X129181404Y-53841261D01*
X129276642Y-53793642D01*
X129324261Y-53746023D01*
X129371880Y-53650785D01*
X129371880Y-53460309D01*
X129324261Y-53365071D01*
X129276642Y-53317452D01*
X129181404Y-53269833D01*
X128943309Y-53269833D01*
X128848071Y-53317452D01*
X128800452Y-53365071D01*
X128752833Y-53460309D01*
X128752833Y-53650785D01*
X128800452Y-53746023D01*
X128848071Y-53793642D01*
X128943309Y-53841261D01*
X218273333Y-112153642D02*
X218225714Y-112201261D01*
X218082857Y-112248880D01*
X217987619Y-112248880D01*
X217844761Y-112201261D01*
X217749523Y-112106023D01*
X217701904Y-112010785D01*
X217654285Y-111820309D01*
X217654285Y-111677452D01*
X217701904Y-111486976D01*
X217749523Y-111391738D01*
X217844761Y-111296500D01*
X217987619Y-111248880D01*
X218082857Y-111248880D01*
X218225714Y-111296500D01*
X218273333Y-111344119D01*
X219225714Y-112248880D02*
X218654285Y-112248880D01*
X218940000Y-112248880D02*
X218940000Y-111248880D01*
X218844761Y-111391738D01*
X218749523Y-111486976D01*
X218654285Y-111534595D01*
X205446333Y-111164642D02*
X205398714Y-111212261D01*
X205255857Y-111259880D01*
X205160619Y-111259880D01*
X205017761Y-111212261D01*
X204922523Y-111117023D01*
X204874904Y-111021785D01*
X204827285Y-110831309D01*
X204827285Y-110688452D01*
X204874904Y-110497976D01*
X204922523Y-110402738D01*
X205017761Y-110307500D01*
X205160619Y-110259880D01*
X205255857Y-110259880D01*
X205398714Y-110307500D01*
X205446333Y-110355119D01*
X205827285Y-110355119D02*
X205874904Y-110307500D01*
X205970142Y-110259880D01*
X206208238Y-110259880D01*
X206303476Y-110307500D01*
X206351095Y-110355119D01*
X206398714Y-110450357D01*
X206398714Y-110545595D01*
X206351095Y-110688452D01*
X205779666Y-111259880D01*
X206398714Y-111259880D01*
X205164333Y-108751642D02*
X205116714Y-108799261D01*
X204973857Y-108846880D01*
X204878619Y-108846880D01*
X204735761Y-108799261D01*
X204640523Y-108704023D01*
X204592904Y-108608785D01*
X204545285Y-108418309D01*
X204545285Y-108275452D01*
X204592904Y-108084976D01*
X204640523Y-107989738D01*
X204735761Y-107894500D01*
X204878619Y-107846880D01*
X204973857Y-107846880D01*
X205116714Y-107894500D01*
X205164333Y-107942119D01*
X205497666Y-107846880D02*
X206116714Y-107846880D01*
X205783380Y-108227833D01*
X205926238Y-108227833D01*
X206021476Y-108275452D01*
X206069095Y-108323071D01*
X206116714Y-108418309D01*
X206116714Y-108656404D01*
X206069095Y-108751642D01*
X206021476Y-108799261D01*
X205926238Y-108846880D01*
X205640523Y-108846880D01*
X205545285Y-108799261D01*
X205497666Y-108751642D01*
X158519833Y-79668642D02*
X158472214Y-79716261D01*
X158329357Y-79763880D01*
X158234119Y-79763880D01*
X158091261Y-79716261D01*
X157996023Y-79621023D01*
X157948404Y-79525785D01*
X157900785Y-79335309D01*
X157900785Y-79192452D01*
X157948404Y-79001976D01*
X157996023Y-78906738D01*
X158091261Y-78811500D01*
X158234119Y-78763880D01*
X158329357Y-78763880D01*
X158472214Y-78811500D01*
X158519833Y-78859119D01*
X159376976Y-79097214D02*
X159376976Y-79763880D01*
X159138880Y-78716261D02*
X158900785Y-79430547D01*
X159519833Y-79430547D01*
X154582833Y-97067642D02*
X154535214Y-97115261D01*
X154392357Y-97162880D01*
X154297119Y-97162880D01*
X154154261Y-97115261D01*
X154059023Y-97020023D01*
X154011404Y-96924785D01*
X153963785Y-96734309D01*
X153963785Y-96591452D01*
X154011404Y-96400976D01*
X154059023Y-96305738D01*
X154154261Y-96210500D01*
X154297119Y-96162880D01*
X154392357Y-96162880D01*
X154535214Y-96210500D01*
X154582833Y-96258119D01*
X155487595Y-96162880D02*
X155011404Y-96162880D01*
X154963785Y-96639071D01*
X155011404Y-96591452D01*
X155106642Y-96543833D01*
X155344738Y-96543833D01*
X155439976Y-96591452D01*
X155487595Y-96639071D01*
X155535214Y-96734309D01*
X155535214Y-96972404D01*
X155487595Y-97067642D01*
X155439976Y-97115261D01*
X155344738Y-97162880D01*
X155106642Y-97162880D01*
X155011404Y-97115261D01*
X154963785Y-97067642D01*
X182713333Y-94845142D02*
X182665714Y-94892761D01*
X182522857Y-94940380D01*
X182427619Y-94940380D01*
X182284761Y-94892761D01*
X182189523Y-94797523D01*
X182141904Y-94702285D01*
X182094285Y-94511809D01*
X182094285Y-94368952D01*
X182141904Y-94178476D01*
X182189523Y-94083238D01*
X182284761Y-93988000D01*
X182427619Y-93940380D01*
X182522857Y-93940380D01*
X182665714Y-93988000D01*
X182713333Y-94035619D01*
X183570476Y-93940380D02*
X183380000Y-93940380D01*
X183284761Y-93988000D01*
X183237142Y-94035619D01*
X183141904Y-94178476D01*
X183094285Y-94368952D01*
X183094285Y-94749904D01*
X183141904Y-94845142D01*
X183189523Y-94892761D01*
X183284761Y-94940380D01*
X183475238Y-94940380D01*
X183570476Y-94892761D01*
X183618095Y-94845142D01*
X183665714Y-94749904D01*
X183665714Y-94511809D01*
X183618095Y-94416571D01*
X183570476Y-94368952D01*
X183475238Y-94321333D01*
X183284761Y-94321333D01*
X183189523Y-94368952D01*
X183141904Y-94416571D01*
X183094285Y-94511809D01*
X205446333Y-101258642D02*
X205398714Y-101306261D01*
X205255857Y-101353880D01*
X205160619Y-101353880D01*
X205017761Y-101306261D01*
X204922523Y-101211023D01*
X204874904Y-101115785D01*
X204827285Y-100925309D01*
X204827285Y-100782452D01*
X204874904Y-100591976D01*
X204922523Y-100496738D01*
X205017761Y-100401500D01*
X205160619Y-100353880D01*
X205255857Y-100353880D01*
X205398714Y-100401500D01*
X205446333Y-100449119D01*
X205779666Y-100353880D02*
X206446333Y-100353880D01*
X206017761Y-101353880D01*
X181175333Y-78556142D02*
X181127714Y-78603761D01*
X180984857Y-78651380D01*
X180889619Y-78651380D01*
X180746761Y-78603761D01*
X180651523Y-78508523D01*
X180603904Y-78413285D01*
X180556285Y-78222809D01*
X180556285Y-78079952D01*
X180603904Y-77889476D01*
X180651523Y-77794238D01*
X180746761Y-77699000D01*
X180889619Y-77651380D01*
X180984857Y-77651380D01*
X181127714Y-77699000D01*
X181175333Y-77746619D01*
X181746761Y-78079952D02*
X181651523Y-78032333D01*
X181603904Y-77984714D01*
X181556285Y-77889476D01*
X181556285Y-77841857D01*
X181603904Y-77746619D01*
X181651523Y-77699000D01*
X181746761Y-77651380D01*
X181937238Y-77651380D01*
X182032476Y-77699000D01*
X182080095Y-77746619D01*
X182127714Y-77841857D01*
X182127714Y-77889476D01*
X182080095Y-77984714D01*
X182032476Y-78032333D01*
X181937238Y-78079952D01*
X181746761Y-78079952D01*
X181651523Y-78127571D01*
X181603904Y-78175190D01*
X181556285Y-78270428D01*
X181556285Y-78460904D01*
X181603904Y-78556142D01*
X181651523Y-78603761D01*
X181746761Y-78651380D01*
X181937238Y-78651380D01*
X182032476Y-78603761D01*
X182080095Y-78556142D01*
X182127714Y-78460904D01*
X182127714Y-78270428D01*
X182080095Y-78175190D01*
X182032476Y-78127571D01*
X181937238Y-78079952D01*
X165010833Y-74111142D02*
X164963214Y-74158761D01*
X164820357Y-74206380D01*
X164725119Y-74206380D01*
X164582261Y-74158761D01*
X164487023Y-74063523D01*
X164439404Y-73968285D01*
X164391785Y-73777809D01*
X164391785Y-73634952D01*
X164439404Y-73444476D01*
X164487023Y-73349238D01*
X164582261Y-73254000D01*
X164725119Y-73206380D01*
X164820357Y-73206380D01*
X164963214Y-73254000D01*
X165010833Y-73301619D01*
X165487023Y-74206380D02*
X165677500Y-74206380D01*
X165772738Y-74158761D01*
X165820357Y-74111142D01*
X165915595Y-73968285D01*
X165963214Y-73777809D01*
X165963214Y-73396857D01*
X165915595Y-73301619D01*
X165867976Y-73254000D01*
X165772738Y-73206380D01*
X165582261Y-73206380D01*
X165487023Y-73254000D01*
X165439404Y-73301619D01*
X165391785Y-73396857D01*
X165391785Y-73634952D01*
X165439404Y-73730190D01*
X165487023Y-73777809D01*
X165582261Y-73825428D01*
X165772738Y-73825428D01*
X165867976Y-73777809D01*
X165915595Y-73730190D01*
X165963214Y-73634952D01*
X159377142Y-98782142D02*
X159329523Y-98829761D01*
X159186666Y-98877380D01*
X159091428Y-98877380D01*
X158948571Y-98829761D01*
X158853333Y-98734523D01*
X158805714Y-98639285D01*
X158758095Y-98448809D01*
X158758095Y-98305952D01*
X158805714Y-98115476D01*
X158853333Y-98020238D01*
X158948571Y-97925000D01*
X159091428Y-97877380D01*
X159186666Y-97877380D01*
X159329523Y-97925000D01*
X159377142Y-97972619D01*
X160329523Y-98877380D02*
X159758095Y-98877380D01*
X160043809Y-98877380D02*
X160043809Y-97877380D01*
X159948571Y-98020238D01*
X159853333Y-98115476D01*
X159758095Y-98163095D01*
X160948571Y-97877380D02*
X161043809Y-97877380D01*
X161139047Y-97925000D01*
X161186666Y-97972619D01*
X161234285Y-98067857D01*
X161281904Y-98258333D01*
X161281904Y-98496428D01*
X161234285Y-98686904D01*
X161186666Y-98782142D01*
X161139047Y-98829761D01*
X161043809Y-98877380D01*
X160948571Y-98877380D01*
X160853333Y-98829761D01*
X160805714Y-98782142D01*
X160758095Y-98686904D01*
X160710476Y-98496428D01*
X160710476Y-98258333D01*
X160758095Y-98067857D01*
X160805714Y-97972619D01*
X160853333Y-97925000D01*
X160948571Y-97877380D01*
X185384142Y-85256642D02*
X185336523Y-85304261D01*
X185193666Y-85351880D01*
X185098428Y-85351880D01*
X184955571Y-85304261D01*
X184860333Y-85209023D01*
X184812714Y-85113785D01*
X184765095Y-84923309D01*
X184765095Y-84780452D01*
X184812714Y-84589976D01*
X184860333Y-84494738D01*
X184955571Y-84399500D01*
X185098428Y-84351880D01*
X185193666Y-84351880D01*
X185336523Y-84399500D01*
X185384142Y-84447119D01*
X186336523Y-85351880D02*
X185765095Y-85351880D01*
X186050809Y-85351880D02*
X186050809Y-84351880D01*
X185955571Y-84494738D01*
X185860333Y-84589976D01*
X185765095Y-84637595D01*
X187288904Y-85351880D02*
X186717476Y-85351880D01*
X187003190Y-85351880D02*
X187003190Y-84351880D01*
X186907952Y-84494738D01*
X186812714Y-84589976D01*
X186717476Y-84637595D01*
X184650142Y-89066642D02*
X184602523Y-89114261D01*
X184459666Y-89161880D01*
X184364428Y-89161880D01*
X184221571Y-89114261D01*
X184126333Y-89019023D01*
X184078714Y-88923785D01*
X184031095Y-88733309D01*
X184031095Y-88590452D01*
X184078714Y-88399976D01*
X184126333Y-88304738D01*
X184221571Y-88209500D01*
X184364428Y-88161880D01*
X184459666Y-88161880D01*
X184602523Y-88209500D01*
X184650142Y-88257119D01*
X185602523Y-89161880D02*
X185031095Y-89161880D01*
X185316809Y-89161880D02*
X185316809Y-88161880D01*
X185221571Y-88304738D01*
X185126333Y-88399976D01*
X185031095Y-88447595D01*
X185983476Y-88257119D02*
X186031095Y-88209500D01*
X186126333Y-88161880D01*
X186364428Y-88161880D01*
X186459666Y-88209500D01*
X186507285Y-88257119D01*
X186554904Y-88352357D01*
X186554904Y-88447595D01*
X186507285Y-88590452D01*
X185935857Y-89161880D01*
X186554904Y-89161880D01*
X169713642Y-74111142D02*
X169666023Y-74158761D01*
X169523166Y-74206380D01*
X169427928Y-74206380D01*
X169285071Y-74158761D01*
X169189833Y-74063523D01*
X169142214Y-73968285D01*
X169094595Y-73777809D01*
X169094595Y-73634952D01*
X169142214Y-73444476D01*
X169189833Y-73349238D01*
X169285071Y-73254000D01*
X169427928Y-73206380D01*
X169523166Y-73206380D01*
X169666023Y-73254000D01*
X169713642Y-73301619D01*
X170666023Y-74206380D02*
X170094595Y-74206380D01*
X170380309Y-74206380D02*
X170380309Y-73206380D01*
X170285071Y-73349238D01*
X170189833Y-73444476D01*
X170094595Y-73492095D01*
X170999357Y-73206380D02*
X171618404Y-73206380D01*
X171285071Y-73587333D01*
X171427928Y-73587333D01*
X171523166Y-73634952D01*
X171570785Y-73682571D01*
X171618404Y-73777809D01*
X171618404Y-74015904D01*
X171570785Y-74111142D01*
X171523166Y-74158761D01*
X171427928Y-74206380D01*
X171142214Y-74206380D01*
X171046976Y-74158761D01*
X170999357Y-74111142D01*
X162107642Y-100433142D02*
X162060023Y-100480761D01*
X161917166Y-100528380D01*
X161821928Y-100528380D01*
X161679071Y-100480761D01*
X161583833Y-100385523D01*
X161536214Y-100290285D01*
X161488595Y-100099809D01*
X161488595Y-99956952D01*
X161536214Y-99766476D01*
X161583833Y-99671238D01*
X161679071Y-99576000D01*
X161821928Y-99528380D01*
X161917166Y-99528380D01*
X162060023Y-99576000D01*
X162107642Y-99623619D01*
X163060023Y-100528380D02*
X162488595Y-100528380D01*
X162774309Y-100528380D02*
X162774309Y-99528380D01*
X162679071Y-99671238D01*
X162583833Y-99766476D01*
X162488595Y-99814095D01*
X163917166Y-99861714D02*
X163917166Y-100528380D01*
X163679071Y-99480761D02*
X163440976Y-100195047D01*
X164060023Y-100195047D01*
X165600142Y-100687142D02*
X165552523Y-100734761D01*
X165409666Y-100782380D01*
X165314428Y-100782380D01*
X165171571Y-100734761D01*
X165076333Y-100639523D01*
X165028714Y-100544285D01*
X164981095Y-100353809D01*
X164981095Y-100210952D01*
X165028714Y-100020476D01*
X165076333Y-99925238D01*
X165171571Y-99830000D01*
X165314428Y-99782380D01*
X165409666Y-99782380D01*
X165552523Y-99830000D01*
X165600142Y-99877619D01*
X166552523Y-100782380D02*
X165981095Y-100782380D01*
X166266809Y-100782380D02*
X166266809Y-99782380D01*
X166171571Y-99925238D01*
X166076333Y-100020476D01*
X165981095Y-100068095D01*
X167457285Y-99782380D02*
X166981095Y-99782380D01*
X166933476Y-100258571D01*
X166981095Y-100210952D01*
X167076333Y-100163333D01*
X167314428Y-100163333D01*
X167409666Y-100210952D01*
X167457285Y-100258571D01*
X167504904Y-100353809D01*
X167504904Y-100591904D01*
X167457285Y-100687142D01*
X167409666Y-100734761D01*
X167314428Y-100782380D01*
X167076333Y-100782380D01*
X166981095Y-100734761D01*
X166933476Y-100687142D01*
X156900642Y-96877142D02*
X156853023Y-96924761D01*
X156710166Y-96972380D01*
X156614928Y-96972380D01*
X156472071Y-96924761D01*
X156376833Y-96829523D01*
X156329214Y-96734285D01*
X156281595Y-96543809D01*
X156281595Y-96400952D01*
X156329214Y-96210476D01*
X156376833Y-96115238D01*
X156472071Y-96020000D01*
X156614928Y-95972380D01*
X156710166Y-95972380D01*
X156853023Y-96020000D01*
X156900642Y-96067619D01*
X157853023Y-96972380D02*
X157281595Y-96972380D01*
X157567309Y-96972380D02*
X157567309Y-95972380D01*
X157472071Y-96115238D01*
X157376833Y-96210476D01*
X157281595Y-96258095D01*
X158710166Y-95972380D02*
X158519690Y-95972380D01*
X158424452Y-96020000D01*
X158376833Y-96067619D01*
X158281595Y-96210476D01*
X158233976Y-96400952D01*
X158233976Y-96781904D01*
X158281595Y-96877142D01*
X158329214Y-96924761D01*
X158424452Y-96972380D01*
X158614928Y-96972380D01*
X158710166Y-96924761D01*
X158757785Y-96877142D01*
X158805404Y-96781904D01*
X158805404Y-96543809D01*
X158757785Y-96448571D01*
X158710166Y-96400952D01*
X158614928Y-96353333D01*
X158424452Y-96353333D01*
X158329214Y-96400952D01*
X158281595Y-96448571D01*
X158233976Y-96543809D01*
X158057642Y-86686642D02*
X158010023Y-86734261D01*
X157867166Y-86781880D01*
X157771928Y-86781880D01*
X157629071Y-86734261D01*
X157533833Y-86639023D01*
X157486214Y-86543785D01*
X157438595Y-86353309D01*
X157438595Y-86210452D01*
X157486214Y-86019976D01*
X157533833Y-85924738D01*
X157629071Y-85829500D01*
X157771928Y-85781880D01*
X157867166Y-85781880D01*
X158010023Y-85829500D01*
X158057642Y-85877119D01*
X159010023Y-86781880D02*
X158438595Y-86781880D01*
X158724309Y-86781880D02*
X158724309Y-85781880D01*
X158629071Y-85924738D01*
X158533833Y-86019976D01*
X158438595Y-86067595D01*
X159343357Y-85781880D02*
X160010023Y-85781880D01*
X159581452Y-86781880D01*
X180586142Y-98083642D02*
X180538523Y-98131261D01*
X180395666Y-98178880D01*
X180300428Y-98178880D01*
X180157571Y-98131261D01*
X180062333Y-98036023D01*
X180014714Y-97940785D01*
X179967095Y-97750309D01*
X179967095Y-97607452D01*
X180014714Y-97416976D01*
X180062333Y-97321738D01*
X180157571Y-97226500D01*
X180300428Y-97178880D01*
X180395666Y-97178880D01*
X180538523Y-97226500D01*
X180586142Y-97274119D01*
X181538523Y-98178880D02*
X180967095Y-98178880D01*
X181252809Y-98178880D02*
X181252809Y-97178880D01*
X181157571Y-97321738D01*
X181062333Y-97416976D01*
X180967095Y-97464595D01*
X182109952Y-97607452D02*
X182014714Y-97559833D01*
X181967095Y-97512214D01*
X181919476Y-97416976D01*
X181919476Y-97369357D01*
X181967095Y-97274119D01*
X182014714Y-97226500D01*
X182109952Y-97178880D01*
X182300428Y-97178880D01*
X182395666Y-97226500D01*
X182443285Y-97274119D01*
X182490904Y-97369357D01*
X182490904Y-97416976D01*
X182443285Y-97512214D01*
X182395666Y-97559833D01*
X182300428Y-97607452D01*
X182109952Y-97607452D01*
X182014714Y-97655071D01*
X181967095Y-97702690D01*
X181919476Y-97797928D01*
X181919476Y-97988404D01*
X181967095Y-98083642D01*
X182014714Y-98131261D01*
X182109952Y-98178880D01*
X182300428Y-98178880D01*
X182395666Y-98131261D01*
X182443285Y-98083642D01*
X182490904Y-97988404D01*
X182490904Y-97797928D01*
X182443285Y-97702690D01*
X182395666Y-97655071D01*
X182300428Y-97607452D01*
X146536142Y-60715142D02*
X146488523Y-60762761D01*
X146345666Y-60810380D01*
X146250428Y-60810380D01*
X146107571Y-60762761D01*
X146012333Y-60667523D01*
X145964714Y-60572285D01*
X145917095Y-60381809D01*
X145917095Y-60238952D01*
X145964714Y-60048476D01*
X146012333Y-59953238D01*
X146107571Y-59858000D01*
X146250428Y-59810380D01*
X146345666Y-59810380D01*
X146488523Y-59858000D01*
X146536142Y-59905619D01*
X147488523Y-60810380D02*
X146917095Y-60810380D01*
X147202809Y-60810380D02*
X147202809Y-59810380D01*
X147107571Y-59953238D01*
X147012333Y-60048476D01*
X146917095Y-60096095D01*
X147964714Y-60810380D02*
X148155190Y-60810380D01*
X148250428Y-60762761D01*
X148298047Y-60715142D01*
X148393285Y-60572285D01*
X148440904Y-60381809D01*
X148440904Y-60000857D01*
X148393285Y-59905619D01*
X148345666Y-59858000D01*
X148250428Y-59810380D01*
X148059952Y-59810380D01*
X147964714Y-59858000D01*
X147917095Y-59905619D01*
X147869476Y-60000857D01*
X147869476Y-60238952D01*
X147917095Y-60334190D01*
X147964714Y-60381809D01*
X148059952Y-60429428D01*
X148250428Y-60429428D01*
X148345666Y-60381809D01*
X148393285Y-60334190D01*
X148440904Y-60238952D01*
X204144642Y-56110142D02*
X204097023Y-56157761D01*
X203954166Y-56205380D01*
X203858928Y-56205380D01*
X203716071Y-56157761D01*
X203620833Y-56062523D01*
X203573214Y-55967285D01*
X203525595Y-55776809D01*
X203525595Y-55633952D01*
X203573214Y-55443476D01*
X203620833Y-55348238D01*
X203716071Y-55253000D01*
X203858928Y-55205380D01*
X203954166Y-55205380D01*
X204097023Y-55253000D01*
X204144642Y-55300619D01*
X204525595Y-55300619D02*
X204573214Y-55253000D01*
X204668452Y-55205380D01*
X204906547Y-55205380D01*
X205001785Y-55253000D01*
X205049404Y-55300619D01*
X205097023Y-55395857D01*
X205097023Y-55491095D01*
X205049404Y-55633952D01*
X204477976Y-56205380D01*
X205097023Y-56205380D01*
X205716071Y-55205380D02*
X205811309Y-55205380D01*
X205906547Y-55253000D01*
X205954166Y-55300619D01*
X206001785Y-55395857D01*
X206049404Y-55586333D01*
X206049404Y-55824428D01*
X206001785Y-56014904D01*
X205954166Y-56110142D01*
X205906547Y-56157761D01*
X205811309Y-56205380D01*
X205716071Y-56205380D01*
X205620833Y-56157761D01*
X205573214Y-56110142D01*
X205525595Y-56014904D01*
X205477976Y-55824428D01*
X205477976Y-55586333D01*
X205525595Y-55395857D01*
X205573214Y-55300619D01*
X205620833Y-55253000D01*
X205716071Y-55205380D01*
X185602642Y-55919642D02*
X185555023Y-55967261D01*
X185412166Y-56014880D01*
X185316928Y-56014880D01*
X185174071Y-55967261D01*
X185078833Y-55872023D01*
X185031214Y-55776785D01*
X184983595Y-55586309D01*
X184983595Y-55443452D01*
X185031214Y-55252976D01*
X185078833Y-55157738D01*
X185174071Y-55062500D01*
X185316928Y-55014880D01*
X185412166Y-55014880D01*
X185555023Y-55062500D01*
X185602642Y-55110119D01*
X185983595Y-55110119D02*
X186031214Y-55062500D01*
X186126452Y-55014880D01*
X186364547Y-55014880D01*
X186459785Y-55062500D01*
X186507404Y-55110119D01*
X186555023Y-55205357D01*
X186555023Y-55300595D01*
X186507404Y-55443452D01*
X185935976Y-56014880D01*
X186555023Y-56014880D01*
X187507404Y-56014880D02*
X186935976Y-56014880D01*
X187221690Y-56014880D02*
X187221690Y-55014880D01*
X187126452Y-55157738D01*
X187031214Y-55252976D01*
X186935976Y-55300595D01*
X207510142Y-56173642D02*
X207462523Y-56221261D01*
X207319666Y-56268880D01*
X207224428Y-56268880D01*
X207081571Y-56221261D01*
X206986333Y-56126023D01*
X206938714Y-56030785D01*
X206891095Y-55840309D01*
X206891095Y-55697452D01*
X206938714Y-55506976D01*
X206986333Y-55411738D01*
X207081571Y-55316500D01*
X207224428Y-55268880D01*
X207319666Y-55268880D01*
X207462523Y-55316500D01*
X207510142Y-55364119D01*
X207891095Y-55364119D02*
X207938714Y-55316500D01*
X208033952Y-55268880D01*
X208272047Y-55268880D01*
X208367285Y-55316500D01*
X208414904Y-55364119D01*
X208462523Y-55459357D01*
X208462523Y-55554595D01*
X208414904Y-55697452D01*
X207843476Y-56268880D01*
X208462523Y-56268880D01*
X208843476Y-55364119D02*
X208891095Y-55316500D01*
X208986333Y-55268880D01*
X209224428Y-55268880D01*
X209319666Y-55316500D01*
X209367285Y-55364119D01*
X209414904Y-55459357D01*
X209414904Y-55554595D01*
X209367285Y-55697452D01*
X208795857Y-56268880D01*
X209414904Y-56268880D01*
X189095142Y-55983142D02*
X189047523Y-56030761D01*
X188904666Y-56078380D01*
X188809428Y-56078380D01*
X188666571Y-56030761D01*
X188571333Y-55935523D01*
X188523714Y-55840285D01*
X188476095Y-55649809D01*
X188476095Y-55506952D01*
X188523714Y-55316476D01*
X188571333Y-55221238D01*
X188666571Y-55126000D01*
X188809428Y-55078380D01*
X188904666Y-55078380D01*
X189047523Y-55126000D01*
X189095142Y-55173619D01*
X189476095Y-55173619D02*
X189523714Y-55126000D01*
X189618952Y-55078380D01*
X189857047Y-55078380D01*
X189952285Y-55126000D01*
X189999904Y-55173619D01*
X190047523Y-55268857D01*
X190047523Y-55364095D01*
X189999904Y-55506952D01*
X189428476Y-56078380D01*
X190047523Y-56078380D01*
X190380857Y-55078380D02*
X190999904Y-55078380D01*
X190666571Y-55459333D01*
X190809428Y-55459333D01*
X190904666Y-55506952D01*
X190952285Y-55554571D01*
X190999904Y-55649809D01*
X190999904Y-55887904D01*
X190952285Y-55983142D01*
X190904666Y-56030761D01*
X190809428Y-56078380D01*
X190523714Y-56078380D01*
X190428476Y-56030761D01*
X190380857Y-55983142D01*
X141914642Y-70270642D02*
X141867023Y-70318261D01*
X141724166Y-70365880D01*
X141628928Y-70365880D01*
X141486071Y-70318261D01*
X141390833Y-70223023D01*
X141343214Y-70127785D01*
X141295595Y-69937309D01*
X141295595Y-69794452D01*
X141343214Y-69603976D01*
X141390833Y-69508738D01*
X141486071Y-69413500D01*
X141628928Y-69365880D01*
X141724166Y-69365880D01*
X141867023Y-69413500D01*
X141914642Y-69461119D01*
X142295595Y-69461119D02*
X142343214Y-69413500D01*
X142438452Y-69365880D01*
X142676547Y-69365880D01*
X142771785Y-69413500D01*
X142819404Y-69461119D01*
X142867023Y-69556357D01*
X142867023Y-69651595D01*
X142819404Y-69794452D01*
X142247976Y-70365880D01*
X142867023Y-70365880D01*
X143724166Y-69699214D02*
X143724166Y-70365880D01*
X143486071Y-69318261D02*
X143247976Y-70032547D01*
X143867023Y-70032547D01*
X150677642Y-67603642D02*
X150630023Y-67651261D01*
X150487166Y-67698880D01*
X150391928Y-67698880D01*
X150249071Y-67651261D01*
X150153833Y-67556023D01*
X150106214Y-67460785D01*
X150058595Y-67270309D01*
X150058595Y-67127452D01*
X150106214Y-66936976D01*
X150153833Y-66841738D01*
X150249071Y-66746500D01*
X150391928Y-66698880D01*
X150487166Y-66698880D01*
X150630023Y-66746500D01*
X150677642Y-66794119D01*
X151058595Y-66794119D02*
X151106214Y-66746500D01*
X151201452Y-66698880D01*
X151439547Y-66698880D01*
X151534785Y-66746500D01*
X151582404Y-66794119D01*
X151630023Y-66889357D01*
X151630023Y-66984595D01*
X151582404Y-67127452D01*
X151010976Y-67698880D01*
X151630023Y-67698880D01*
X152534785Y-66698880D02*
X152058595Y-66698880D01*
X152010976Y-67175071D01*
X152058595Y-67127452D01*
X152153833Y-67079833D01*
X152391928Y-67079833D01*
X152487166Y-67127452D01*
X152534785Y-67175071D01*
X152582404Y-67270309D01*
X152582404Y-67508404D01*
X152534785Y-67603642D01*
X152487166Y-67651261D01*
X152391928Y-67698880D01*
X152153833Y-67698880D01*
X152058595Y-67651261D01*
X152010976Y-67603642D01*
X163123642Y-110085142D02*
X163076023Y-110132761D01*
X162933166Y-110180380D01*
X162837928Y-110180380D01*
X162695071Y-110132761D01*
X162599833Y-110037523D01*
X162552214Y-109942285D01*
X162504595Y-109751809D01*
X162504595Y-109608952D01*
X162552214Y-109418476D01*
X162599833Y-109323238D01*
X162695071Y-109228000D01*
X162837928Y-109180380D01*
X162933166Y-109180380D01*
X163076023Y-109228000D01*
X163123642Y-109275619D01*
X163504595Y-109275619D02*
X163552214Y-109228000D01*
X163647452Y-109180380D01*
X163885547Y-109180380D01*
X163980785Y-109228000D01*
X164028404Y-109275619D01*
X164076023Y-109370857D01*
X164076023Y-109466095D01*
X164028404Y-109608952D01*
X163456976Y-110180380D01*
X164076023Y-110180380D01*
X164933166Y-109180380D02*
X164742690Y-109180380D01*
X164647452Y-109228000D01*
X164599833Y-109275619D01*
X164504595Y-109418476D01*
X164456976Y-109608952D01*
X164456976Y-109989904D01*
X164504595Y-110085142D01*
X164552214Y-110132761D01*
X164647452Y-110180380D01*
X164837928Y-110180380D01*
X164933166Y-110132761D01*
X164980785Y-110085142D01*
X165028404Y-109989904D01*
X165028404Y-109751809D01*
X164980785Y-109656571D01*
X164933166Y-109608952D01*
X164837928Y-109561333D01*
X164647452Y-109561333D01*
X164552214Y-109608952D01*
X164504595Y-109656571D01*
X164456976Y-109751809D01*
X173982142Y-107799142D02*
X173934523Y-107846761D01*
X173791666Y-107894380D01*
X173696428Y-107894380D01*
X173553571Y-107846761D01*
X173458333Y-107751523D01*
X173410714Y-107656285D01*
X173363095Y-107465809D01*
X173363095Y-107322952D01*
X173410714Y-107132476D01*
X173458333Y-107037238D01*
X173553571Y-106942000D01*
X173696428Y-106894380D01*
X173791666Y-106894380D01*
X173934523Y-106942000D01*
X173982142Y-106989619D01*
X174363095Y-106989619D02*
X174410714Y-106942000D01*
X174505952Y-106894380D01*
X174744047Y-106894380D01*
X174839285Y-106942000D01*
X174886904Y-106989619D01*
X174934523Y-107084857D01*
X174934523Y-107180095D01*
X174886904Y-107322952D01*
X174315476Y-107894380D01*
X174934523Y-107894380D01*
X175267857Y-106894380D02*
X175934523Y-106894380D01*
X175505952Y-107894380D01*
X150088880Y-88354095D02*
X149088880Y-88354095D01*
X149088880Y-88116000D01*
X149136500Y-87973142D01*
X149231738Y-87877904D01*
X149326976Y-87830285D01*
X149517452Y-87782666D01*
X149660309Y-87782666D01*
X149850785Y-87830285D01*
X149946023Y-87877904D01*
X150041261Y-87973142D01*
X150088880Y-88116000D01*
X150088880Y-88354095D01*
X150088880Y-86830285D02*
X150088880Y-87401714D01*
X150088880Y-87116000D02*
X149088880Y-87116000D01*
X149231738Y-87211238D01*
X149326976Y-87306476D01*
X149374595Y-87401714D01*
X215058666Y-122896380D02*
X215058666Y-123610666D01*
X215011047Y-123753523D01*
X214915809Y-123848761D01*
X214772952Y-123896380D01*
X214677714Y-123896380D01*
X216058666Y-123896380D02*
X215487238Y-123896380D01*
X215772952Y-123896380D02*
X215772952Y-122896380D01*
X215677714Y-123039238D01*
X215582476Y-123134476D01*
X215487238Y-123182095D01*
X169338666Y-49998380D02*
X169338666Y-50712666D01*
X169291047Y-50855523D01*
X169195809Y-50950761D01*
X169052952Y-50998380D01*
X168957714Y-50998380D01*
X169767238Y-50093619D02*
X169814857Y-50046000D01*
X169910095Y-49998380D01*
X170148190Y-49998380D01*
X170243428Y-50046000D01*
X170291047Y-50093619D01*
X170338666Y-50188857D01*
X170338666Y-50284095D01*
X170291047Y-50426952D01*
X169719619Y-50998380D01*
X170338666Y-50998380D01*
X150363666Y-57364380D02*
X150363666Y-58078666D01*
X150316047Y-58221523D01*
X150220809Y-58316761D01*
X150077952Y-58364380D01*
X149982714Y-58364380D01*
X150744619Y-57364380D02*
X151363666Y-57364380D01*
X151030333Y-57745333D01*
X151173190Y-57745333D01*
X151268428Y-57792952D01*
X151316047Y-57840571D01*
X151363666Y-57935809D01*
X151363666Y-58173904D01*
X151316047Y-58269142D01*
X151268428Y-58316761D01*
X151173190Y-58364380D01*
X150887476Y-58364380D01*
X150792238Y-58316761D01*
X150744619Y-58269142D01*
X205470166Y-42505380D02*
X205470166Y-43219666D01*
X205422547Y-43362523D01*
X205327309Y-43457761D01*
X205184452Y-43505380D01*
X205089214Y-43505380D01*
X206374928Y-42838714D02*
X206374928Y-43505380D01*
X206136833Y-42457761D02*
X205898738Y-43172047D01*
X206517785Y-43172047D01*
X186737666Y-43203880D02*
X186737666Y-43918166D01*
X186690047Y-44061023D01*
X186594809Y-44156261D01*
X186451952Y-44203880D01*
X186356714Y-44203880D01*
X187690047Y-43203880D02*
X187213857Y-43203880D01*
X187166238Y-43680071D01*
X187213857Y-43632452D01*
X187309095Y-43584833D01*
X187547190Y-43584833D01*
X187642428Y-43632452D01*
X187690047Y-43680071D01*
X187737666Y-43775309D01*
X187737666Y-44013404D01*
X187690047Y-44108642D01*
X187642428Y-44156261D01*
X187547190Y-44203880D01*
X187309095Y-44203880D01*
X187213857Y-44156261D01*
X187166238Y-44108642D01*
X195341976Y-97115380D02*
X195341976Y-97829666D01*
X195294357Y-97972523D01*
X195199119Y-98067761D01*
X195056261Y-98115380D01*
X194961023Y-98115380D01*
X196246738Y-97448714D02*
X196246738Y-98115380D01*
X196008642Y-97067761D02*
X195770547Y-97782047D01*
X196389595Y-97782047D01*
X196722928Y-97210619D02*
X196770547Y-97163000D01*
X196865785Y-97115380D01*
X197103880Y-97115380D01*
X197199119Y-97163000D01*
X197246738Y-97210619D01*
X197294357Y-97305857D01*
X197294357Y-97401095D01*
X197246738Y-97543952D01*
X196675309Y-98115380D01*
X197294357Y-98115380D01*
X225424261Y-113016379D02*
X225329023Y-112968760D01*
X225233785Y-112873521D01*
X225090928Y-112730664D01*
X224995690Y-112683045D01*
X224900452Y-112683045D01*
X224948071Y-112921140D02*
X224852833Y-112873521D01*
X224757595Y-112778283D01*
X224709976Y-112587807D01*
X224709976Y-112254474D01*
X224757595Y-112063998D01*
X224852833Y-111968760D01*
X224948071Y-111921140D01*
X225138547Y-111921140D01*
X225233785Y-111968760D01*
X225329023Y-112063998D01*
X225376642Y-112254474D01*
X225376642Y-112587807D01*
X225329023Y-112778283D01*
X225233785Y-112873521D01*
X225138547Y-112921140D01*
X224948071Y-112921140D01*
X226329023Y-112921140D02*
X225757595Y-112921140D01*
X226043309Y-112921140D02*
X226043309Y-111921140D01*
X225948071Y-112063998D01*
X225852833Y-112159236D01*
X225757595Y-112206855D01*
X126968261Y-109132619D02*
X126873023Y-109085000D01*
X126777785Y-108989761D01*
X126634928Y-108846904D01*
X126539690Y-108799285D01*
X126444452Y-108799285D01*
X126492071Y-109037380D02*
X126396833Y-108989761D01*
X126301595Y-108894523D01*
X126253976Y-108704047D01*
X126253976Y-108370714D01*
X126301595Y-108180238D01*
X126396833Y-108085000D01*
X126492071Y-108037380D01*
X126682547Y-108037380D01*
X126777785Y-108085000D01*
X126873023Y-108180238D01*
X126920642Y-108370714D01*
X126920642Y-108704047D01*
X126873023Y-108894523D01*
X126777785Y-108989761D01*
X126682547Y-109037380D01*
X126492071Y-109037380D01*
X127301595Y-108132619D02*
X127349214Y-108085000D01*
X127444452Y-108037380D01*
X127682547Y-108037380D01*
X127777785Y-108085000D01*
X127825404Y-108132619D01*
X127873023Y-108227857D01*
X127873023Y-108323095D01*
X127825404Y-108465952D01*
X127253976Y-109037380D01*
X127873023Y-109037380D01*
X177696833Y-41445380D02*
X177363500Y-40969190D01*
X177125404Y-41445380D02*
X177125404Y-40445380D01*
X177506357Y-40445380D01*
X177601595Y-40493000D01*
X177649214Y-40540619D01*
X177696833Y-40635857D01*
X177696833Y-40778714D01*
X177649214Y-40873952D01*
X177601595Y-40921571D01*
X177506357Y-40969190D01*
X177125404Y-40969190D01*
X178649214Y-41445380D02*
X178077785Y-41445380D01*
X178363500Y-41445380D02*
X178363500Y-40445380D01*
X178268261Y-40588238D01*
X178173023Y-40683476D01*
X178077785Y-40731095D01*
X162153880Y-46634666D02*
X161677690Y-46968000D01*
X162153880Y-47206095D02*
X161153880Y-47206095D01*
X161153880Y-46825142D01*
X161201500Y-46729904D01*
X161249119Y-46682285D01*
X161344357Y-46634666D01*
X161487214Y-46634666D01*
X161582452Y-46682285D01*
X161630071Y-46729904D01*
X161677690Y-46825142D01*
X161677690Y-47206095D01*
X161249119Y-46253714D02*
X161201500Y-46206095D01*
X161153880Y-46110857D01*
X161153880Y-45872761D01*
X161201500Y-45777523D01*
X161249119Y-45729904D01*
X161344357Y-45682285D01*
X161439595Y-45682285D01*
X161582452Y-45729904D01*
X162153880Y-46301333D01*
X162153880Y-45682285D01*
X175029833Y-41487380D02*
X174696500Y-41011190D01*
X174458404Y-41487380D02*
X174458404Y-40487380D01*
X174839357Y-40487380D01*
X174934595Y-40535000D01*
X174982214Y-40582619D01*
X175029833Y-40677857D01*
X175029833Y-40820714D01*
X174982214Y-40915952D01*
X174934595Y-40963571D01*
X174839357Y-41011190D01*
X174458404Y-41011190D01*
X175363166Y-40487380D02*
X175982214Y-40487380D01*
X175648880Y-40868333D01*
X175791738Y-40868333D01*
X175886976Y-40915952D01*
X175934595Y-40963571D01*
X175982214Y-41058809D01*
X175982214Y-41296904D01*
X175934595Y-41392142D01*
X175886976Y-41439761D01*
X175791738Y-41487380D01*
X175506023Y-41487380D01*
X175410785Y-41439761D01*
X175363166Y-41392142D01*
X214004833Y-107800380D02*
X213671500Y-107324190D01*
X213433404Y-107800380D02*
X213433404Y-106800380D01*
X213814357Y-106800380D01*
X213909595Y-106848000D01*
X213957214Y-106895619D01*
X214004833Y-106990857D01*
X214004833Y-107133714D01*
X213957214Y-107228952D01*
X213909595Y-107276571D01*
X213814357Y-107324190D01*
X213433404Y-107324190D01*
X214861976Y-107133714D02*
X214861976Y-107800380D01*
X214623880Y-106752761D02*
X214385785Y-107467047D01*
X215004833Y-107467047D01*
X164947333Y-71031380D02*
X164614000Y-70555190D01*
X164375904Y-71031380D02*
X164375904Y-70031380D01*
X164756857Y-70031380D01*
X164852095Y-70079000D01*
X164899714Y-70126619D01*
X164947333Y-70221857D01*
X164947333Y-70364714D01*
X164899714Y-70459952D01*
X164852095Y-70507571D01*
X164756857Y-70555190D01*
X164375904Y-70555190D01*
X165852095Y-70031380D02*
X165375904Y-70031380D01*
X165328285Y-70507571D01*
X165375904Y-70459952D01*
X165471142Y-70412333D01*
X165709238Y-70412333D01*
X165804476Y-70459952D01*
X165852095Y-70507571D01*
X165899714Y-70602809D01*
X165899714Y-70840904D01*
X165852095Y-70936142D01*
X165804476Y-70983761D01*
X165709238Y-71031380D01*
X165471142Y-71031380D01*
X165375904Y-70983761D01*
X165328285Y-70936142D01*
X169773333Y-71031380D02*
X169440000Y-70555190D01*
X169201904Y-71031380D02*
X169201904Y-70031380D01*
X169582857Y-70031380D01*
X169678095Y-70079000D01*
X169725714Y-70126619D01*
X169773333Y-70221857D01*
X169773333Y-70364714D01*
X169725714Y-70459952D01*
X169678095Y-70507571D01*
X169582857Y-70555190D01*
X169201904Y-70555190D01*
X170630476Y-70031380D02*
X170440000Y-70031380D01*
X170344761Y-70079000D01*
X170297142Y-70126619D01*
X170201904Y-70269476D01*
X170154285Y-70459952D01*
X170154285Y-70840904D01*
X170201904Y-70936142D01*
X170249523Y-70983761D01*
X170344761Y-71031380D01*
X170535238Y-71031380D01*
X170630476Y-70983761D01*
X170678095Y-70936142D01*
X170725714Y-70840904D01*
X170725714Y-70602809D01*
X170678095Y-70507571D01*
X170630476Y-70459952D01*
X170535238Y-70412333D01*
X170344761Y-70412333D01*
X170249523Y-70459952D01*
X170201904Y-70507571D01*
X170154285Y-70602809D01*
X148500833Y-83858380D02*
X148167500Y-83382190D01*
X147929404Y-83858380D02*
X147929404Y-82858380D01*
X148310357Y-82858380D01*
X148405595Y-82906000D01*
X148453214Y-82953619D01*
X148500833Y-83048857D01*
X148500833Y-83191714D01*
X148453214Y-83286952D01*
X148405595Y-83334571D01*
X148310357Y-83382190D01*
X147929404Y-83382190D01*
X148834166Y-82858380D02*
X149500833Y-82858380D01*
X149072261Y-83858380D01*
X168806833Y-100782380D02*
X168473500Y-100306190D01*
X168235404Y-100782380D02*
X168235404Y-99782380D01*
X168616357Y-99782380D01*
X168711595Y-99830000D01*
X168759214Y-99877619D01*
X168806833Y-99972857D01*
X168806833Y-100115714D01*
X168759214Y-100210952D01*
X168711595Y-100258571D01*
X168616357Y-100306190D01*
X168235404Y-100306190D01*
X169378261Y-100210952D02*
X169283023Y-100163333D01*
X169235404Y-100115714D01*
X169187785Y-100020476D01*
X169187785Y-99972857D01*
X169235404Y-99877619D01*
X169283023Y-99830000D01*
X169378261Y-99782380D01*
X169568738Y-99782380D01*
X169663976Y-99830000D01*
X169711595Y-99877619D01*
X169759214Y-99972857D01*
X169759214Y-100020476D01*
X169711595Y-100115714D01*
X169663976Y-100163333D01*
X169568738Y-100210952D01*
X169378261Y-100210952D01*
X169283023Y-100258571D01*
X169235404Y-100306190D01*
X169187785Y-100401428D01*
X169187785Y-100591904D01*
X169235404Y-100687142D01*
X169283023Y-100734761D01*
X169378261Y-100782380D01*
X169568738Y-100782380D01*
X169663976Y-100734761D01*
X169711595Y-100687142D01*
X169759214Y-100591904D01*
X169759214Y-100401428D01*
X169711595Y-100306190D01*
X169663976Y-100258571D01*
X169568738Y-100210952D01*
X171219833Y-100782380D02*
X170886500Y-100306190D01*
X170648404Y-100782380D02*
X170648404Y-99782380D01*
X171029357Y-99782380D01*
X171124595Y-99830000D01*
X171172214Y-99877619D01*
X171219833Y-99972857D01*
X171219833Y-100115714D01*
X171172214Y-100210952D01*
X171124595Y-100258571D01*
X171029357Y-100306190D01*
X170648404Y-100306190D01*
X171696023Y-100782380D02*
X171886500Y-100782380D01*
X171981738Y-100734761D01*
X172029357Y-100687142D01*
X172124595Y-100544285D01*
X172172214Y-100353809D01*
X172172214Y-99972857D01*
X172124595Y-99877619D01*
X172076976Y-99830000D01*
X171981738Y-99782380D01*
X171791261Y-99782380D01*
X171696023Y-99830000D01*
X171648404Y-99877619D01*
X171600785Y-99972857D01*
X171600785Y-100210952D01*
X171648404Y-100306190D01*
X171696023Y-100353809D01*
X171791261Y-100401428D01*
X171981738Y-100401428D01*
X172076976Y-100353809D01*
X172124595Y-100306190D01*
X172172214Y-100210952D01*
X173220142Y-100845880D02*
X172886809Y-100369690D01*
X172648714Y-100845880D02*
X172648714Y-99845880D01*
X173029666Y-99845880D01*
X173124904Y-99893500D01*
X173172523Y-99941119D01*
X173220142Y-100036357D01*
X173220142Y-100179214D01*
X173172523Y-100274452D01*
X173124904Y-100322071D01*
X173029666Y-100369690D01*
X172648714Y-100369690D01*
X174172523Y-100845880D02*
X173601095Y-100845880D01*
X173886809Y-100845880D02*
X173886809Y-99845880D01*
X173791571Y-99988738D01*
X173696333Y-100083976D01*
X173601095Y-100131595D01*
X174791571Y-99845880D02*
X174886809Y-99845880D01*
X174982047Y-99893500D01*
X175029666Y-99941119D01*
X175077285Y-100036357D01*
X175124904Y-100226833D01*
X175124904Y-100464928D01*
X175077285Y-100655404D01*
X175029666Y-100750642D01*
X174982047Y-100798261D01*
X174886809Y-100845880D01*
X174791571Y-100845880D01*
X174696333Y-100798261D01*
X174648714Y-100750642D01*
X174601095Y-100655404D01*
X174553476Y-100464928D01*
X174553476Y-100226833D01*
X174601095Y-100036357D01*
X174648714Y-99941119D01*
X174696333Y-99893500D01*
X174791571Y-99845880D01*
X176268142Y-100845880D02*
X175934809Y-100369690D01*
X175696714Y-100845880D02*
X175696714Y-99845880D01*
X176077666Y-99845880D01*
X176172904Y-99893500D01*
X176220523Y-99941119D01*
X176268142Y-100036357D01*
X176268142Y-100179214D01*
X176220523Y-100274452D01*
X176172904Y-100322071D01*
X176077666Y-100369690D01*
X175696714Y-100369690D01*
X177220523Y-100845880D02*
X176649095Y-100845880D01*
X176934809Y-100845880D02*
X176934809Y-99845880D01*
X176839571Y-99988738D01*
X176744333Y-100083976D01*
X176649095Y-100131595D01*
X178172904Y-100845880D02*
X177601476Y-100845880D01*
X177887190Y-100845880D02*
X177887190Y-99845880D01*
X177791952Y-99988738D01*
X177696714Y-100083976D01*
X177601476Y-100131595D01*
X197173642Y-58077380D02*
X196840309Y-57601190D01*
X196602214Y-58077380D02*
X196602214Y-57077380D01*
X196983166Y-57077380D01*
X197078404Y-57125000D01*
X197126023Y-57172619D01*
X197173642Y-57267857D01*
X197173642Y-57410714D01*
X197126023Y-57505952D01*
X197078404Y-57553571D01*
X196983166Y-57601190D01*
X196602214Y-57601190D01*
X198126023Y-58077380D02*
X197554595Y-58077380D01*
X197840309Y-58077380D02*
X197840309Y-57077380D01*
X197745071Y-57220238D01*
X197649833Y-57315476D01*
X197554595Y-57363095D01*
X198506976Y-57172619D02*
X198554595Y-57125000D01*
X198649833Y-57077380D01*
X198887928Y-57077380D01*
X198983166Y-57125000D01*
X199030785Y-57172619D01*
X199078404Y-57267857D01*
X199078404Y-57363095D01*
X199030785Y-57505952D01*
X198459357Y-58077380D01*
X199078404Y-58077380D01*
X201618642Y-58013880D02*
X201285309Y-57537690D01*
X201047214Y-58013880D02*
X201047214Y-57013880D01*
X201428166Y-57013880D01*
X201523404Y-57061500D01*
X201571023Y-57109119D01*
X201618642Y-57204357D01*
X201618642Y-57347214D01*
X201571023Y-57442452D01*
X201523404Y-57490071D01*
X201428166Y-57537690D01*
X201047214Y-57537690D01*
X202571023Y-58013880D02*
X201999595Y-58013880D01*
X202285309Y-58013880D02*
X202285309Y-57013880D01*
X202190071Y-57156738D01*
X202094833Y-57251976D01*
X201999595Y-57299595D01*
X202904357Y-57013880D02*
X203523404Y-57013880D01*
X203190071Y-57394833D01*
X203332928Y-57394833D01*
X203428166Y-57442452D01*
X203475785Y-57490071D01*
X203523404Y-57585309D01*
X203523404Y-57823404D01*
X203475785Y-57918642D01*
X203428166Y-57966261D01*
X203332928Y-58013880D01*
X203047214Y-58013880D01*
X202951976Y-57966261D01*
X202904357Y-57918642D01*
X179012642Y-57823380D02*
X178679309Y-57347190D01*
X178441214Y-57823380D02*
X178441214Y-56823380D01*
X178822166Y-56823380D01*
X178917404Y-56871000D01*
X178965023Y-56918619D01*
X179012642Y-57013857D01*
X179012642Y-57156714D01*
X178965023Y-57251952D01*
X178917404Y-57299571D01*
X178822166Y-57347190D01*
X178441214Y-57347190D01*
X179965023Y-57823380D02*
X179393595Y-57823380D01*
X179679309Y-57823380D02*
X179679309Y-56823380D01*
X179584071Y-56966238D01*
X179488833Y-57061476D01*
X179393595Y-57109095D01*
X180822166Y-57156714D02*
X180822166Y-57823380D01*
X180584071Y-56775761D02*
X180345976Y-57490047D01*
X180965023Y-57490047D01*
X183584642Y-57759880D02*
X183251309Y-57283690D01*
X183013214Y-57759880D02*
X183013214Y-56759880D01*
X183394166Y-56759880D01*
X183489404Y-56807500D01*
X183537023Y-56855119D01*
X183584642Y-56950357D01*
X183584642Y-57093214D01*
X183537023Y-57188452D01*
X183489404Y-57236071D01*
X183394166Y-57283690D01*
X183013214Y-57283690D01*
X184537023Y-57759880D02*
X183965595Y-57759880D01*
X184251309Y-57759880D02*
X184251309Y-56759880D01*
X184156071Y-56902738D01*
X184060833Y-56997976D01*
X183965595Y-57045595D01*
X185441785Y-56759880D02*
X184965595Y-56759880D01*
X184917976Y-57236071D01*
X184965595Y-57188452D01*
X185060833Y-57140833D01*
X185298928Y-57140833D01*
X185394166Y-57188452D01*
X185441785Y-57236071D01*
X185489404Y-57331309D01*
X185489404Y-57569404D01*
X185441785Y-57664642D01*
X185394166Y-57712261D01*
X185298928Y-57759880D01*
X185060833Y-57759880D01*
X184965595Y-57712261D01*
X184917976Y-57664642D01*
X201936142Y-63540880D02*
X201602809Y-63064690D01*
X201364714Y-63540880D02*
X201364714Y-62540880D01*
X201745666Y-62540880D01*
X201840904Y-62588500D01*
X201888523Y-62636119D01*
X201936142Y-62731357D01*
X201936142Y-62874214D01*
X201888523Y-62969452D01*
X201840904Y-63017071D01*
X201745666Y-63064690D01*
X201364714Y-63064690D01*
X202888523Y-63540880D02*
X202317095Y-63540880D01*
X202602809Y-63540880D02*
X202602809Y-62540880D01*
X202507571Y-62683738D01*
X202412333Y-62778976D01*
X202317095Y-62826595D01*
X203745666Y-62540880D02*
X203555190Y-62540880D01*
X203459952Y-62588500D01*
X203412333Y-62636119D01*
X203317095Y-62778976D01*
X203269476Y-62969452D01*
X203269476Y-63350404D01*
X203317095Y-63445642D01*
X203364714Y-63493261D01*
X203459952Y-63540880D01*
X203650428Y-63540880D01*
X203745666Y-63493261D01*
X203793285Y-63445642D01*
X203840904Y-63350404D01*
X203840904Y-63112309D01*
X203793285Y-63017071D01*
X203745666Y-62969452D01*
X203650428Y-62921833D01*
X203459952Y-62921833D01*
X203364714Y-62969452D01*
X203317095Y-63017071D01*
X203269476Y-63112309D01*
X183570642Y-63223380D02*
X183237309Y-62747190D01*
X182999214Y-63223380D02*
X182999214Y-62223380D01*
X183380166Y-62223380D01*
X183475404Y-62271000D01*
X183523023Y-62318619D01*
X183570642Y-62413857D01*
X183570642Y-62556714D01*
X183523023Y-62651952D01*
X183475404Y-62699571D01*
X183380166Y-62747190D01*
X182999214Y-62747190D01*
X184523023Y-63223380D02*
X183951595Y-63223380D01*
X184237309Y-63223380D02*
X184237309Y-62223380D01*
X184142071Y-62366238D01*
X184046833Y-62461476D01*
X183951595Y-62509095D01*
X184856357Y-62223380D02*
X185523023Y-62223380D01*
X185094452Y-63223380D01*
X142867142Y-60904380D02*
X142533809Y-60428190D01*
X142295714Y-60904380D02*
X142295714Y-59904380D01*
X142676666Y-59904380D01*
X142771904Y-59952000D01*
X142819523Y-59999619D01*
X142867142Y-60094857D01*
X142867142Y-60237714D01*
X142819523Y-60332952D01*
X142771904Y-60380571D01*
X142676666Y-60428190D01*
X142295714Y-60428190D01*
X143819523Y-60904380D02*
X143248095Y-60904380D01*
X143533809Y-60904380D02*
X143533809Y-59904380D01*
X143438571Y-60047238D01*
X143343333Y-60142476D01*
X143248095Y-60190095D01*
X144390952Y-60332952D02*
X144295714Y-60285333D01*
X144248095Y-60237714D01*
X144200476Y-60142476D01*
X144200476Y-60094857D01*
X144248095Y-59999619D01*
X144295714Y-59952000D01*
X144390952Y-59904380D01*
X144581428Y-59904380D01*
X144676666Y-59952000D01*
X144724285Y-59999619D01*
X144771904Y-60094857D01*
X144771904Y-60142476D01*
X144724285Y-60237714D01*
X144676666Y-60285333D01*
X144581428Y-60332952D01*
X144390952Y-60332952D01*
X144295714Y-60380571D01*
X144248095Y-60428190D01*
X144200476Y-60523428D01*
X144200476Y-60713904D01*
X144248095Y-60809142D01*
X144295714Y-60856761D01*
X144390952Y-60904380D01*
X144581428Y-60904380D01*
X144676666Y-60856761D01*
X144724285Y-60809142D01*
X144771904Y-60713904D01*
X144771904Y-60523428D01*
X144724285Y-60428190D01*
X144676666Y-60380571D01*
X144581428Y-60332952D01*
X169283142Y-114371380D02*
X168949809Y-113895190D01*
X168711714Y-114371380D02*
X168711714Y-113371380D01*
X169092666Y-113371380D01*
X169187904Y-113419000D01*
X169235523Y-113466619D01*
X169283142Y-113561857D01*
X169283142Y-113704714D01*
X169235523Y-113799952D01*
X169187904Y-113847571D01*
X169092666Y-113895190D01*
X168711714Y-113895190D01*
X170235523Y-114371380D02*
X169664095Y-114371380D01*
X169949809Y-114371380D02*
X169949809Y-113371380D01*
X169854571Y-113514238D01*
X169759333Y-113609476D01*
X169664095Y-113657095D01*
X170711714Y-114371380D02*
X170902190Y-114371380D01*
X170997428Y-114323761D01*
X171045047Y-114276142D01*
X171140285Y-114133285D01*
X171187904Y-113942809D01*
X171187904Y-113561857D01*
X171140285Y-113466619D01*
X171092666Y-113419000D01*
X170997428Y-113371380D01*
X170806952Y-113371380D01*
X170711714Y-113419000D01*
X170664095Y-113466619D01*
X170616476Y-113561857D01*
X170616476Y-113799952D01*
X170664095Y-113895190D01*
X170711714Y-113942809D01*
X170806952Y-113990428D01*
X170997428Y-113990428D01*
X171092666Y-113942809D01*
X171140285Y-113895190D01*
X171187904Y-113799952D01*
X165854142Y-114371380D02*
X165520809Y-113895190D01*
X165282714Y-114371380D02*
X165282714Y-113371380D01*
X165663666Y-113371380D01*
X165758904Y-113419000D01*
X165806523Y-113466619D01*
X165854142Y-113561857D01*
X165854142Y-113704714D01*
X165806523Y-113799952D01*
X165758904Y-113847571D01*
X165663666Y-113895190D01*
X165282714Y-113895190D01*
X166235095Y-113466619D02*
X166282714Y-113419000D01*
X166377952Y-113371380D01*
X166616047Y-113371380D01*
X166711285Y-113419000D01*
X166758904Y-113466619D01*
X166806523Y-113561857D01*
X166806523Y-113657095D01*
X166758904Y-113799952D01*
X166187476Y-114371380D01*
X166806523Y-114371380D01*
X167425571Y-113371380D02*
X167520809Y-113371380D01*
X167616047Y-113419000D01*
X167663666Y-113466619D01*
X167711285Y-113561857D01*
X167758904Y-113752333D01*
X167758904Y-113990428D01*
X167711285Y-114180904D01*
X167663666Y-114276142D01*
X167616047Y-114323761D01*
X167520809Y-114371380D01*
X167425571Y-114371380D01*
X167330333Y-114323761D01*
X167282714Y-114276142D01*
X167235095Y-114180904D01*
X167187476Y-113990428D01*
X167187476Y-113752333D01*
X167235095Y-113561857D01*
X167282714Y-113466619D01*
X167330333Y-113419000D01*
X167425571Y-113371380D01*
X221430642Y-122974380D02*
X221097309Y-122498190D01*
X220859214Y-122974380D02*
X220859214Y-121974380D01*
X221240166Y-121974380D01*
X221335404Y-122022000D01*
X221383023Y-122069619D01*
X221430642Y-122164857D01*
X221430642Y-122307714D01*
X221383023Y-122402952D01*
X221335404Y-122450571D01*
X221240166Y-122498190D01*
X220859214Y-122498190D01*
X221811595Y-122069619D02*
X221859214Y-122022000D01*
X221954452Y-121974380D01*
X222192547Y-121974380D01*
X222287785Y-122022000D01*
X222335404Y-122069619D01*
X222383023Y-122164857D01*
X222383023Y-122260095D01*
X222335404Y-122402952D01*
X221763976Y-122974380D01*
X222383023Y-122974380D01*
X223335404Y-122974380D02*
X222763976Y-122974380D01*
X223049690Y-122974380D02*
X223049690Y-121974380D01*
X222954452Y-122117238D01*
X222859214Y-122212476D01*
X222763976Y-122260095D01*
X226101642Y-122880380D02*
X225768309Y-122404190D01*
X225530214Y-122880380D02*
X225530214Y-121880380D01*
X225911166Y-121880380D01*
X226006404Y-121928000D01*
X226054023Y-121975619D01*
X226101642Y-122070857D01*
X226101642Y-122213714D01*
X226054023Y-122308952D01*
X226006404Y-122356571D01*
X225911166Y-122404190D01*
X225530214Y-122404190D01*
X226482595Y-121975619D02*
X226530214Y-121928000D01*
X226625452Y-121880380D01*
X226863547Y-121880380D01*
X226958785Y-121928000D01*
X227006404Y-121975619D01*
X227054023Y-122070857D01*
X227054023Y-122166095D01*
X227006404Y-122308952D01*
X226434976Y-122880380D01*
X227054023Y-122880380D01*
X227434976Y-121975619D02*
X227482595Y-121928000D01*
X227577833Y-121880380D01*
X227815928Y-121880380D01*
X227911166Y-121928000D01*
X227958785Y-121975619D01*
X228006404Y-122070857D01*
X228006404Y-122166095D01*
X227958785Y-122308952D01*
X227387357Y-122880380D01*
X228006404Y-122880380D01*
X229721142Y-109194880D02*
X229387809Y-108718690D01*
X229149714Y-109194880D02*
X229149714Y-108194880D01*
X229530666Y-108194880D01*
X229625904Y-108242500D01*
X229673523Y-108290119D01*
X229721142Y-108385357D01*
X229721142Y-108528214D01*
X229673523Y-108623452D01*
X229625904Y-108671071D01*
X229530666Y-108718690D01*
X229149714Y-108718690D01*
X230102095Y-108290119D02*
X230149714Y-108242500D01*
X230244952Y-108194880D01*
X230483047Y-108194880D01*
X230578285Y-108242500D01*
X230625904Y-108290119D01*
X230673523Y-108385357D01*
X230673523Y-108480595D01*
X230625904Y-108623452D01*
X230054476Y-109194880D01*
X230673523Y-109194880D01*
X231006857Y-108194880D02*
X231625904Y-108194880D01*
X231292571Y-108575833D01*
X231435428Y-108575833D01*
X231530666Y-108623452D01*
X231578285Y-108671071D01*
X231625904Y-108766309D01*
X231625904Y-109004404D01*
X231578285Y-109099642D01*
X231530666Y-109147261D01*
X231435428Y-109194880D01*
X231149714Y-109194880D01*
X231054476Y-109147261D01*
X231006857Y-109099642D01*
X123866642Y-124818380D02*
X123533309Y-124342190D01*
X123295214Y-124818380D02*
X123295214Y-123818380D01*
X123676166Y-123818380D01*
X123771404Y-123866000D01*
X123819023Y-123913619D01*
X123866642Y-124008857D01*
X123866642Y-124151714D01*
X123819023Y-124246952D01*
X123771404Y-124294571D01*
X123676166Y-124342190D01*
X123295214Y-124342190D01*
X124247595Y-123913619D02*
X124295214Y-123866000D01*
X124390452Y-123818380D01*
X124628547Y-123818380D01*
X124723785Y-123866000D01*
X124771404Y-123913619D01*
X124819023Y-124008857D01*
X124819023Y-124104095D01*
X124771404Y-124246952D01*
X124199976Y-124818380D01*
X124819023Y-124818380D01*
X125676166Y-124151714D02*
X125676166Y-124818380D01*
X125438071Y-123770761D02*
X125199976Y-124485047D01*
X125819023Y-124485047D01*
X128692642Y-124818380D02*
X128359309Y-124342190D01*
X128121214Y-124818380D02*
X128121214Y-123818380D01*
X128502166Y-123818380D01*
X128597404Y-123866000D01*
X128645023Y-123913619D01*
X128692642Y-124008857D01*
X128692642Y-124151714D01*
X128645023Y-124246952D01*
X128597404Y-124294571D01*
X128502166Y-124342190D01*
X128121214Y-124342190D01*
X129073595Y-123913619D02*
X129121214Y-123866000D01*
X129216452Y-123818380D01*
X129454547Y-123818380D01*
X129549785Y-123866000D01*
X129597404Y-123913619D01*
X129645023Y-124008857D01*
X129645023Y-124104095D01*
X129597404Y-124246952D01*
X129025976Y-124818380D01*
X129645023Y-124818380D01*
X130549785Y-123818380D02*
X130073595Y-123818380D01*
X130025976Y-124294571D01*
X130073595Y-124246952D01*
X130168833Y-124199333D01*
X130406928Y-124199333D01*
X130502166Y-124246952D01*
X130549785Y-124294571D01*
X130597404Y-124389809D01*
X130597404Y-124627904D01*
X130549785Y-124723142D01*
X130502166Y-124770761D01*
X130406928Y-124818380D01*
X130168833Y-124818380D01*
X130073595Y-124770761D01*
X130025976Y-124723142D01*
X130357642Y-109051380D02*
X130024309Y-108575190D01*
X129786214Y-109051380D02*
X129786214Y-108051380D01*
X130167166Y-108051380D01*
X130262404Y-108099000D01*
X130310023Y-108146619D01*
X130357642Y-108241857D01*
X130357642Y-108384714D01*
X130310023Y-108479952D01*
X130262404Y-108527571D01*
X130167166Y-108575190D01*
X129786214Y-108575190D01*
X130738595Y-108146619D02*
X130786214Y-108099000D01*
X130881452Y-108051380D01*
X131119547Y-108051380D01*
X131214785Y-108099000D01*
X131262404Y-108146619D01*
X131310023Y-108241857D01*
X131310023Y-108337095D01*
X131262404Y-108479952D01*
X130690976Y-109051380D01*
X131310023Y-109051380D01*
X132167166Y-108051380D02*
X131976690Y-108051380D01*
X131881452Y-108099000D01*
X131833833Y-108146619D01*
X131738595Y-108289476D01*
X131690976Y-108479952D01*
X131690976Y-108860904D01*
X131738595Y-108956142D01*
X131786214Y-109003761D01*
X131881452Y-109051380D01*
X132071928Y-109051380D01*
X132167166Y-109003761D01*
X132214785Y-108956142D01*
X132262404Y-108860904D01*
X132262404Y-108622809D01*
X132214785Y-108527571D01*
X132167166Y-108479952D01*
X132071928Y-108432333D01*
X131881452Y-108432333D01*
X131786214Y-108479952D01*
X131738595Y-108527571D01*
X131690976Y-108622809D01*
X188954142Y-99352380D02*
X188620809Y-98876190D01*
X188382714Y-99352380D02*
X188382714Y-98352380D01*
X188763666Y-98352380D01*
X188858904Y-98400000D01*
X188906523Y-98447619D01*
X188954142Y-98542857D01*
X188954142Y-98685714D01*
X188906523Y-98780952D01*
X188858904Y-98828571D01*
X188763666Y-98876190D01*
X188382714Y-98876190D01*
X189335095Y-98447619D02*
X189382714Y-98400000D01*
X189477952Y-98352380D01*
X189716047Y-98352380D01*
X189811285Y-98400000D01*
X189858904Y-98447619D01*
X189906523Y-98542857D01*
X189906523Y-98638095D01*
X189858904Y-98780952D01*
X189287476Y-99352380D01*
X189906523Y-99352380D01*
X190239857Y-98352380D02*
X190906523Y-98352380D01*
X190477952Y-99352380D01*
X204470095Y-104290880D02*
X204470095Y-105100404D01*
X204517714Y-105195642D01*
X204565333Y-105243261D01*
X204660571Y-105290880D01*
X204851047Y-105290880D01*
X204946285Y-105243261D01*
X204993904Y-105195642D01*
X205041523Y-105100404D01*
X205041523Y-104290880D01*
X206041523Y-105290880D02*
X205470095Y-105290880D01*
X205755809Y-105290880D02*
X205755809Y-104290880D01*
X205660571Y-104433738D01*
X205565333Y-104528976D01*
X205470095Y-104576595D01*
X173926595Y-75652380D02*
X173926595Y-76461904D01*
X173974214Y-76557142D01*
X174021833Y-76604761D01*
X174117071Y-76652380D01*
X174307547Y-76652380D01*
X174402785Y-76604761D01*
X174450404Y-76557142D01*
X174498023Y-76461904D01*
X174498023Y-75652380D01*
X174926595Y-75747619D02*
X174974214Y-75700000D01*
X175069452Y-75652380D01*
X175307547Y-75652380D01*
X175402785Y-75700000D01*
X175450404Y-75747619D01*
X175498023Y-75842857D01*
X175498023Y-75938095D01*
X175450404Y-76080952D01*
X174878976Y-76652380D01*
X175498023Y-76652380D01*
D15*
X195986523Y-49834095D02*
X195986523Y-50886476D01*
X196048428Y-51010285D01*
X196110333Y-51072190D01*
X196234142Y-51134095D01*
X196481761Y-51134095D01*
X196605571Y-51072190D01*
X196667476Y-51010285D01*
X196729380Y-50886476D01*
X196729380Y-49834095D01*
X197224619Y-49834095D02*
X198029380Y-49834095D01*
X197596047Y-50329333D01*
X197781761Y-50329333D01*
X197905571Y-50391238D01*
X197967476Y-50453142D01*
X198029380Y-50576952D01*
X198029380Y-50886476D01*
X197967476Y-51010285D01*
X197905571Y-51072190D01*
X197781761Y-51134095D01*
X197410333Y-51134095D01*
X197286523Y-51072190D01*
X197224619Y-51010285D01*
X178333523Y-49389595D02*
X178333523Y-50441976D01*
X178395428Y-50565785D01*
X178457333Y-50627690D01*
X178581142Y-50689595D01*
X178828761Y-50689595D01*
X178952571Y-50627690D01*
X179014476Y-50565785D01*
X179076380Y-50441976D01*
X179076380Y-49389595D01*
X180252571Y-49822928D02*
X180252571Y-50689595D01*
X179943047Y-49327690D02*
X179633523Y-50256261D01*
X180438285Y-50256261D01*
D10*
X144780095Y-64412880D02*
X144780095Y-65222404D01*
X144827714Y-65317642D01*
X144875333Y-65365261D01*
X144970571Y-65412880D01*
X145161047Y-65412880D01*
X145256285Y-65365261D01*
X145303904Y-65317642D01*
X145351523Y-65222404D01*
X145351523Y-64412880D01*
X146303904Y-64412880D02*
X145827714Y-64412880D01*
X145780095Y-64889071D01*
X145827714Y-64841452D01*
X145922952Y-64793833D01*
X146161047Y-64793833D01*
X146256285Y-64841452D01*
X146303904Y-64889071D01*
X146351523Y-64984309D01*
X146351523Y-65222404D01*
X146303904Y-65317642D01*
X146256285Y-65365261D01*
X146161047Y-65412880D01*
X145922952Y-65412880D01*
X145827714Y-65365261D01*
X145780095Y-65317642D01*
X167005095Y-103909880D02*
X167005095Y-104719404D01*
X167052714Y-104814642D01*
X167100333Y-104862261D01*
X167195571Y-104909880D01*
X167386047Y-104909880D01*
X167481285Y-104862261D01*
X167528904Y-104814642D01*
X167576523Y-104719404D01*
X167576523Y-103909880D01*
X168481285Y-103909880D02*
X168290809Y-103909880D01*
X168195571Y-103957500D01*
X168147952Y-104005119D01*
X168052714Y-104147976D01*
X168005095Y-104338452D01*
X168005095Y-104719404D01*
X168052714Y-104814642D01*
X168100333Y-104862261D01*
X168195571Y-104909880D01*
X168386047Y-104909880D01*
X168481285Y-104862261D01*
X168528904Y-104814642D01*
X168576523Y-104719404D01*
X168576523Y-104481309D01*
X168528904Y-104386071D01*
X168481285Y-104338452D01*
X168386047Y-104290833D01*
X168195571Y-104290833D01*
X168100333Y-104338452D01*
X168052714Y-104386071D01*
X168005095Y-104481309D01*
X118371880Y-68269833D02*
X119086166Y-68269833D01*
X119229023Y-68317452D01*
X119324261Y-68412690D01*
X119371880Y-68555547D01*
X119371880Y-68650785D01*
X118371880Y-67888880D02*
X118371880Y-67222214D01*
X119371880Y-67650785D01*
X138371880Y-54269833D02*
X139086166Y-54269833D01*
X139229023Y-54317452D01*
X139324261Y-54412690D01*
X139371880Y-54555547D01*
X139371880Y-54650785D01*
X138800452Y-53650785D02*
X138752833Y-53746023D01*
X138705214Y-53793642D01*
X138609976Y-53841261D01*
X138562357Y-53841261D01*
X138467119Y-53793642D01*
X138419500Y-53746023D01*
X138371880Y-53650785D01*
X138371880Y-53460309D01*
X138419500Y-53365071D01*
X138467119Y-53317452D01*
X138562357Y-53269833D01*
X138609976Y-53269833D01*
X138705214Y-53317452D01*
X138752833Y-53365071D01*
X138800452Y-53460309D01*
X138800452Y-53650785D01*
X138848071Y-53746023D01*
X138895690Y-53793642D01*
X138990928Y-53841261D01*
X139181404Y-53841261D01*
X139276642Y-53793642D01*
X139324261Y-53746023D01*
X139371880Y-53650785D01*
X139371880Y-53460309D01*
X139324261Y-53365071D01*
X139276642Y-53317452D01*
X139181404Y-53269833D01*
X138990928Y-53269833D01*
X138895690Y-53317452D01*
X138848071Y-53365071D01*
X138800452Y-53460309D01*
X118371880Y-54269833D02*
X119086166Y-54269833D01*
X119229023Y-54317452D01*
X119324261Y-54412690D01*
X119371880Y-54555547D01*
X119371880Y-54650785D01*
X119371880Y-53746023D02*
X119371880Y-53555547D01*
X119324261Y-53460309D01*
X119276642Y-53412690D01*
X119133785Y-53317452D01*
X118943309Y-53269833D01*
X118562357Y-53269833D01*
X118467119Y-53317452D01*
X118419500Y-53365071D01*
X118371880Y-53460309D01*
X118371880Y-53650785D01*
X118419500Y-53746023D01*
X118467119Y-53793642D01*
X118562357Y-53841261D01*
X118800452Y-53841261D01*
X118895690Y-53793642D01*
X118943309Y-53746023D01*
X118990928Y-53650785D01*
X118990928Y-53460309D01*
X118943309Y-53365071D01*
X118895690Y-53317452D01*
X118800452Y-53269833D01*
X128371880Y-68746023D02*
X129086166Y-68746023D01*
X129229023Y-68793642D01*
X129324261Y-68888880D01*
X129371880Y-69031738D01*
X129371880Y-69126976D01*
X129371880Y-67746023D02*
X129371880Y-68317452D01*
X129371880Y-68031738D02*
X128371880Y-68031738D01*
X128514738Y-68126976D01*
X128609976Y-68222214D01*
X128657595Y-68317452D01*
X128371880Y-67126976D02*
X128371880Y-67031738D01*
X128419500Y-66936500D01*
X128467119Y-66888880D01*
X128562357Y-66841261D01*
X128752833Y-66793642D01*
X128990928Y-66793642D01*
X129181404Y-66841261D01*
X129276642Y-66888880D01*
X129324261Y-66936500D01*
X129371880Y-67031738D01*
X129371880Y-67126976D01*
X129324261Y-67222214D01*
X129276642Y-67269833D01*
X129181404Y-67317452D01*
X128990928Y-67365071D01*
X128752833Y-67365071D01*
X128562357Y-67317452D01*
X128467119Y-67269833D01*
X128419500Y-67222214D01*
X128371880Y-67126976D01*
X138371880Y-68746023D02*
X139086166Y-68746023D01*
X139229023Y-68793642D01*
X139324261Y-68888880D01*
X139371880Y-69031738D01*
X139371880Y-69126976D01*
X139371880Y-67746023D02*
X139371880Y-68317452D01*
X139371880Y-68031738D02*
X138371880Y-68031738D01*
X138514738Y-68126976D01*
X138609976Y-68222214D01*
X138657595Y-68317452D01*
X139371880Y-66793642D02*
X139371880Y-67365071D01*
X139371880Y-67079357D02*
X138371880Y-67079357D01*
X138514738Y-67174595D01*
X138609976Y-67269833D01*
X138657595Y-67365071D01*
X128371880Y-82746023D02*
X129086166Y-82746023D01*
X129229023Y-82793642D01*
X129324261Y-82888880D01*
X129371880Y-83031738D01*
X129371880Y-83126976D01*
X129371880Y-81746023D02*
X129371880Y-82317452D01*
X129371880Y-82031738D02*
X128371880Y-82031738D01*
X128514738Y-82126976D01*
X128609976Y-82222214D01*
X128657595Y-82317452D01*
X128467119Y-81365071D02*
X128419500Y-81317452D01*
X128371880Y-81222214D01*
X128371880Y-80984119D01*
X128419500Y-80888880D01*
X128467119Y-80841261D01*
X128562357Y-80793642D01*
X128657595Y-80793642D01*
X128800452Y-80841261D01*
X129371880Y-81412690D01*
X129371880Y-80793642D01*
X118371880Y-96746023D02*
X119086166Y-96746023D01*
X119229023Y-96793642D01*
X119324261Y-96888880D01*
X119371880Y-97031738D01*
X119371880Y-97126976D01*
X119371880Y-95746023D02*
X119371880Y-96317452D01*
X119371880Y-96031738D02*
X118371880Y-96031738D01*
X118514738Y-96126976D01*
X118609976Y-96222214D01*
X118657595Y-96317452D01*
X118371880Y-95412690D02*
X118371880Y-94793642D01*
X118752833Y-95126976D01*
X118752833Y-94984119D01*
X118800452Y-94888880D01*
X118848071Y-94841261D01*
X118943309Y-94793642D01*
X119181404Y-94793642D01*
X119276642Y-94841261D01*
X119324261Y-94888880D01*
X119371880Y-94984119D01*
X119371880Y-95269833D01*
X119324261Y-95365071D01*
X119276642Y-95412690D01*
X138371880Y-82746023D02*
X139086166Y-82746023D01*
X139229023Y-82793642D01*
X139324261Y-82888880D01*
X139371880Y-83031738D01*
X139371880Y-83126976D01*
X139371880Y-81746023D02*
X139371880Y-82317452D01*
X139371880Y-82031738D02*
X138371880Y-82031738D01*
X138514738Y-82126976D01*
X138609976Y-82222214D01*
X138657595Y-82317452D01*
X138705214Y-80888880D02*
X139371880Y-80888880D01*
X138324261Y-81126976D02*
X139038547Y-81365071D01*
X139038547Y-80746023D01*
X118371880Y-82746023D02*
X119086166Y-82746023D01*
X119229023Y-82793642D01*
X119324261Y-82888880D01*
X119371880Y-83031738D01*
X119371880Y-83126976D01*
X119371880Y-81746023D02*
X119371880Y-82317452D01*
X119371880Y-82031738D02*
X118371880Y-82031738D01*
X118514738Y-82126976D01*
X118609976Y-82222214D01*
X118657595Y-82317452D01*
X118371880Y-80841261D02*
X118371880Y-81317452D01*
X118848071Y-81365071D01*
X118800452Y-81317452D01*
X118752833Y-81222214D01*
X118752833Y-80984119D01*
X118800452Y-80888880D01*
X118848071Y-80841261D01*
X118943309Y-80793642D01*
X119181404Y-80793642D01*
X119276642Y-80841261D01*
X119324261Y-80888880D01*
X119371880Y-80984119D01*
X119371880Y-81222214D01*
X119324261Y-81317452D01*
X119276642Y-81365071D01*
X128371880Y-96746023D02*
X129086166Y-96746023D01*
X129229023Y-96793642D01*
X129324261Y-96888880D01*
X129371880Y-97031738D01*
X129371880Y-97126976D01*
X129371880Y-95746023D02*
X129371880Y-96317452D01*
X129371880Y-96031738D02*
X128371880Y-96031738D01*
X128514738Y-96126976D01*
X128609976Y-96222214D01*
X128657595Y-96317452D01*
X128371880Y-94888880D02*
X128371880Y-95079357D01*
X128419500Y-95174595D01*
X128467119Y-95222214D01*
X128609976Y-95317452D01*
X128800452Y-95365071D01*
X129181404Y-95365071D01*
X129276642Y-95317452D01*
X129324261Y-95269833D01*
X129371880Y-95174595D01*
X129371880Y-94984119D01*
X129324261Y-94888880D01*
X129276642Y-94841261D01*
X129181404Y-94793642D01*
X128943309Y-94793642D01*
X128848071Y-94841261D01*
X128800452Y-94888880D01*
X128752833Y-94984119D01*
X128752833Y-95174595D01*
X128800452Y-95269833D01*
X128848071Y-95317452D01*
X128943309Y-95365071D01*
X212119880Y-96714023D02*
X212834166Y-96714023D01*
X212977023Y-96761642D01*
X213072261Y-96856880D01*
X213119880Y-96999738D01*
X213119880Y-97094976D01*
X213119880Y-95714023D02*
X213119880Y-96285452D01*
X213119880Y-95999738D02*
X212119880Y-95999738D01*
X212262738Y-96094976D01*
X212357976Y-96190214D01*
X212405595Y-96285452D01*
X212119880Y-95380690D02*
X212119880Y-94714023D01*
X213119880Y-95142595D01*
X232119880Y-96714023D02*
X232834166Y-96714023D01*
X232977023Y-96761642D01*
X233072261Y-96856880D01*
X233119880Y-96999738D01*
X233119880Y-97094976D01*
X233119880Y-95714023D02*
X233119880Y-96285452D01*
X233119880Y-95999738D02*
X232119880Y-95999738D01*
X232262738Y-96094976D01*
X232357976Y-96190214D01*
X232405595Y-96285452D01*
X232548452Y-95142595D02*
X232500833Y-95237833D01*
X232453214Y-95285452D01*
X232357976Y-95333071D01*
X232310357Y-95333071D01*
X232215119Y-95285452D01*
X232167500Y-95237833D01*
X232119880Y-95142595D01*
X232119880Y-94952119D01*
X232167500Y-94856880D01*
X232215119Y-94809261D01*
X232310357Y-94761642D01*
X232357976Y-94761642D01*
X232453214Y-94809261D01*
X232500833Y-94856880D01*
X232548452Y-94952119D01*
X232548452Y-95142595D01*
X232596071Y-95237833D01*
X232643690Y-95285452D01*
X232738928Y-95333071D01*
X232929404Y-95333071D01*
X233024642Y-95285452D01*
X233072261Y-95237833D01*
X233119880Y-95142595D01*
X233119880Y-94952119D01*
X233072261Y-94856880D01*
X233024642Y-94809261D01*
X232929404Y-94761642D01*
X232738928Y-94761642D01*
X232643690Y-94809261D01*
X232596071Y-94856880D01*
X232548452Y-94952119D01*
X138371880Y-96746023D02*
X139086166Y-96746023D01*
X139229023Y-96793642D01*
X139324261Y-96888880D01*
X139371880Y-97031738D01*
X139371880Y-97126976D01*
X139371880Y-95746023D02*
X139371880Y-96317452D01*
X139371880Y-96031738D02*
X138371880Y-96031738D01*
X138514738Y-96126976D01*
X138609976Y-96222214D01*
X138657595Y-96317452D01*
X139371880Y-95269833D02*
X139371880Y-95079357D01*
X139324261Y-94984119D01*
X139276642Y-94936500D01*
X139133785Y-94841261D01*
X138943309Y-94793642D01*
X138562357Y-94793642D01*
X138467119Y-94841261D01*
X138419500Y-94888880D01*
X138371880Y-94984119D01*
X138371880Y-95174595D01*
X138419500Y-95269833D01*
X138467119Y-95317452D01*
X138562357Y-95365071D01*
X138800452Y-95365071D01*
X138895690Y-95317452D01*
X138943309Y-95269833D01*
X138990928Y-95174595D01*
X138990928Y-94984119D01*
X138943309Y-94888880D01*
X138895690Y-94841261D01*
X138800452Y-94793642D01*
X222119880Y-96714023D02*
X222834166Y-96714023D01*
X222977023Y-96761642D01*
X223072261Y-96856880D01*
X223119880Y-96999738D01*
X223119880Y-97094976D01*
X222215119Y-96285452D02*
X222167500Y-96237833D01*
X222119880Y-96142595D01*
X222119880Y-95904500D01*
X222167500Y-95809261D01*
X222215119Y-95761642D01*
X222310357Y-95714023D01*
X222405595Y-95714023D01*
X222548452Y-95761642D01*
X223119880Y-96333071D01*
X223119880Y-95714023D01*
X222119880Y-95094976D02*
X222119880Y-94999738D01*
X222167500Y-94904500D01*
X222215119Y-94856880D01*
X222310357Y-94809261D01*
X222500833Y-94761642D01*
X222738928Y-94761642D01*
X222929404Y-94809261D01*
X223024642Y-94856880D01*
X223072261Y-94904500D01*
X223119880Y-94999738D01*
X223119880Y-95094976D01*
X223072261Y-95190214D01*
X223024642Y-95237833D01*
X222929404Y-95285452D01*
X222738928Y-95333071D01*
X222500833Y-95333071D01*
X222310357Y-95285452D01*
X222215119Y-95237833D01*
X222167500Y-95190214D01*
X222119880Y-95094976D01*
X232119880Y-82714023D02*
X232834166Y-82714023D01*
X232977023Y-82761642D01*
X233072261Y-82856880D01*
X233119880Y-82999738D01*
X233119880Y-83094976D01*
X232215119Y-82285452D02*
X232167500Y-82237833D01*
X232119880Y-82142595D01*
X232119880Y-81904500D01*
X232167500Y-81809261D01*
X232215119Y-81761642D01*
X232310357Y-81714023D01*
X232405595Y-81714023D01*
X232548452Y-81761642D01*
X233119880Y-82333071D01*
X233119880Y-81714023D01*
X233119880Y-80761642D02*
X233119880Y-81333071D01*
X233119880Y-81047357D02*
X232119880Y-81047357D01*
X232262738Y-81142595D01*
X232357976Y-81237833D01*
X232405595Y-81333071D01*
X212119880Y-82714023D02*
X212834166Y-82714023D01*
X212977023Y-82761642D01*
X213072261Y-82856880D01*
X213119880Y-82999738D01*
X213119880Y-83094976D01*
X212215119Y-82285452D02*
X212167500Y-82237833D01*
X212119880Y-82142595D01*
X212119880Y-81904500D01*
X212167500Y-81809261D01*
X212215119Y-81761642D01*
X212310357Y-81714023D01*
X212405595Y-81714023D01*
X212548452Y-81761642D01*
X213119880Y-82333071D01*
X213119880Y-81714023D01*
X212215119Y-81333071D02*
X212167500Y-81285452D01*
X212119880Y-81190214D01*
X212119880Y-80952119D01*
X212167500Y-80856880D01*
X212215119Y-80809261D01*
X212310357Y-80761642D01*
X212405595Y-80761642D01*
X212548452Y-80809261D01*
X213119880Y-81380690D01*
X213119880Y-80761642D01*
X222119880Y-68714023D02*
X222834166Y-68714023D01*
X222977023Y-68761642D01*
X223072261Y-68856880D01*
X223119880Y-68999738D01*
X223119880Y-69094976D01*
X222215119Y-68285452D02*
X222167500Y-68237833D01*
X222119880Y-68142595D01*
X222119880Y-67904500D01*
X222167500Y-67809261D01*
X222215119Y-67761642D01*
X222310357Y-67714023D01*
X222405595Y-67714023D01*
X222548452Y-67761642D01*
X223119880Y-68333071D01*
X223119880Y-67714023D01*
X222119880Y-67380690D02*
X222119880Y-66761642D01*
X222500833Y-67094976D01*
X222500833Y-66952119D01*
X222548452Y-66856880D01*
X222596071Y-66809261D01*
X222691309Y-66761642D01*
X222929404Y-66761642D01*
X223024642Y-66809261D01*
X223072261Y-66856880D01*
X223119880Y-66952119D01*
X223119880Y-67237833D01*
X223072261Y-67333071D01*
X223024642Y-67380690D01*
X222119880Y-82714023D02*
X222834166Y-82714023D01*
X222977023Y-82761642D01*
X223072261Y-82856880D01*
X223119880Y-82999738D01*
X223119880Y-83094976D01*
X222215119Y-82285452D02*
X222167500Y-82237833D01*
X222119880Y-82142595D01*
X222119880Y-81904500D01*
X222167500Y-81809261D01*
X222215119Y-81761642D01*
X222310357Y-81714023D01*
X222405595Y-81714023D01*
X222548452Y-81761642D01*
X223119880Y-82333071D01*
X223119880Y-81714023D01*
X222453214Y-80856880D02*
X223119880Y-80856880D01*
X222072261Y-81094976D02*
X222786547Y-81333071D01*
X222786547Y-80714023D01*
X212119880Y-68714023D02*
X212834166Y-68714023D01*
X212977023Y-68761642D01*
X213072261Y-68856880D01*
X213119880Y-68999738D01*
X213119880Y-69094976D01*
X212215119Y-68285452D02*
X212167500Y-68237833D01*
X212119880Y-68142595D01*
X212119880Y-67904500D01*
X212167500Y-67809261D01*
X212215119Y-67761642D01*
X212310357Y-67714023D01*
X212405595Y-67714023D01*
X212548452Y-67761642D01*
X213119880Y-68333071D01*
X213119880Y-67714023D01*
X212119880Y-66809261D02*
X212119880Y-67285452D01*
X212596071Y-67333071D01*
X212548452Y-67285452D01*
X212500833Y-67190214D01*
X212500833Y-66952119D01*
X212548452Y-66856880D01*
X212596071Y-66809261D01*
X212691309Y-66761642D01*
X212929404Y-66761642D01*
X213024642Y-66809261D01*
X213072261Y-66856880D01*
X213119880Y-66952119D01*
X213119880Y-67190214D01*
X213072261Y-67285452D01*
X213024642Y-67333071D01*
X232119880Y-68714023D02*
X232834166Y-68714023D01*
X232977023Y-68761642D01*
X233072261Y-68856880D01*
X233119880Y-68999738D01*
X233119880Y-69094976D01*
X232215119Y-68285452D02*
X232167500Y-68237833D01*
X232119880Y-68142595D01*
X232119880Y-67904500D01*
X232167500Y-67809261D01*
X232215119Y-67761642D01*
X232310357Y-67714023D01*
X232405595Y-67714023D01*
X232548452Y-67761642D01*
X233119880Y-68333071D01*
X233119880Y-67714023D01*
X232119880Y-66856880D02*
X232119880Y-67047357D01*
X232167500Y-67142595D01*
X232215119Y-67190214D01*
X232357976Y-67285452D01*
X232548452Y-67333071D01*
X232929404Y-67333071D01*
X233024642Y-67285452D01*
X233072261Y-67237833D01*
X233119880Y-67142595D01*
X233119880Y-66952119D01*
X233072261Y-66856880D01*
X233024642Y-66809261D01*
X232929404Y-66761642D01*
X232691309Y-66761642D01*
X232596071Y-66809261D01*
X232548452Y-66856880D01*
X232500833Y-66952119D01*
X232500833Y-67142595D01*
X232548452Y-67237833D01*
X232596071Y-67285452D01*
X232691309Y-67333071D01*
X222119880Y-54714023D02*
X222834166Y-54714023D01*
X222977023Y-54761642D01*
X223072261Y-54856880D01*
X223119880Y-54999738D01*
X223119880Y-55094976D01*
X222215119Y-54285452D02*
X222167500Y-54237833D01*
X222119880Y-54142595D01*
X222119880Y-53904500D01*
X222167500Y-53809261D01*
X222215119Y-53761642D01*
X222310357Y-53714023D01*
X222405595Y-53714023D01*
X222548452Y-53761642D01*
X223119880Y-54333071D01*
X223119880Y-53714023D01*
X222119880Y-53380690D02*
X222119880Y-52714023D01*
X223119880Y-53142595D01*
X232119880Y-54714023D02*
X232834166Y-54714023D01*
X232977023Y-54761642D01*
X233072261Y-54856880D01*
X233119880Y-54999738D01*
X233119880Y-55094976D01*
X232215119Y-54285452D02*
X232167500Y-54237833D01*
X232119880Y-54142595D01*
X232119880Y-53904500D01*
X232167500Y-53809261D01*
X232215119Y-53761642D01*
X232310357Y-53714023D01*
X232405595Y-53714023D01*
X232548452Y-53761642D01*
X233119880Y-54333071D01*
X233119880Y-53714023D01*
X232548452Y-53142595D02*
X232500833Y-53237833D01*
X232453214Y-53285452D01*
X232357976Y-53333071D01*
X232310357Y-53333071D01*
X232215119Y-53285452D01*
X232167500Y-53237833D01*
X232119880Y-53142595D01*
X232119880Y-52952119D01*
X232167500Y-52856880D01*
X232215119Y-52809261D01*
X232310357Y-52761642D01*
X232357976Y-52761642D01*
X232453214Y-52809261D01*
X232500833Y-52856880D01*
X232548452Y-52952119D01*
X232548452Y-53142595D01*
X232596071Y-53237833D01*
X232643690Y-53285452D01*
X232738928Y-53333071D01*
X232929404Y-53333071D01*
X233024642Y-53285452D01*
X233072261Y-53237833D01*
X233119880Y-53142595D01*
X233119880Y-52952119D01*
X233072261Y-52856880D01*
X233024642Y-52809261D01*
X232929404Y-52761642D01*
X232738928Y-52761642D01*
X232643690Y-52809261D01*
X232596071Y-52856880D01*
X232548452Y-52952119D01*
X212119880Y-54714023D02*
X212834166Y-54714023D01*
X212977023Y-54761642D01*
X213072261Y-54856880D01*
X213119880Y-54999738D01*
X213119880Y-55094976D01*
X212215119Y-54285452D02*
X212167500Y-54237833D01*
X212119880Y-54142595D01*
X212119880Y-53904500D01*
X212167500Y-53809261D01*
X212215119Y-53761642D01*
X212310357Y-53714023D01*
X212405595Y-53714023D01*
X212548452Y-53761642D01*
X213119880Y-54333071D01*
X213119880Y-53714023D01*
X213119880Y-53237833D02*
X213119880Y-53047357D01*
X213072261Y-52952119D01*
X213024642Y-52904500D01*
X212881785Y-52809261D01*
X212691309Y-52761642D01*
X212310357Y-52761642D01*
X212215119Y-52809261D01*
X212167500Y-52856880D01*
X212119880Y-52952119D01*
X212119880Y-53142595D01*
X212167500Y-53237833D01*
X212215119Y-53285452D01*
X212310357Y-53333071D01*
X212548452Y-53333071D01*
X212643690Y-53285452D01*
X212691309Y-53237833D01*
X212738928Y-53142595D01*
X212738928Y-52952119D01*
X212691309Y-52856880D01*
X212643690Y-52809261D01*
X212548452Y-52761642D01*
X186190476Y-102152380D02*
X186190476Y-102866666D01*
X186142857Y-103009523D01*
X186047619Y-103104761D01*
X185904761Y-103152380D01*
X185809523Y-103152380D01*
X186571428Y-102152380D02*
X187190476Y-102152380D01*
X186857142Y-102533333D01*
X187000000Y-102533333D01*
X187095238Y-102580952D01*
X187142857Y-102628571D01*
X187190476Y-102723809D01*
X187190476Y-102961904D01*
X187142857Y-103057142D01*
X187095238Y-103104761D01*
X187000000Y-103152380D01*
X186714285Y-103152380D01*
X186619047Y-103104761D01*
X186571428Y-103057142D01*
X187809523Y-102152380D02*
X187904761Y-102152380D01*
X188000000Y-102200000D01*
X188047619Y-102247619D01*
X188095238Y-102342857D01*
X188142857Y-102533333D01*
X188142857Y-102771428D01*
X188095238Y-102961904D01*
X188047619Y-103057142D01*
X188000000Y-103104761D01*
X187904761Y-103152380D01*
X187809523Y-103152380D01*
X187714285Y-103104761D01*
X187666666Y-103057142D01*
X187619047Y-102961904D01*
X187571428Y-102771428D01*
X187571428Y-102533333D01*
X187619047Y-102342857D01*
X187666666Y-102247619D01*
X187714285Y-102200000D01*
X187809523Y-102152380D01*
X193190476Y-111152380D02*
X193190476Y-111866666D01*
X193142857Y-112009523D01*
X193047619Y-112104761D01*
X192904761Y-112152380D01*
X192809523Y-112152380D01*
X193571428Y-111152380D02*
X194190476Y-111152380D01*
X193857142Y-111533333D01*
X194000000Y-111533333D01*
X194095238Y-111580952D01*
X194142857Y-111628571D01*
X194190476Y-111723809D01*
X194190476Y-111961904D01*
X194142857Y-112057142D01*
X194095238Y-112104761D01*
X194000000Y-112152380D01*
X193714285Y-112152380D01*
X193619047Y-112104761D01*
X193571428Y-112057142D01*
X195142857Y-112152380D02*
X194571428Y-112152380D01*
X194857142Y-112152380D02*
X194857142Y-111152380D01*
X194761904Y-111295238D01*
X194666666Y-111390476D01*
X194571428Y-111438095D01*
X193190476Y-121152380D02*
X193190476Y-121866666D01*
X193142857Y-122009523D01*
X193047619Y-122104761D01*
X192904761Y-122152380D01*
X192809523Y-122152380D01*
X193571428Y-121152380D02*
X194190476Y-121152380D01*
X193857142Y-121533333D01*
X194000000Y-121533333D01*
X194095238Y-121580952D01*
X194142857Y-121628571D01*
X194190476Y-121723809D01*
X194190476Y-121961904D01*
X194142857Y-122057142D01*
X194095238Y-122104761D01*
X194000000Y-122152380D01*
X193714285Y-122152380D01*
X193619047Y-122104761D01*
X193571428Y-122057142D01*
X194571428Y-121247619D02*
X194619047Y-121200000D01*
X194714285Y-121152380D01*
X194952380Y-121152380D01*
X195047619Y-121200000D01*
X195095238Y-121247619D01*
X195142857Y-121342857D01*
X195142857Y-121438095D01*
X195095238Y-121580952D01*
X194523809Y-122152380D01*
X195142857Y-122152380D01*
X179190476Y-121152380D02*
X179190476Y-121866666D01*
X179142857Y-122009523D01*
X179047619Y-122104761D01*
X178904761Y-122152380D01*
X178809523Y-122152380D01*
X179571428Y-121152380D02*
X180190476Y-121152380D01*
X179857142Y-121533333D01*
X180000000Y-121533333D01*
X180095238Y-121580952D01*
X180142857Y-121628571D01*
X180190476Y-121723809D01*
X180190476Y-121961904D01*
X180142857Y-122057142D01*
X180095238Y-122104761D01*
X180000000Y-122152380D01*
X179714285Y-122152380D01*
X179619047Y-122104761D01*
X179571428Y-122057142D01*
X180523809Y-121152380D02*
X181142857Y-121152380D01*
X180809523Y-121533333D01*
X180952380Y-121533333D01*
X181047619Y-121580952D01*
X181095238Y-121628571D01*
X181142857Y-121723809D01*
X181142857Y-121961904D01*
X181095238Y-122057142D01*
X181047619Y-122104761D01*
X180952380Y-122152380D01*
X180666666Y-122152380D01*
X180571428Y-122104761D01*
X180523809Y-122057142D01*
X179190476Y-111152380D02*
X179190476Y-111866666D01*
X179142857Y-112009523D01*
X179047619Y-112104761D01*
X178904761Y-112152380D01*
X178809523Y-112152380D01*
X179571428Y-111152380D02*
X180190476Y-111152380D01*
X179857142Y-111533333D01*
X180000000Y-111533333D01*
X180095238Y-111580952D01*
X180142857Y-111628571D01*
X180190476Y-111723809D01*
X180190476Y-111961904D01*
X180142857Y-112057142D01*
X180095238Y-112104761D01*
X180000000Y-112152380D01*
X179714285Y-112152380D01*
X179619047Y-112104761D01*
X179571428Y-112057142D01*
X181047619Y-111485714D02*
X181047619Y-112152380D01*
X180809523Y-111104761D02*
X180571428Y-111819047D01*
X181190476Y-111819047D01*
X148190476Y-102152380D02*
X148190476Y-102866666D01*
X148142857Y-103009523D01*
X148047619Y-103104761D01*
X147904761Y-103152380D01*
X147809523Y-103152380D01*
X148571428Y-102152380D02*
X149190476Y-102152380D01*
X148857142Y-102533333D01*
X149000000Y-102533333D01*
X149095238Y-102580952D01*
X149142857Y-102628571D01*
X149190476Y-102723809D01*
X149190476Y-102961904D01*
X149142857Y-103057142D01*
X149095238Y-103104761D01*
X149000000Y-103152380D01*
X148714285Y-103152380D01*
X148619047Y-103104761D01*
X148571428Y-103057142D01*
X150095238Y-102152380D02*
X149619047Y-102152380D01*
X149571428Y-102628571D01*
X149619047Y-102580952D01*
X149714285Y-102533333D01*
X149952380Y-102533333D01*
X150047619Y-102580952D01*
X150095238Y-102628571D01*
X150142857Y-102723809D01*
X150142857Y-102961904D01*
X150095238Y-103057142D01*
X150047619Y-103104761D01*
X149952380Y-103152380D01*
X149714285Y-103152380D01*
X149619047Y-103104761D01*
X149571428Y-103057142D01*
X155190476Y-111152380D02*
X155190476Y-111866666D01*
X155142857Y-112009523D01*
X155047619Y-112104761D01*
X154904761Y-112152380D01*
X154809523Y-112152380D01*
X155571428Y-111152380D02*
X156190476Y-111152380D01*
X155857142Y-111533333D01*
X156000000Y-111533333D01*
X156095238Y-111580952D01*
X156142857Y-111628571D01*
X156190476Y-111723809D01*
X156190476Y-111961904D01*
X156142857Y-112057142D01*
X156095238Y-112104761D01*
X156000000Y-112152380D01*
X155714285Y-112152380D01*
X155619047Y-112104761D01*
X155571428Y-112057142D01*
X157047619Y-111152380D02*
X156857142Y-111152380D01*
X156761904Y-111200000D01*
X156714285Y-111247619D01*
X156619047Y-111390476D01*
X156571428Y-111580952D01*
X156571428Y-111961904D01*
X156619047Y-112057142D01*
X156666666Y-112104761D01*
X156761904Y-112152380D01*
X156952380Y-112152380D01*
X157047619Y-112104761D01*
X157095238Y-112057142D01*
X157142857Y-111961904D01*
X157142857Y-111723809D01*
X157095238Y-111628571D01*
X157047619Y-111580952D01*
X156952380Y-111533333D01*
X156761904Y-111533333D01*
X156666666Y-111580952D01*
X156619047Y-111628571D01*
X156571428Y-111723809D01*
X155190476Y-121152380D02*
X155190476Y-121866666D01*
X155142857Y-122009523D01*
X155047619Y-122104761D01*
X154904761Y-122152380D01*
X154809523Y-122152380D01*
X155571428Y-121152380D02*
X156190476Y-121152380D01*
X155857142Y-121533333D01*
X156000000Y-121533333D01*
X156095238Y-121580952D01*
X156142857Y-121628571D01*
X156190476Y-121723809D01*
X156190476Y-121961904D01*
X156142857Y-122057142D01*
X156095238Y-122104761D01*
X156000000Y-122152380D01*
X155714285Y-122152380D01*
X155619047Y-122104761D01*
X155571428Y-122057142D01*
X156523809Y-121152380D02*
X157190476Y-121152380D01*
X156761904Y-122152380D01*
X141190476Y-121152380D02*
X141190476Y-121866666D01*
X141142857Y-122009523D01*
X141047619Y-122104761D01*
X140904761Y-122152380D01*
X140809523Y-122152380D01*
X141571428Y-121152380D02*
X142190476Y-121152380D01*
X141857142Y-121533333D01*
X142000000Y-121533333D01*
X142095238Y-121580952D01*
X142142857Y-121628571D01*
X142190476Y-121723809D01*
X142190476Y-121961904D01*
X142142857Y-122057142D01*
X142095238Y-122104761D01*
X142000000Y-122152380D01*
X141714285Y-122152380D01*
X141619047Y-122104761D01*
X141571428Y-122057142D01*
X142761904Y-121580952D02*
X142666666Y-121533333D01*
X142619047Y-121485714D01*
X142571428Y-121390476D01*
X142571428Y-121342857D01*
X142619047Y-121247619D01*
X142666666Y-121200000D01*
X142761904Y-121152380D01*
X142952380Y-121152380D01*
X143047619Y-121200000D01*
X143095238Y-121247619D01*
X143142857Y-121342857D01*
X143142857Y-121390476D01*
X143095238Y-121485714D01*
X143047619Y-121533333D01*
X142952380Y-121580952D01*
X142761904Y-121580952D01*
X142666666Y-121628571D01*
X142619047Y-121676190D01*
X142571428Y-121771428D01*
X142571428Y-121961904D01*
X142619047Y-122057142D01*
X142666666Y-122104761D01*
X142761904Y-122152380D01*
X142952380Y-122152380D01*
X143047619Y-122104761D01*
X143095238Y-122057142D01*
X143142857Y-121961904D01*
X143142857Y-121771428D01*
X143095238Y-121676190D01*
X143047619Y-121628571D01*
X142952380Y-121580952D01*
X141190476Y-111152380D02*
X141190476Y-111866666D01*
X141142857Y-112009523D01*
X141047619Y-112104761D01*
X140904761Y-112152380D01*
X140809523Y-112152380D01*
X141571428Y-111152380D02*
X142190476Y-111152380D01*
X141857142Y-111533333D01*
X142000000Y-111533333D01*
X142095238Y-111580952D01*
X142142857Y-111628571D01*
X142190476Y-111723809D01*
X142190476Y-111961904D01*
X142142857Y-112057142D01*
X142095238Y-112104761D01*
X142000000Y-112152380D01*
X141714285Y-112152380D01*
X141619047Y-112104761D01*
X141571428Y-112057142D01*
X142666666Y-112152380D02*
X142857142Y-112152380D01*
X142952380Y-112104761D01*
X143000000Y-112057142D01*
X143095238Y-111914285D01*
X143142857Y-111723809D01*
X143142857Y-111342857D01*
X143095238Y-111247619D01*
X143047619Y-111200000D01*
X142952380Y-111152380D01*
X142761904Y-111152380D01*
X142666666Y-111200000D01*
X142619047Y-111247619D01*
X142571428Y-111342857D01*
X142571428Y-111580952D01*
X142619047Y-111676190D01*
X142666666Y-111723809D01*
X142761904Y-111771428D01*
X142952380Y-111771428D01*
X143047619Y-111723809D01*
X143095238Y-111676190D01*
X143142857Y-111580952D01*
X224190476Y-114152380D02*
X224190476Y-114866666D01*
X224142857Y-115009523D01*
X224047619Y-115104761D01*
X223904761Y-115152380D01*
X223809523Y-115152380D01*
X225095238Y-114485714D02*
X225095238Y-115152380D01*
X224857142Y-114104761D02*
X224619047Y-114819047D01*
X225238095Y-114819047D01*
X225809523Y-114152380D02*
X225904761Y-114152380D01*
X226000000Y-114200000D01*
X226047619Y-114247619D01*
X226095238Y-114342857D01*
X226142857Y-114533333D01*
X226142857Y-114771428D01*
X226095238Y-114961904D01*
X226047619Y-115057142D01*
X226000000Y-115104761D01*
X225904761Y-115152380D01*
X225809523Y-115152380D01*
X225714285Y-115104761D01*
X225666666Y-115057142D01*
X225619047Y-114961904D01*
X225571428Y-114771428D01*
X225571428Y-114533333D01*
X225619047Y-114342857D01*
X225666666Y-114247619D01*
X225714285Y-114200000D01*
X225809523Y-114152380D01*
X126190476Y-114152380D02*
X126190476Y-114866666D01*
X126142857Y-115009523D01*
X126047619Y-115104761D01*
X125904761Y-115152380D01*
X125809523Y-115152380D01*
X127095238Y-114485714D02*
X127095238Y-115152380D01*
X126857142Y-114104761D02*
X126619047Y-114819047D01*
X127238095Y-114819047D01*
X128142857Y-115152380D02*
X127571428Y-115152380D01*
X127857142Y-115152380D02*
X127857142Y-114152380D01*
X127761904Y-114295238D01*
X127666666Y-114390476D01*
X127571428Y-114438095D01*
M02*
