G04 #@! TF.GenerationSoftware,KiCad,Pcbnew,5.1.10-88a1d61d58~88~ubuntu20.04.1*
G04 #@! TF.CreationDate,2021-05-03T06:19:38-04:00*
G04 #@! TF.ProjectId,SpaceCenter_TouchBoard_KiCAD,53706163-6543-4656-9e74-65725f546f75,rev?*
G04 #@! TF.SameCoordinates,Original*
G04 #@! TF.FileFunction,Legend,Bot*
G04 #@! TF.FilePolarity,Positive*
%FSLAX46Y46*%
G04 Gerber Fmt 4.6, Leading zero omitted, Abs format (unit mm)*
G04 Created by KiCad (PCBNEW 5.1.10-88a1d61d58~88~ubuntu20.04.1) date 2021-05-03 06:19:38*
%MOMM*%
%LPD*%
G01*
G04 APERTURE LIST*
%ADD10C,0.150000*%
%ADD11C,0.120000*%
G04 APERTURE END LIST*
D10*
X140937476Y-89495880D02*
X140366047Y-89495880D01*
X140651761Y-90495880D02*
X140651761Y-89495880D01*
X139889857Y-90495880D02*
X139985095Y-90448261D01*
X140032714Y-90400642D01*
X140080333Y-90305404D01*
X140080333Y-90019690D01*
X140032714Y-89924452D01*
X139985095Y-89876833D01*
X139889857Y-89829214D01*
X139747000Y-89829214D01*
X139651761Y-89876833D01*
X139604142Y-89924452D01*
X139556523Y-90019690D01*
X139556523Y-90305404D01*
X139604142Y-90400642D01*
X139651761Y-90448261D01*
X139747000Y-90495880D01*
X139889857Y-90495880D01*
X138699380Y-89829214D02*
X138699380Y-90495880D01*
X139127952Y-89829214D02*
X139127952Y-90353023D01*
X139080333Y-90448261D01*
X138985095Y-90495880D01*
X138842238Y-90495880D01*
X138747000Y-90448261D01*
X138699380Y-90400642D01*
X137794619Y-90448261D02*
X137889857Y-90495880D01*
X138080333Y-90495880D01*
X138175571Y-90448261D01*
X138223190Y-90400642D01*
X138270809Y-90305404D01*
X138270809Y-90019690D01*
X138223190Y-89924452D01*
X138175571Y-89876833D01*
X138080333Y-89829214D01*
X137889857Y-89829214D01*
X137794619Y-89876833D01*
X137366047Y-90495880D02*
X137366047Y-89495880D01*
X136937476Y-90495880D02*
X136937476Y-89972071D01*
X136985095Y-89876833D01*
X137080333Y-89829214D01*
X137223190Y-89829214D01*
X137318428Y-89876833D01*
X137366047Y-89924452D01*
X135366047Y-89972071D02*
X135223190Y-90019690D01*
X135175571Y-90067309D01*
X135127952Y-90162547D01*
X135127952Y-90305404D01*
X135175571Y-90400642D01*
X135223190Y-90448261D01*
X135318428Y-90495880D01*
X135699380Y-90495880D01*
X135699380Y-89495880D01*
X135366047Y-89495880D01*
X135270809Y-89543500D01*
X135223190Y-89591119D01*
X135175571Y-89686357D01*
X135175571Y-89781595D01*
X135223190Y-89876833D01*
X135270809Y-89924452D01*
X135366047Y-89972071D01*
X135699380Y-89972071D01*
X134556523Y-90495880D02*
X134651761Y-90448261D01*
X134699380Y-90400642D01*
X134747000Y-90305404D01*
X134747000Y-90019690D01*
X134699380Y-89924452D01*
X134651761Y-89876833D01*
X134556523Y-89829214D01*
X134413666Y-89829214D01*
X134318428Y-89876833D01*
X134270809Y-89924452D01*
X134223190Y-90019690D01*
X134223190Y-90305404D01*
X134270809Y-90400642D01*
X134318428Y-90448261D01*
X134413666Y-90495880D01*
X134556523Y-90495880D01*
X133366047Y-90495880D02*
X133366047Y-89972071D01*
X133413666Y-89876833D01*
X133508904Y-89829214D01*
X133699380Y-89829214D01*
X133794619Y-89876833D01*
X133366047Y-90448261D02*
X133461285Y-90495880D01*
X133699380Y-90495880D01*
X133794619Y-90448261D01*
X133842238Y-90353023D01*
X133842238Y-90257785D01*
X133794619Y-90162547D01*
X133699380Y-90114928D01*
X133461285Y-90114928D01*
X133366047Y-90067309D01*
X132889857Y-90495880D02*
X132889857Y-89829214D01*
X132889857Y-90019690D02*
X132842238Y-89924452D01*
X132794619Y-89876833D01*
X132699380Y-89829214D01*
X132604142Y-89829214D01*
X131842238Y-90495880D02*
X131842238Y-89495880D01*
X131842238Y-90448261D02*
X131937476Y-90495880D01*
X132127952Y-90495880D01*
X132223190Y-90448261D01*
X132270809Y-90400642D01*
X132318428Y-90305404D01*
X132318428Y-90019690D01*
X132270809Y-89924452D01*
X132223190Y-89876833D01*
X132127952Y-89829214D01*
X131937476Y-89829214D01*
X131842238Y-89876833D01*
X130080333Y-90495880D02*
X130651761Y-90495880D01*
X130366047Y-90495880D02*
X130366047Y-89495880D01*
X130461285Y-89638738D01*
X130556523Y-89733976D01*
X130651761Y-89781595D01*
X129651761Y-90400642D02*
X129604142Y-90448261D01*
X129651761Y-90495880D01*
X129699380Y-90448261D01*
X129651761Y-90400642D01*
X129651761Y-90495880D01*
X128651761Y-90495880D02*
X129223190Y-90495880D01*
X128937476Y-90495880D02*
X128937476Y-89495880D01*
X129032714Y-89638738D01*
X129127952Y-89733976D01*
X129223190Y-89781595D01*
X135485095Y-91860166D02*
X135008904Y-91860166D01*
X135580333Y-92145880D02*
X135247000Y-91145880D01*
X134913666Y-92145880D01*
X134008904Y-92050642D02*
X134056523Y-92098261D01*
X134199380Y-92145880D01*
X134294619Y-92145880D01*
X134437476Y-92098261D01*
X134532714Y-92003023D01*
X134580333Y-91907785D01*
X134627952Y-91717309D01*
X134627952Y-91574452D01*
X134580333Y-91383976D01*
X134532714Y-91288738D01*
X134437476Y-91193500D01*
X134294619Y-91145880D01*
X134199380Y-91145880D01*
X134056523Y-91193500D01*
X134008904Y-91241119D01*
D11*
X140738000Y-94143500D02*
X140738000Y-99023500D01*
X143858000Y-100193500D02*
X143858000Y-99143500D01*
X142708000Y-100193500D02*
X143858000Y-100193500D01*
X143858000Y-94023500D02*
X144848000Y-94023500D01*
X143858000Y-92973500D02*
X143858000Y-94023500D01*
X142708000Y-92973500D02*
X143858000Y-92973500D01*
D10*
X139781333Y-95845380D02*
X139781333Y-96559666D01*
X139828952Y-96702523D01*
X139924190Y-96797761D01*
X140067047Y-96845380D01*
X140162285Y-96845380D01*
X138781333Y-96845380D02*
X139352761Y-96845380D01*
X139067047Y-96845380D02*
X139067047Y-95845380D01*
X139162285Y-95988238D01*
X139257523Y-96083476D01*
X139352761Y-96131095D01*
M02*
