G04 #@! TF.GenerationSoftware,KiCad,Pcbnew,5.1.10-88a1d61d58~88~ubuntu20.04.1*
G04 #@! TF.CreationDate,2021-05-03T06:19:38-04:00*
G04 #@! TF.ProjectId,SpaceCenter_TouchBoard_KiCAD,53706163-6543-4656-9e74-65725f546f75,rev?*
G04 #@! TF.SameCoordinates,Original*
G04 #@! TF.FileFunction,Copper,L2,Bot*
G04 #@! TF.FilePolarity,Positive*
%FSLAX46Y46*%
G04 Gerber Fmt 4.6, Leading zero omitted, Abs format (unit mm)*
G04 Created by KiCad (PCBNEW 5.1.10-88a1d61d58~88~ubuntu20.04.1) date 2021-05-03 06:19:38*
%MOMM*%
%LPD*%
G01*
G04 APERTURE LIST*
G04 #@! TA.AperFunction,ViaPad*
%ADD10C,0.800000*%
G04 #@! TD*
G04 #@! TA.AperFunction,Conductor*
%ADD11C,1.000000*%
G04 #@! TD*
G04 #@! TA.AperFunction,Conductor*
%ADD12C,0.500000*%
G04 #@! TD*
G04 #@! TA.AperFunction,Conductor*
%ADD13C,0.160000*%
G04 #@! TD*
G04 APERTURE END LIST*
G04 #@! TA.AperFunction,SMDPad,CuDef*
G36*
G01*
X143448000Y-94283500D02*
X144698000Y-94283500D01*
G75*
G02*
X144848000Y-94433500I0J-150000D01*
G01*
X144848000Y-94733500D01*
G75*
G02*
X144698000Y-94883500I-150000J0D01*
G01*
X143448000Y-94883500D01*
G75*
G02*
X143298000Y-94733500I0J150000D01*
G01*
X143298000Y-94433500D01*
G75*
G02*
X143448000Y-94283500I150000J0D01*
G01*
G37*
G04 #@! TD.AperFunction*
G04 #@! TA.AperFunction,SMDPad,CuDef*
G36*
G01*
X143448000Y-95283500D02*
X144698000Y-95283500D01*
G75*
G02*
X144848000Y-95433500I0J-150000D01*
G01*
X144848000Y-95733500D01*
G75*
G02*
X144698000Y-95883500I-150000J0D01*
G01*
X143448000Y-95883500D01*
G75*
G02*
X143298000Y-95733500I0J150000D01*
G01*
X143298000Y-95433500D01*
G75*
G02*
X143448000Y-95283500I150000J0D01*
G01*
G37*
G04 #@! TD.AperFunction*
G04 #@! TA.AperFunction,SMDPad,CuDef*
G36*
G01*
X143448000Y-96283500D02*
X144698000Y-96283500D01*
G75*
G02*
X144848000Y-96433500I0J-150000D01*
G01*
X144848000Y-96733500D01*
G75*
G02*
X144698000Y-96883500I-150000J0D01*
G01*
X143448000Y-96883500D01*
G75*
G02*
X143298000Y-96733500I0J150000D01*
G01*
X143298000Y-96433500D01*
G75*
G02*
X143448000Y-96283500I150000J0D01*
G01*
G37*
G04 #@! TD.AperFunction*
G04 #@! TA.AperFunction,SMDPad,CuDef*
G36*
G01*
X143448000Y-97283500D02*
X144698000Y-97283500D01*
G75*
G02*
X144848000Y-97433500I0J-150000D01*
G01*
X144848000Y-97733500D01*
G75*
G02*
X144698000Y-97883500I-150000J0D01*
G01*
X143448000Y-97883500D01*
G75*
G02*
X143298000Y-97733500I0J150000D01*
G01*
X143298000Y-97433500D01*
G75*
G02*
X143448000Y-97283500I150000J0D01*
G01*
G37*
G04 #@! TD.AperFunction*
G04 #@! TA.AperFunction,SMDPad,CuDef*
G36*
G01*
X143448000Y-98283500D02*
X144698000Y-98283500D01*
G75*
G02*
X144848000Y-98433500I0J-150000D01*
G01*
X144848000Y-98733500D01*
G75*
G02*
X144698000Y-98883500I-150000J0D01*
G01*
X143448000Y-98883500D01*
G75*
G02*
X143298000Y-98733500I0J150000D01*
G01*
X143298000Y-98433500D01*
G75*
G02*
X143448000Y-98283500I150000J0D01*
G01*
G37*
G04 #@! TD.AperFunction*
G04 #@! TA.AperFunction,SMDPad,CuDef*
G36*
G01*
X140897999Y-92683500D02*
X142198001Y-92683500D01*
G75*
G02*
X142448000Y-92933499I0J-249999D01*
G01*
X142448000Y-93633501D01*
G75*
G02*
X142198001Y-93883500I-249999J0D01*
G01*
X140897999Y-93883500D01*
G75*
G02*
X140648000Y-93633501I0J249999D01*
G01*
X140648000Y-92933499D01*
G75*
G02*
X140897999Y-92683500I249999J0D01*
G01*
G37*
G04 #@! TD.AperFunction*
G04 #@! TA.AperFunction,SMDPad,CuDef*
G36*
G01*
X140897600Y-99283500D02*
X142198400Y-99283500D01*
G75*
G02*
X142448000Y-99533100I0J-249600D01*
G01*
X142448000Y-100233900D01*
G75*
G02*
X142198400Y-100483500I-249600J0D01*
G01*
X140897600Y-100483500D01*
G75*
G02*
X140648000Y-100233900I0J249600D01*
G01*
X140648000Y-99533100D01*
G75*
G02*
X140897600Y-99283500I249600J0D01*
G01*
G37*
G04 #@! TD.AperFunction*
D10*
X137033000Y-102616000D03*
X143891000Y-88455500D03*
X145923000Y-90487500D03*
X142113000Y-105791000D03*
X141605000Y-87757000D03*
X132588000Y-106172000D03*
X141859000Y-97663000D03*
X145478500Y-97599500D03*
X139573000Y-103886000D03*
X133223000Y-91313000D03*
D11*
X144073000Y-94583500D02*
X142652500Y-94583500D01*
X142652500Y-94583500D02*
X142017500Y-94583500D01*
X142017500Y-94583500D02*
X139636500Y-96964500D01*
X139636500Y-96964500D02*
X139636500Y-97218500D01*
X137033000Y-99822000D02*
X137033000Y-102616000D01*
X139636500Y-97218500D02*
X137033000Y-99822000D01*
X144073000Y-91114000D02*
X143891000Y-90932000D01*
X144073000Y-94583500D02*
X144073000Y-91114000D01*
X143891000Y-90932000D02*
X143891000Y-88455500D01*
X144073000Y-98583500D02*
X144073000Y-102942000D01*
D12*
X144073000Y-98583500D02*
X146145500Y-98583500D01*
X146145500Y-98583500D02*
X146431000Y-98298000D01*
X146431000Y-98298000D02*
X146431000Y-96901000D01*
X146431000Y-96901000D02*
X145986500Y-96456500D01*
D11*
X145986500Y-90551000D02*
X145923000Y-90487500D01*
X145986500Y-96456500D02*
X145986500Y-90551000D01*
X144073000Y-103831000D02*
X142113000Y-105791000D01*
X144073000Y-102942000D02*
X144073000Y-103831000D01*
D13*
X144073000Y-95583500D02*
X144891000Y-95583500D01*
X144891000Y-95583500D02*
X145161000Y-95313500D01*
X145142991Y-95295491D02*
X145142991Y-88119991D01*
X145161000Y-95313500D02*
X145142991Y-95295491D01*
X145142991Y-88119991D02*
X144698490Y-87675490D01*
X144698490Y-87675490D02*
X142194510Y-87675490D01*
X141686510Y-87675490D02*
X141605000Y-87757000D01*
X142194510Y-87675490D02*
X141686510Y-87675490D01*
X142684500Y-98996500D02*
X142938500Y-99250500D01*
X142684500Y-97028000D02*
X142684500Y-98996500D01*
X142938500Y-99250500D02*
X142938500Y-102679500D01*
X143129000Y-96583500D02*
X142684500Y-97028000D01*
X144073000Y-96583500D02*
X143129000Y-96583500D01*
X142938500Y-102679500D02*
X142938500Y-102806500D01*
X139573000Y-106172000D02*
X132588000Y-106172000D01*
X142938500Y-102806500D02*
X139573000Y-106172000D01*
X145462500Y-97583500D02*
X145478500Y-97599500D01*
X144073000Y-97583500D02*
X145462500Y-97583500D01*
X133159500Y-99885500D02*
X133159500Y-101155500D01*
X135890000Y-103886000D02*
X139573000Y-103886000D01*
X133159500Y-101155500D02*
X135890000Y-103886000D01*
X133159500Y-99885500D02*
X133159500Y-94297500D01*
X133159500Y-91376500D02*
X133223000Y-91313000D01*
X133159500Y-94297500D02*
X133159500Y-91376500D01*
M02*
