G04 #@! TF.GenerationSoftware,KiCad,Pcbnew,5.1.10-88a1d61d58~90~ubuntu20.04.1*
G04 #@! TF.CreationDate,2021-09-13T06:15:53-04:00*
G04 #@! TF.ProjectId,SpaceCenter_TouchBoard_KiCAD,53706163-6543-4656-9e74-65725f546f75,rev?*
G04 #@! TF.SameCoordinates,Original*
G04 #@! TF.FileFunction,Soldermask,Top*
G04 #@! TF.FilePolarity,Negative*
%FSLAX46Y46*%
G04 Gerber Fmt 4.6, Leading zero omitted, Abs format (unit mm)*
G04 Created by KiCad (PCBNEW 5.1.10-88a1d61d58~90~ubuntu20.04.1) date 2021-09-13 06:15:53*
%MOMM*%
%LPD*%
G01*
G04 APERTURE LIST*
G04 APERTURE END LIST*
G36*
G01*
X129605999Y-105664200D02*
X129047199Y-105664200D01*
G75*
G02*
X128996199Y-105613200I0J51000D01*
G01*
X128996199Y-104292400D01*
G75*
G02*
X129047199Y-104241400I51000J0D01*
G01*
X129605999Y-104241400D01*
G75*
G02*
X129656999Y-104292400I0J-51000D01*
G01*
X129656999Y-105613200D01*
G75*
G02*
X129605999Y-105664200I-51000J0D01*
G01*
G37*
G36*
G01*
X130556000Y-105664200D02*
X129997200Y-105664200D01*
G75*
G02*
X129946200Y-105613200I0J51000D01*
G01*
X129946200Y-104292400D01*
G75*
G02*
X129997200Y-104241400I51000J0D01*
G01*
X130556000Y-104241400D01*
G75*
G02*
X130607000Y-104292400I0J-51000D01*
G01*
X130607000Y-105613200D01*
G75*
G02*
X130556000Y-105664200I-51000J0D01*
G01*
G37*
G36*
G01*
X131506001Y-105664200D02*
X130947201Y-105664200D01*
G75*
G02*
X130896201Y-105613200I0J51000D01*
G01*
X130896201Y-104292400D01*
G75*
G02*
X130947201Y-104241400I51000J0D01*
G01*
X131506001Y-104241400D01*
G75*
G02*
X131557001Y-104292400I0J-51000D01*
G01*
X131557001Y-105613200D01*
G75*
G02*
X131506001Y-105664200I-51000J0D01*
G01*
G37*
G36*
G01*
X131506001Y-103073400D02*
X130947201Y-103073400D01*
G75*
G02*
X130896201Y-103022400I0J51000D01*
G01*
X130896201Y-101701600D01*
G75*
G02*
X130947201Y-101650600I51000J0D01*
G01*
X131506001Y-101650600D01*
G75*
G02*
X131557001Y-101701600I0J-51000D01*
G01*
X131557001Y-103022400D01*
G75*
G02*
X131506001Y-103073400I-51000J0D01*
G01*
G37*
G36*
G01*
X130556000Y-103073400D02*
X129997200Y-103073400D01*
G75*
G02*
X129946200Y-103022400I0J51000D01*
G01*
X129946200Y-101701600D01*
G75*
G02*
X129997200Y-101650600I51000J0D01*
G01*
X130556000Y-101650600D01*
G75*
G02*
X130607000Y-101701600I0J-51000D01*
G01*
X130607000Y-103022400D01*
G75*
G02*
X130556000Y-103073400I-51000J0D01*
G01*
G37*
G36*
G01*
X129605999Y-103073400D02*
X129047199Y-103073400D01*
G75*
G02*
X128996199Y-103022400I0J51000D01*
G01*
X128996199Y-101701600D01*
G75*
G02*
X129047199Y-101650600I51000J0D01*
G01*
X129605999Y-101650600D01*
G75*
G02*
X129656999Y-101701600I0J-51000D01*
G01*
X129656999Y-103022400D01*
G75*
G02*
X129605999Y-103073400I-51000J0D01*
G01*
G37*
G36*
G01*
X130809800Y-101083500D02*
X130809800Y-92083500D01*
G75*
G02*
X130860800Y-92032500I51000J0D01*
G01*
X143560800Y-92032500D01*
G75*
G02*
X143611800Y-92083500I0J-51000D01*
G01*
X143611800Y-101083500D01*
G75*
G02*
X143560800Y-101134500I-51000J0D01*
G01*
X130860800Y-101134500D01*
G75*
G02*
X130809800Y-101083500I0J51000D01*
G01*
G37*
G36*
G01*
X138809000Y-91127000D02*
X138809000Y-90127000D01*
G75*
G02*
X138860000Y-90076000I51000J0D01*
G01*
X140360000Y-90076000D01*
G75*
G02*
X140411000Y-90127000I0J-51000D01*
G01*
X140411000Y-91127000D01*
G75*
G02*
X140360000Y-91178000I-51000J0D01*
G01*
X138860000Y-91178000D01*
G75*
G02*
X138809000Y-91127000I0J51000D01*
G01*
G37*
G36*
G01*
X138809000Y-87927000D02*
X138809000Y-86927000D01*
G75*
G02*
X138860000Y-86876000I51000J0D01*
G01*
X140360000Y-86876000D01*
G75*
G02*
X140411000Y-86927000I0J-51000D01*
G01*
X140411000Y-87927000D01*
G75*
G02*
X140360000Y-87978000I-51000J0D01*
G01*
X138860000Y-87978000D01*
G75*
G02*
X138809000Y-87927000I0J51000D01*
G01*
G37*
G36*
G01*
X133909000Y-91127000D02*
X133909000Y-90127000D01*
G75*
G02*
X133960000Y-90076000I51000J0D01*
G01*
X135460000Y-90076000D01*
G75*
G02*
X135511000Y-90127000I0J-51000D01*
G01*
X135511000Y-91127000D01*
G75*
G02*
X135460000Y-91178000I-51000J0D01*
G01*
X133960000Y-91178000D01*
G75*
G02*
X133909000Y-91127000I0J51000D01*
G01*
G37*
G36*
G01*
X133909000Y-87927000D02*
X133909000Y-86927000D01*
G75*
G02*
X133960000Y-86876000I51000J0D01*
G01*
X135460000Y-86876000D01*
G75*
G02*
X135511000Y-86927000I0J-51000D01*
G01*
X135511000Y-87927000D01*
G75*
G02*
X135460000Y-87978000I-51000J0D01*
G01*
X133960000Y-87978000D01*
G75*
G02*
X133909000Y-87927000I0J51000D01*
G01*
G37*
G36*
G01*
X133909000Y-103040000D02*
X133909000Y-102040000D01*
G75*
G02*
X133960000Y-101989000I51000J0D01*
G01*
X135460000Y-101989000D01*
G75*
G02*
X135511000Y-102040000I0J-51000D01*
G01*
X135511000Y-103040000D01*
G75*
G02*
X135460000Y-103091000I-51000J0D01*
G01*
X133960000Y-103091000D01*
G75*
G02*
X133909000Y-103040000I0J51000D01*
G01*
G37*
G36*
G01*
X133909000Y-106240000D02*
X133909000Y-105240000D01*
G75*
G02*
X133960000Y-105189000I51000J0D01*
G01*
X135460000Y-105189000D01*
G75*
G02*
X135511000Y-105240000I0J-51000D01*
G01*
X135511000Y-106240000D01*
G75*
G02*
X135460000Y-106291000I-51000J0D01*
G01*
X133960000Y-106291000D01*
G75*
G02*
X133909000Y-106240000I0J51000D01*
G01*
G37*
G36*
G01*
X138809000Y-103040000D02*
X138809000Y-102040000D01*
G75*
G02*
X138860000Y-101989000I51000J0D01*
G01*
X140360000Y-101989000D01*
G75*
G02*
X140411000Y-102040000I0J-51000D01*
G01*
X140411000Y-103040000D01*
G75*
G02*
X140360000Y-103091000I-51000J0D01*
G01*
X138860000Y-103091000D01*
G75*
G02*
X138809000Y-103040000I0J51000D01*
G01*
G37*
G36*
G01*
X138809000Y-106240000D02*
X138809000Y-105240000D01*
G75*
G02*
X138860000Y-105189000I51000J0D01*
G01*
X140360000Y-105189000D01*
G75*
G02*
X140411000Y-105240000I0J-51000D01*
G01*
X140411000Y-106240000D01*
G75*
G02*
X140360000Y-106291000I-51000J0D01*
G01*
X138860000Y-106291000D01*
G75*
G02*
X138809000Y-106240000I0J51000D01*
G01*
G37*
G36*
G01*
X132026500Y-87914000D02*
X132387500Y-87914000D01*
G75*
G02*
X132568000Y-88094500I0J-180500D01*
G01*
X132568000Y-88570500D01*
G75*
G02*
X132387500Y-88751000I-180500J0D01*
G01*
X132026500Y-88751000D01*
G75*
G02*
X131846000Y-88570500I0J180500D01*
G01*
X131846000Y-88094500D01*
G75*
G02*
X132026500Y-87914000I180500J0D01*
G01*
G37*
G36*
G01*
X132026500Y-89049000D02*
X132387500Y-89049000D01*
G75*
G02*
X132568000Y-89229500I0J-180500D01*
G01*
X132568000Y-89705500D01*
G75*
G02*
X132387500Y-89886000I-180500J0D01*
G01*
X132026500Y-89886000D01*
G75*
G02*
X131846000Y-89705500I0J180500D01*
G01*
X131846000Y-89229500D01*
G75*
G02*
X132026500Y-89049000I180500J0D01*
G01*
G37*
G36*
G01*
X132661500Y-103171400D02*
X133022500Y-103171400D01*
G75*
G02*
X133203000Y-103351900I0J-180500D01*
G01*
X133203000Y-103827900D01*
G75*
G02*
X133022500Y-104008400I-180500J0D01*
G01*
X132661500Y-104008400D01*
G75*
G02*
X132481000Y-103827900I0J180500D01*
G01*
X132481000Y-103351900D01*
G75*
G02*
X132661500Y-103171400I180500J0D01*
G01*
G37*
G36*
G01*
X132661500Y-102036400D02*
X133022500Y-102036400D01*
G75*
G02*
X133203000Y-102216900I0J-180500D01*
G01*
X133203000Y-102692900D01*
G75*
G02*
X133022500Y-102873400I-180500J0D01*
G01*
X132661500Y-102873400D01*
G75*
G02*
X132481000Y-102692900I0J180500D01*
G01*
X132481000Y-102216900D01*
G75*
G02*
X132661500Y-102036400I180500J0D01*
G01*
G37*
G36*
G01*
X130491900Y-100530500D02*
X130491900Y-100891500D01*
G75*
G02*
X130311400Y-101072000I-180500J0D01*
G01*
X129835400Y-101072000D01*
G75*
G02*
X129654900Y-100891500I0J180500D01*
G01*
X129654900Y-100530500D01*
G75*
G02*
X129835400Y-100350000I180500J0D01*
G01*
X130311400Y-100350000D01*
G75*
G02*
X130491900Y-100530500I0J-180500D01*
G01*
G37*
G36*
G01*
X129356900Y-100530500D02*
X129356900Y-100891500D01*
G75*
G02*
X129176400Y-101072000I-180500J0D01*
G01*
X128700400Y-101072000D01*
G75*
G02*
X128519900Y-100891500I0J180500D01*
G01*
X128519900Y-100530500D01*
G75*
G02*
X128700400Y-100350000I180500J0D01*
G01*
X129176400Y-100350000D01*
G75*
G02*
X129356900Y-100530500I0J-180500D01*
G01*
G37*
G36*
G01*
X130208100Y-97233300D02*
X129837100Y-97233300D01*
G75*
G02*
X129651600Y-97047800I0J185500D01*
G01*
X129651600Y-96601800D01*
G75*
G02*
X129837100Y-96416300I185500J0D01*
G01*
X130208100Y-96416300D01*
G75*
G02*
X130393600Y-96601800I0J-185500D01*
G01*
X130393600Y-97047800D01*
G75*
G02*
X130208100Y-97233300I-185500J0D01*
G01*
G37*
G36*
G01*
X130208100Y-98428300D02*
X129837100Y-98428300D01*
G75*
G02*
X129651600Y-98242800I0J185500D01*
G01*
X129651600Y-97796800D01*
G75*
G02*
X129837100Y-97611300I185500J0D01*
G01*
X130208100Y-97611300D01*
G75*
G02*
X130393600Y-97796800I0J-185500D01*
G01*
X130393600Y-98242800D01*
G75*
G02*
X130208100Y-98428300I-185500J0D01*
G01*
G37*
G36*
G01*
X128338500Y-96428400D02*
X128709500Y-96428400D01*
G75*
G02*
X128895000Y-96613900I0J-185500D01*
G01*
X128895000Y-97059900D01*
G75*
G02*
X128709500Y-97245400I-185500J0D01*
G01*
X128338500Y-97245400D01*
G75*
G02*
X128153000Y-97059900I0J185500D01*
G01*
X128153000Y-96613900D01*
G75*
G02*
X128338500Y-96428400I185500J0D01*
G01*
G37*
G36*
G01*
X128338500Y-97623400D02*
X128709500Y-97623400D01*
G75*
G02*
X128895000Y-97808900I0J-185500D01*
G01*
X128895000Y-98254900D01*
G75*
G02*
X128709500Y-98440400I-185500J0D01*
G01*
X128338500Y-98440400D01*
G75*
G02*
X128153000Y-98254900I0J185500D01*
G01*
X128153000Y-97808900D01*
G75*
G02*
X128338500Y-97623400I185500J0D01*
G01*
G37*
G36*
G01*
X129811700Y-92758700D02*
X130182700Y-92758700D01*
G75*
G02*
X130368200Y-92944200I0J-185500D01*
G01*
X130368200Y-93390200D01*
G75*
G02*
X130182700Y-93575700I-185500J0D01*
G01*
X129811700Y-93575700D01*
G75*
G02*
X129626200Y-93390200I0J185500D01*
G01*
X129626200Y-92944200D01*
G75*
G02*
X129811700Y-92758700I185500J0D01*
G01*
G37*
G36*
G01*
X129811700Y-93953700D02*
X130182700Y-93953700D01*
G75*
G02*
X130368200Y-94139200I0J-185500D01*
G01*
X130368200Y-94585200D01*
G75*
G02*
X130182700Y-94770700I-185500J0D01*
G01*
X129811700Y-94770700D01*
G75*
G02*
X129626200Y-94585200I0J185500D01*
G01*
X129626200Y-94139200D01*
G75*
G02*
X129811700Y-93953700I185500J0D01*
G01*
G37*
G36*
G01*
X128734900Y-93587800D02*
X128363900Y-93587800D01*
G75*
G02*
X128178400Y-93402300I0J185500D01*
G01*
X128178400Y-92956300D01*
G75*
G02*
X128363900Y-92770800I185500J0D01*
G01*
X128734900Y-92770800D01*
G75*
G02*
X128920400Y-92956300I0J-185500D01*
G01*
X128920400Y-93402300D01*
G75*
G02*
X128734900Y-93587800I-185500J0D01*
G01*
G37*
G36*
G01*
X128734900Y-94782800D02*
X128363900Y-94782800D01*
G75*
G02*
X128178400Y-94597300I0J185500D01*
G01*
X128178400Y-94151300D01*
G75*
G02*
X128363900Y-93965800I185500J0D01*
G01*
X128734900Y-93965800D01*
G75*
G02*
X128920400Y-94151300I0J-185500D01*
G01*
X128920400Y-94597300D01*
G75*
G02*
X128734900Y-94782800I-185500J0D01*
G01*
G37*
G36*
G01*
X143746300Y-103023300D02*
X143375300Y-103023300D01*
G75*
G02*
X143189800Y-102837800I0J185500D01*
G01*
X143189800Y-102391800D01*
G75*
G02*
X143375300Y-102206300I185500J0D01*
G01*
X143746300Y-102206300D01*
G75*
G02*
X143931800Y-102391800I0J-185500D01*
G01*
X143931800Y-102837800D01*
G75*
G02*
X143746300Y-103023300I-185500J0D01*
G01*
G37*
G36*
G01*
X143746300Y-104218300D02*
X143375300Y-104218300D01*
G75*
G02*
X143189800Y-104032800I0J185500D01*
G01*
X143189800Y-103586800D01*
G75*
G02*
X143375300Y-103401300I185500J0D01*
G01*
X143746300Y-103401300D01*
G75*
G02*
X143931800Y-103586800I0J-185500D01*
G01*
X143931800Y-104032800D01*
G75*
G02*
X143746300Y-104218300I-185500J0D01*
G01*
G37*
G36*
G01*
X145270300Y-105539100D02*
X144899300Y-105539100D01*
G75*
G02*
X144713800Y-105353600I0J185500D01*
G01*
X144713800Y-104907600D01*
G75*
G02*
X144899300Y-104722100I185500J0D01*
G01*
X145270300Y-104722100D01*
G75*
G02*
X145455800Y-104907600I0J-185500D01*
G01*
X145455800Y-105353600D01*
G75*
G02*
X145270300Y-105539100I-185500J0D01*
G01*
G37*
G36*
G01*
X145270300Y-104344100D02*
X144899300Y-104344100D01*
G75*
G02*
X144713800Y-104158600I0J185500D01*
G01*
X144713800Y-103712600D01*
G75*
G02*
X144899300Y-103527100I185500J0D01*
G01*
X145270300Y-103527100D01*
G75*
G02*
X145455800Y-103712600I0J-185500D01*
G01*
X145455800Y-104158600D01*
G75*
G02*
X145270300Y-104344100I-185500J0D01*
G01*
G37*
M02*
