G04 #@! TF.GenerationSoftware,KiCad,Pcbnew,5.1.10-88a1d61d58~90~ubuntu20.04.1*
G04 #@! TF.CreationDate,2021-09-13T06:15:53-04:00*
G04 #@! TF.ProjectId,SpaceCenter_TouchBoard_KiCAD,53706163-6543-4656-9e74-65725f546f75,rev?*
G04 #@! TF.SameCoordinates,Original*
G04 #@! TF.FileFunction,Legend,Top*
G04 #@! TF.FilePolarity,Positive*
%FSLAX46Y46*%
G04 Gerber Fmt 4.6, Leading zero omitted, Abs format (unit mm)*
G04 Created by KiCad (PCBNEW 5.1.10-88a1d61d58~90~ubuntu20.04.1) date 2021-09-13 06:15:53*
%MOMM*%
%LPD*%
G01*
G04 APERTURE LIST*
%ADD10C,0.150000*%
%ADD11C,0.120000*%
%ADD12C,0.127000*%
%ADD13C,0.101600*%
G04 APERTURE END LIST*
D10*
X133325657Y-86842600D02*
G75*
G03*
X133325657Y-86842600I-305857J0D01*
G01*
X133554257Y-101549200D02*
G75*
G03*
X133554257Y-101549200I-305857J0D01*
G01*
D11*
X128600200Y-102628700D02*
X128600200Y-104686100D01*
X131953000Y-104686100D02*
X131953000Y-102628700D01*
X140810000Y-91777000D02*
X140810000Y-90627000D01*
X133510000Y-91777000D02*
X140810000Y-91777000D01*
X133510000Y-86277000D02*
X140810000Y-86277000D01*
X133510000Y-101390000D02*
X140810000Y-101390000D01*
X133510000Y-106890000D02*
X140810000Y-106890000D01*
X140810000Y-106890000D02*
X140810000Y-105740000D01*
X131847000Y-88784165D02*
X131847000Y-89015835D01*
X132567000Y-88784165D02*
X132567000Y-89015835D01*
X133202000Y-102906565D02*
X133202000Y-103138235D01*
X132482000Y-102906565D02*
X132482000Y-103138235D01*
X129621735Y-100351000D02*
X129390065Y-100351000D01*
X129621735Y-101071000D02*
X129390065Y-101071000D01*
X129642600Y-97589921D02*
X129642600Y-97254679D01*
X130402600Y-97589921D02*
X130402600Y-97254679D01*
X128144000Y-97266779D02*
X128144000Y-97602021D01*
X128904000Y-97266779D02*
X128904000Y-97602021D01*
X129617200Y-93597079D02*
X129617200Y-93932321D01*
X130377200Y-93597079D02*
X130377200Y-93932321D01*
X128169400Y-93944421D02*
X128169400Y-93609179D01*
X128929400Y-93944421D02*
X128929400Y-93609179D01*
X143180800Y-103379921D02*
X143180800Y-103044679D01*
X143940800Y-103379921D02*
X143940800Y-103044679D01*
X145464800Y-104700721D02*
X145464800Y-104365479D01*
X144704800Y-104700721D02*
X144704800Y-104365479D01*
D12*
X131728028Y-105932514D02*
X131728028Y-106549371D01*
X131764314Y-106621942D01*
X131800600Y-106658228D01*
X131873171Y-106694514D01*
X132018314Y-106694514D01*
X132090885Y-106658228D01*
X132127171Y-106621942D01*
X132163457Y-106549371D01*
X132163457Y-105932514D01*
X132925457Y-106694514D02*
X132490028Y-106694514D01*
X132707742Y-106694514D02*
X132707742Y-105932514D01*
X132635171Y-106041371D01*
X132562600Y-106113942D01*
X132490028Y-106150228D01*
D10*
X128154180Y-105333800D02*
X128392276Y-105333800D01*
X128297038Y-105571895D02*
X128392276Y-105333800D01*
X128297038Y-105095704D01*
X128582752Y-105476657D02*
X128392276Y-105333800D01*
X128582752Y-105190942D01*
X128154180Y-105333800D02*
X128392276Y-105333800D01*
X128297038Y-105571895D02*
X128392276Y-105333800D01*
X128297038Y-105095704D01*
X128582752Y-105476657D02*
X128392276Y-105333800D01*
X128582752Y-105190942D01*
X141146304Y-89377780D02*
X141146304Y-88377780D01*
X141384400Y-88377780D01*
X141527257Y-88425400D01*
X141622495Y-88520638D01*
X141670114Y-88615876D01*
X141717733Y-88806352D01*
X141717733Y-88949209D01*
X141670114Y-89139685D01*
X141622495Y-89234923D01*
X141527257Y-89330161D01*
X141384400Y-89377780D01*
X141146304Y-89377780D01*
X142670114Y-89377780D02*
X142098685Y-89377780D01*
X142384400Y-89377780D02*
X142384400Y-88377780D01*
X142289161Y-88520638D01*
X142193923Y-88615876D01*
X142098685Y-88663495D01*
X140765304Y-104465380D02*
X140765304Y-103465380D01*
X141003400Y-103465380D01*
X141146257Y-103513000D01*
X141241495Y-103608238D01*
X141289114Y-103703476D01*
X141336733Y-103893952D01*
X141336733Y-104036809D01*
X141289114Y-104227285D01*
X141241495Y-104322523D01*
X141146257Y-104417761D01*
X141003400Y-104465380D01*
X140765304Y-104465380D01*
X141717685Y-103560619D02*
X141765304Y-103513000D01*
X141860542Y-103465380D01*
X142098638Y-103465380D01*
X142193876Y-103513000D01*
X142241495Y-103560619D01*
X142289114Y-103655857D01*
X142289114Y-103751095D01*
X142241495Y-103893952D01*
X141670066Y-104465380D01*
X142289114Y-104465380D01*
X130490933Y-89282542D02*
X130443314Y-89330161D01*
X130300457Y-89377780D01*
X130205219Y-89377780D01*
X130062361Y-89330161D01*
X129967123Y-89234923D01*
X129919504Y-89139685D01*
X129871885Y-88949209D01*
X129871885Y-88806352D01*
X129919504Y-88615876D01*
X129967123Y-88520638D01*
X130062361Y-88425400D01*
X130205219Y-88377780D01*
X130300457Y-88377780D01*
X130443314Y-88425400D01*
X130490933Y-88473019D01*
X131443314Y-89377780D02*
X130871885Y-89377780D01*
X131157600Y-89377780D02*
X131157600Y-88377780D01*
X131062361Y-88520638D01*
X130967123Y-88615876D01*
X130871885Y-88663495D01*
D13*
X132833533Y-104804028D02*
X132809342Y-104828219D01*
X132736771Y-104852409D01*
X132688390Y-104852409D01*
X132615819Y-104828219D01*
X132567438Y-104779838D01*
X132543247Y-104731457D01*
X132519057Y-104634695D01*
X132519057Y-104562123D01*
X132543247Y-104465361D01*
X132567438Y-104416980D01*
X132615819Y-104368600D01*
X132688390Y-104344409D01*
X132736771Y-104344409D01*
X132809342Y-104368600D01*
X132833533Y-104392790D01*
X133027057Y-104392790D02*
X133051247Y-104368600D01*
X133099628Y-104344409D01*
X133220580Y-104344409D01*
X133268961Y-104368600D01*
X133293152Y-104392790D01*
X133317342Y-104441171D01*
X133317342Y-104489552D01*
X133293152Y-104562123D01*
X133002866Y-104852409D01*
X133317342Y-104852409D01*
D12*
X129743200Y-99967142D02*
X129706914Y-100003428D01*
X129598057Y-100039714D01*
X129525485Y-100039714D01*
X129416628Y-100003428D01*
X129344057Y-99930857D01*
X129307771Y-99858285D01*
X129271485Y-99713142D01*
X129271485Y-99604285D01*
X129307771Y-99459142D01*
X129344057Y-99386571D01*
X129416628Y-99314000D01*
X129525485Y-99277714D01*
X129598057Y-99277714D01*
X129706914Y-99314000D01*
X129743200Y-99350285D01*
X129997200Y-99277714D02*
X130468914Y-99277714D01*
X130214914Y-99568000D01*
X130323771Y-99568000D01*
X130396342Y-99604285D01*
X130432628Y-99640571D01*
X130468914Y-99713142D01*
X130468914Y-99894571D01*
X130432628Y-99967142D01*
X130396342Y-100003428D01*
X130323771Y-100039714D01*
X130106057Y-100039714D01*
X130033485Y-100003428D01*
X129997200Y-99967142D01*
X129997200Y-91835514D02*
X129743200Y-91472657D01*
X129561771Y-91835514D02*
X129561771Y-91073514D01*
X129852057Y-91073514D01*
X129924628Y-91109800D01*
X129960914Y-91146085D01*
X129997200Y-91218657D01*
X129997200Y-91327514D01*
X129960914Y-91400085D01*
X129924628Y-91436371D01*
X129852057Y-91472657D01*
X129561771Y-91472657D01*
X130287485Y-91146085D02*
X130323771Y-91109800D01*
X130396342Y-91073514D01*
X130577771Y-91073514D01*
X130650342Y-91109800D01*
X130686628Y-91146085D01*
X130722914Y-91218657D01*
X130722914Y-91291228D01*
X130686628Y-91400085D01*
X130251200Y-91835514D01*
X130722914Y-91835514D01*
X128295400Y-91860914D02*
X128041400Y-91498057D01*
X127859971Y-91860914D02*
X127859971Y-91098914D01*
X128150257Y-91098914D01*
X128222828Y-91135200D01*
X128259114Y-91171485D01*
X128295400Y-91244057D01*
X128295400Y-91352914D01*
X128259114Y-91425485D01*
X128222828Y-91461771D01*
X128150257Y-91498057D01*
X127859971Y-91498057D01*
X128549400Y-91098914D02*
X129021114Y-91098914D01*
X128767114Y-91389200D01*
X128875971Y-91389200D01*
X128948542Y-91425485D01*
X128984828Y-91461771D01*
X129021114Y-91534342D01*
X129021114Y-91715771D01*
X128984828Y-91788342D01*
X128948542Y-91824628D01*
X128875971Y-91860914D01*
X128658257Y-91860914D01*
X128585685Y-91824628D01*
X128549400Y-91788342D01*
X129971800Y-90616314D02*
X129717800Y-90253457D01*
X129536371Y-90616314D02*
X129536371Y-89854314D01*
X129826657Y-89854314D01*
X129899228Y-89890600D01*
X129935514Y-89926885D01*
X129971800Y-89999457D01*
X129971800Y-90108314D01*
X129935514Y-90180885D01*
X129899228Y-90217171D01*
X129826657Y-90253457D01*
X129536371Y-90253457D01*
X130624942Y-90108314D02*
X130624942Y-90616314D01*
X130443514Y-89818028D02*
X130262085Y-90362314D01*
X130733800Y-90362314D01*
X128295400Y-90590914D02*
X128041400Y-90228057D01*
X127859971Y-90590914D02*
X127859971Y-89828914D01*
X128150257Y-89828914D01*
X128222828Y-89865200D01*
X128259114Y-89901485D01*
X128295400Y-89974057D01*
X128295400Y-90082914D01*
X128259114Y-90155485D01*
X128222828Y-90191771D01*
X128150257Y-90228057D01*
X127859971Y-90228057D01*
X128984828Y-89828914D02*
X128621971Y-89828914D01*
X128585685Y-90191771D01*
X128621971Y-90155485D01*
X128694542Y-90119200D01*
X128875971Y-90119200D01*
X128948542Y-90155485D01*
X128984828Y-90191771D01*
X129021114Y-90264342D01*
X129021114Y-90445771D01*
X128984828Y-90518342D01*
X128948542Y-90554628D01*
X128875971Y-90590914D01*
X128694542Y-90590914D01*
X128621971Y-90554628D01*
X128585685Y-90518342D01*
X143459200Y-105627714D02*
X143205200Y-105264857D01*
X143023771Y-105627714D02*
X143023771Y-104865714D01*
X143314057Y-104865714D01*
X143386628Y-104902000D01*
X143422914Y-104938285D01*
X143459200Y-105010857D01*
X143459200Y-105119714D01*
X143422914Y-105192285D01*
X143386628Y-105228571D01*
X143314057Y-105264857D01*
X143023771Y-105264857D01*
X144112342Y-104865714D02*
X143967200Y-104865714D01*
X143894628Y-104902000D01*
X143858342Y-104938285D01*
X143785771Y-105047142D01*
X143749485Y-105192285D01*
X143749485Y-105482571D01*
X143785771Y-105555142D01*
X143822057Y-105591428D01*
X143894628Y-105627714D01*
X144039771Y-105627714D01*
X144112342Y-105591428D01*
X144148628Y-105555142D01*
X144184914Y-105482571D01*
X144184914Y-105301142D01*
X144148628Y-105228571D01*
X144112342Y-105192285D01*
X144039771Y-105156000D01*
X143894628Y-105156000D01*
X143822057Y-105192285D01*
X143785771Y-105228571D01*
X143749485Y-105301142D01*
X145034000Y-103062314D02*
X144780000Y-102699457D01*
X144598571Y-103062314D02*
X144598571Y-102300314D01*
X144888857Y-102300314D01*
X144961428Y-102336600D01*
X144997714Y-102372885D01*
X145034000Y-102445457D01*
X145034000Y-102554314D01*
X144997714Y-102626885D01*
X144961428Y-102663171D01*
X144888857Y-102699457D01*
X144598571Y-102699457D01*
X145288000Y-102300314D02*
X145796000Y-102300314D01*
X145469428Y-103062314D01*
M02*
